<svg width="400" height="400" viewBox="0 0 400 400" fill="none" xmlns="http://www.w3.org/2000/svg">
<path opacity="0.1" d="M328.3 385.281L301.9 380.341L195.38 362.641L95.34 380.111L68.54 388.581L239.35 400.001L328.3 385.281Z" fill="#2B2B2B"/>
<path d="M278.05 348.711L273.94 237.581L267.62 199.881L209.84 176.381L135.37 217.321L108.12 362.641L133.42 384.671L279.06 385.051L301.94 380.111L278.05 348.711Z" fill="#446125"/>
<path d="M255.91 331.801L223.37 345.051L228.19 368.981H244.94L255.91 359.471V331.801Z" fill="#3F8F6F"/>
<path d="M255.91 359.471L276.73 380.111L256.61 384.671L227.69 380.111L228.19 368.981L255.91 359.471Z" fill="#54B08B"/>
<path d="M276.73 389.33H227.69V380.11H269.05L285.3 373.99L276.73 389.33Z" fill="#3F8F6F"/>
<path d="M255.91 331.801L226.07 357.271L223.37 345.051L239.64 331.801H255.91Z" fill="#35785D"/>
<path d="M140.38 106.721L106.64 129.951L104.45 157.561L127.53 198.581L286.31 184.411L281.42 122.771L264.59 112.571L140.38 106.721Z" fill="#B8C745"/>
<path d="M264.59 112.571L140.38 106.721L106.64 129.951L104.45 157.561L123.83 144.221L267.62 132.271L281.42 122.771L264.59 112.571Z" fill="#E8F078"/>
<path d="M180.52 346.63L175.41 366.98L158.65 368.98L143.62 362.64L146.18 339.07L180.52 346.63Z" fill="#3F8F6F"/>
<path d="M143.62 362.641L133.42 384.671H176.11L175.41 366.981L143.62 362.641Z" fill="#54B08B"/>
<path d="M176.11 392.329H133.42V384.669L154.76 378.109L176.11 384.669V392.329Z" fill="#3F8F6F"/>
<path d="M146.18 339.069L177.85 357.269L180.52 346.629L169.99 337.289L146.18 339.069Z" fill="#35785D"/>
<path d="M205.03 254.601L180.52 331.801L206.18 352.281L255.91 331.801L255.77 256.621L236.32 247.971L205.03 254.601Z" fill="#5A753D"/>
<path d="M153.18 272.82L146.18 339.07L206.18 352.28L205.03 254.6L153.18 272.82Z" fill="#709D53"/>
<path d="M255.77 155.36L267.62 132.27L309.99 196.02L254.44 217.65L250.21 205.39L255.77 155.36Z" fill="#5A753D"/>
<path d="M150.24 134.641L188.84 154.861L223.87 181.871L205.03 254.601H154.42V237.581L133.42 183.381L150.24 134.641Z" fill="#5A753D"/>
<path d="M209.84 176.379L204.99 237.579L205.03 254.599H255.77L255.91 230.829L267.62 132.269L242.87 129.949L241.99 140.239L231.47 139.749L225.94 163.529L209.84 176.379Z" fill="#709D53"/>
<path d="M135.37 217.32L118.82 199.73L95.3398 380.11L112.13 369.1L120.75 353.53L135.37 217.32Z" fill="#5A753D"/>
<path d="M133.42 384.669L95.3398 380.109L120.75 353.529L133.42 384.669Z" fill="#709D53"/>
<path d="M154.42 254.6H255.77V273.64L153.18 272.82L154.42 254.6Z" fill="#99C26D"/>
<path d="M118.82 199.73L123.83 144.22L154.15 132.36L162.79 131.09L153.1 165.66L156.57 206.78L118.82 199.73Z" fill="#738D57"/>
<path d="M209.39 167.16L223.37 152.65L231.47 139.75L246.21 141.89L244.92 163.66L209.84 176.38L201.52 168.94L209.39 167.16Z" fill="#35785D"/>
<path d="M209.39 167.16L209.84 176.38L153.1 165.66L150.24 134.64L162.79 131.09L177.01 146.52L209.39 167.16Z" fill="#54B08B"/>
<path d="M159.02 132.27L155.75 77.4303L148.96 63.3203L136.11 69.2503L133.42 140.47L159.02 132.27Z" fill="#2B2B2B"/>
<path d="M263.76 62.5993L267.62 132.269L247.19 130.499L243.92 55.7793L263.76 62.5993Z" fill="#2B2B2B"/>
<path d="M246.21 141.891L180.52 138.801L161.92 125.511L153.1 24.6407L255.79 20.2207L246.21 141.891Z" fill="#DFBDA5"/>
<path d="M236.32 141.43L169.11 132.59L161.03 34.47L148.96 15.25L159.52 138.08L161.92 153.36L209.39 167.16L234.09 155.01L236.32 141.43Z" fill="#C3987B"/>
<path d="M199.2 100.449L208.83 107.049L218.47 100.449H199.2Z" fill="#8B6651"/>
<path d="M169.07 75.1698L189.22 81.3598L199.2 100.45L204.88 69.6098L176.18 67.0098L169.07 75.1698Z" fill="#C3987B"/>
<path d="M218.47 100.45L232.79 81.36L248.59 75.17L241.49 70.7L228.45 69.25L212.78 69.61V88.73L218.47 100.45Z" fill="#C3987B"/>
<path d="M218.47 100.449L208.83 102.879L199.2 100.449L204.88 69.6094H212.78L218.47 100.449Z" fill="#E8CAB6"/>
<path d="M212.78 69.6103L241.49 70.7003L248.59 75.1703L241.49 63.3203L212.78 69.6103Z" fill="#474747"/>
<path d="M204.88 69.6103L176.18 70.7003L169.07 75.1703L176.18 63.3203L204.88 69.6103Z" fill="#474747"/>
<path d="M212.11 159.36L236.32 141.43L159.52 138.08L212.11 159.36Z" fill="#8B6651"/>
<path d="M136.11 69.25L138.15 18.11L159.52 12.78L176.29 0H233.56L246.21 15.25L268.07 24.64L263.76 62.6L252.3 64.58L254.94 28.95L210.62 43.46L162.68 21.88L154.58 83.73L136.11 69.25Z" fill="#4F5253"/>
<path d="M210.62 43.46L176.29 0L138.15 18.11L161.03 34.47L210.62 43.46Z" fill="#6F7173"/>
<path d="M167.09 107.971L248.51 112.701L246.21 141.891L169.07 138.501L167.09 107.971Z" fill="#C3987B"/>
<path d="M233.56 0L210.62 43.46L254.56 34.13L268.07 24.64L233.56 0Z" fill="#474747"/>
<path d="M181.38 116.86L188.84 116L180.52 124.08L181.38 116.86Z" fill="#8B6651"/>
<path d="M183.91 119.369L187.78 123.239H210.86" fill="#8B6651"/>
<path d="M183.91 119.369L187.78 123.239H210.86" stroke="#8B6651" stroke-width="4" stroke-miterlimit="10"/>
<path d="M167.09 107.97L156.57 103.75L159.52 138.08L169.07 138.5L167.09 107.97Z" fill="#8B6651"/>
<path d="M228.45 86.2405C231.145 86.2405 233.33 84.0556 233.33 81.3605C233.33 78.6653 231.145 76.4805 228.45 76.4805C225.755 76.4805 223.57 78.6653 223.57 81.3605C223.57 84.0556 225.755 86.2405 228.45 86.2405Z" fill="#2B2B2B"/>
<path d="M184.68 86.2405C187.375 86.2405 189.56 84.0556 189.56 81.3605C189.56 78.6653 187.375 76.4805 184.68 76.4805C181.985 76.4805 179.8 78.6653 179.8 81.3605C179.8 84.0556 181.985 86.2405 184.68 86.2405Z" fill="#2B2B2B"/>
<path d="M244.17 159.609H233.16V385.479H244.17V159.609Z" fill="#C4C4C4"/>
<path d="M238.66 169.169C244.315 169.169 248.9 164.585 248.9 158.929C248.9 153.274 244.315 148.689 238.66 148.689C233.005 148.689 228.42 153.274 228.42 158.929C228.42 164.585 233.005 169.169 238.66 169.169Z" fill="#DDDDDC"/>
<path d="M220.61 389.409L238.26 397.549L248.9 380.109L244.16 227.859L220.61 227.989V389.409Z" fill="#C4C4C4"/>
<path d="M255.91 227.99H238.66L238.26 397.55L255.91 389.41V227.99Z" fill="#9DA1A2"/>
<path d="M273.94 237.58L284.46 225.45L273.94 214.93L263.97 224.9H246.21L238.66 217.34L231.11 224.9H214.96L204.99 214.93L192.87 225.45L204.99 237.58L210.85 230.83H231.11L238.66 238.38L246.21 230.83H268.08L273.94 237.58Z" fill="#DDDDDC"/>
<path d="M118.82 199.73L154.42 237.58L213.53 227.73L215.54 209.9L207.8 202.15L118.82 199.73Z" fill="#54B08B"/>
<path d="M213.53 227.73L207.8 202.15L232.91 194.59L213.53 227.73Z" fill="#DFBDA5"/>
<path d="M309.99 196.02L259.35 201.89L250.21 212.26L256.61 224.9L281.73 228.49L309.99 196.02Z" fill="#54B08B"/>
<path d="M232.91 194.59L228.42 211.16L230.53 224.9H256.61L259.35 201.89L232.91 194.59Z" fill="#DFBDA5"/>
<path d="M232.91 194.59L230.53 224.9L213.53 227.73L216.6 208.52L232.91 194.59Z" fill="#C3987B"/>
</svg>
