<svg width="400" height="400" viewBox="0 0 400 400" fill="none" xmlns="http://www.w3.org/2000/svg">
<path opacity="0.1" fill-rule="evenodd" clip-rule="evenodd" d="M331.21 385.081L194.18 374.461L73.2402 386.321L194.46 400.001L331.21 385.081Z" fill="black"/>
<path fill-rule="evenodd" clip-rule="evenodd" d="M158.97 376.09L132.91 386.3L128.38 376.22L132.05 359.43L140.1 356.41L152.09 360.2L158.97 376.09Z" fill="#4F5253"/>
<path fill-rule="evenodd" clip-rule="evenodd" d="M257.87 362.621L247.58 381.291L227.28 370.761L225.59 359.141L243.91 350.631L257.87 362.621Z" fill="#4F5253"/>
<path opacity="0.2" fill-rule="evenodd" clip-rule="evenodd" d="M244.65 351.26L227.28 370.76L225.59 359.14L231.58 352.69L244.65 351.26Z" fill="black"/>
<path opacity="0.2" fill-rule="evenodd" clip-rule="evenodd" d="M132.05 359.43L142.58 356.41L152.09 360.2L129.87 369.4L132.05 359.43Z" fill="black"/>
<path fill-rule="evenodd" clip-rule="evenodd" d="M244.57 378.289L227.28 370.759L228.57 384.799L283.19 385.259L282.89 370.149L257.87 362.619L244.57 378.289Z" fill="#6F7173"/>
<path fill-rule="evenodd" clip-rule="evenodd" d="M169.26 391.88L168.97 375.62L144.96 373.09L134.58 383.67L128.38 376.22L127.68 391.88H169.26Z" fill="#6F7173"/>
<path fill-rule="evenodd" clip-rule="evenodd" d="M230.54 259.36L254.73 332.62L237.18 348.6L217.14 346.68L208.16 319.5L191.21 308.46L167.43 346.68L152.09 356.41L126.86 344.78L127.11 271.56L140.34 235.5L230.54 259.36Z" fill="#54B08B"/>
<path fill-rule="evenodd" clip-rule="evenodd" d="M223.51 264.881L248.96 337.011L239.35 341.891L211.09 278.241L223.51 264.881Z" fill="#3F8F6F"/>
<path fill-rule="evenodd" clip-rule="evenodd" d="M205.74 294.899L229.03 345.549L217.14 346.679L191.21 308.459L193.15 277.949L205.74 294.899Z" fill="#3F8F6F"/>
<path fill-rule="evenodd" clip-rule="evenodd" d="M177.17 297.32L158.31 348.64L148.27 347.6L164.12 279.01L177.17 297.32Z" fill="#3F8F6F"/>
<path fill-rule="evenodd" clip-rule="evenodd" d="M154.54 265.551L140.58 348.981L131.85 345.251L135.04 282.801L154.54 265.551Z" fill="#3F8F6F"/>
<path fill-rule="evenodd" clip-rule="evenodd" d="M254.73 332.619L217.14 346.679L225.59 359.139L259.49 347.039L254.73 332.619Z" fill="#35785D"/>
<path fill-rule="evenodd" clip-rule="evenodd" d="M167.43 346.679L126.86 344.779L126.81 359.139L158.77 360.599L167.43 346.679Z" fill="#35785D"/>
<path fill-rule="evenodd" clip-rule="evenodd" d="M205.74 294.899L191.21 308.459L177.17 297.319L193.15 270.949L205.74 294.899Z" fill="#35785D"/>
<path fill-rule="evenodd" clip-rule="evenodd" d="M288.33 186.02L296.71 163.59L309.93 168.22L321.76 179.02L298.18 199.99L288.33 186.02Z" fill="#DFBDA5"/>
<path fill-rule="evenodd" clip-rule="evenodd" d="M302.05 178.62L293.93 156.27L286.87 156.41L288.33 186.02L294.83 193.28L302.05 178.62Z" fill="#C3987B"/>
<path fill-rule="evenodd" clip-rule="evenodd" d="M296.71 163.591L317.4 142.051L330.5 154.301L321.76 179.021L296.71 163.591Z" fill="#C3987B"/>
<path fill-rule="evenodd" clip-rule="evenodd" d="M76.3896 236.699L116.01 263.499L126.81 241.879L76.3896 236.699Z" fill="#4F5253"/>
<path fill-rule="evenodd" clip-rule="evenodd" d="M89.5195 130.09L175.07 130.85L161.19 148.66L128.52 149.96L89.5195 130.09Z" fill="#C4C4C4"/>
<path fill-rule="evenodd" clip-rule="evenodd" d="M129.25 143.36L89.5196 130.09L86.0596 158.25L85.8596 179.65L81.3496 196.45L76.3896 236.7L141.39 246.02L129.25 143.36Z" fill="#6F7173"/>
<path fill-rule="evenodd" clip-rule="evenodd" d="M163.19 139.15L129.25 143.36L127.61 158.23L121.99 243.75L181.96 230.64L163.19 139.15Z" fill="#4F5253"/>
<path fill-rule="evenodd" clip-rule="evenodd" d="M86.0596 158.25L95.9996 164.54L110.35 167.1L104.39 207.24L81.3496 196.45L83.5396 178.69L86.5996 171.22L86.0596 158.25Z" fill="#9DA1A2"/>
<path fill-rule="evenodd" clip-rule="evenodd" d="M110.35 167.1L83.54 178.69L86.06 158.25L110.35 167.1Z" fill="#C4C4C4"/>
<path fill-rule="evenodd" clip-rule="evenodd" d="M218.09 165.4L232.24 209.74L230.54 259.36L205.74 294.9L193.15 277.95L177.17 297.32L148.21 256.66L126.81 253.32L130.68 212.39L161.19 148.66L218.09 165.4Z" fill="#738D57"/>
<path fill-rule="evenodd" clip-rule="evenodd" d="M196.06 208.221L178.62 255.681L193.15 266.821L208.65 256.161L196.06 208.221Z" fill="#4F5253"/>
<path fill-rule="evenodd" clip-rule="evenodd" d="M208.65 256.16L178.62 255.68L193.15 277.95L208.65 256.16Z" fill="#474747"/>
<path fill-rule="evenodd" clip-rule="evenodd" d="M211.34 191.37L196.06 208.22L181.58 189.23L197.51 186.43L211.34 191.37Z" fill="#474747"/>
<path fill-rule="evenodd" clip-rule="evenodd" d="M139.39 204.22V173.94L127.61 158.23L98.4805 224.93L118.94 223.88L130.68 217.4L139.39 204.22Z" fill="#5A753D"/>
<path fill-rule="evenodd" clip-rule="evenodd" d="M228.5 163.189L249.81 181.659L245.23 194.499L232.24 209.739L228.5 163.189Z" fill="#3F8F6F"/>
<path fill-rule="evenodd" clip-rule="evenodd" d="M249.81 181.66L277.86 204.41L272.77 214.98L246.34 219.64L232.24 209.74L249.81 181.66Z" fill="#99C26D"/>
<path fill-rule="evenodd" clip-rule="evenodd" d="M246.34 219.641L288.38 185.561L310.19 208.221L270.22 236.261L246.34 219.641Z" fill="#738D57"/>
<path fill-rule="evenodd" clip-rule="evenodd" d="M197.51 186.43L182.58 160.12L161.19 148.66L157.17 206.24L197.51 186.43Z" fill="#99C26D"/>
<path fill-rule="evenodd" clip-rule="evenodd" d="M228.5 163.189L203.59 168.469L197.51 186.429L232.24 209.739L228.5 163.189Z" fill="#99C26D"/>
<path fill-rule="evenodd" clip-rule="evenodd" d="M161.19 148.66L127.61 158.23L139.39 204.22L161.19 148.66Z" fill="#3F8F6F"/>
<path fill-rule="evenodd" clip-rule="evenodd" d="M224.14 141.881L208.16 154.731V178.691L228.5 163.191L224.14 141.881Z" fill="#5A753D"/>
<path fill-rule="evenodd" clip-rule="evenodd" d="M167.5 118.689L161.19 148.659L179.92 168.139L178.62 143.819L167.5 118.689Z" fill="#5A753D"/>
<path fill-rule="evenodd" clip-rule="evenodd" d="M130.68 125.899L167.5 118.689L169.49 108.079L163.12 96.3594L148.41 105.699L130.68 125.899Z" fill="#35785D"/>
<path fill-rule="evenodd" clip-rule="evenodd" d="M287.18 55.1309L271.79 87.6709L266.88 128.471L277.05 121.161L286.31 118.941L295.81 114.281L294.35 62.9509L293.26 56.4709L287.18 55.1309Z" fill="#3F8F6F"/>
<path fill-rule="evenodd" clip-rule="evenodd" d="M277.17 86.6699L286.31 118.94L266.88 128.47L269.63 115.91L276.38 112.47L273.88 103.18L277.17 86.6699Z" fill="#99C26D"/>
<path fill-rule="evenodd" clip-rule="evenodd" d="M287.18 55.1298L261.43 148.18L224.14 141.88L205.09 171.48L197.51 186.43L189.63 160.28L163.12 96.3598L211.53 52.2498L262.39 28.0898L287.18 55.1298Z" fill="#DFBDA5"/>
<path fill-rule="evenodd" clip-rule="evenodd" d="M252.62 32.7298L287.4 55.3698L275.13 36.3798L262.39 24.0898L253.99 26.4798L252.62 32.7298Z" fill="#8B6651"/>
<path fill-rule="evenodd" clip-rule="evenodd" d="M243.42 97.2595L237 68.2895L229.47 53.7495L248.84 53.2695L249.34 61.9995L243.42 97.2595Z" fill="#C3987B"/>
<path fill-rule="evenodd" clip-rule="evenodd" d="M257.58 63.5099L262.39 56.1699L278.86 64.4099L253.35 86.9999L257.58 63.5099Z" fill="#C3987B"/>
<path fill-rule="evenodd" clip-rule="evenodd" d="M251.24 98.7498L246.15 103.45L243.42 97.2598L251.24 98.7498Z" fill="#8B6651"/>
<path fill-rule="evenodd" clip-rule="evenodd" d="M211.53 52.25L193.76 135.48L208.89 148.18L216.15 160.28L208.16 178.69L197.51 186.43L179.92 168.14L167.5 118.69L169.49 108.08L163.12 96.36L211.53 52.25Z" fill="#C3987B"/>
<path fill-rule="evenodd" clip-rule="evenodd" d="M257.58 63.51L251.24 98.75L243.42 97.26L249.34 62L257.58 63.51Z" fill="#E8CAB6"/>
<path fill-rule="evenodd" clip-rule="evenodd" d="M211.53 52.25L193.82 81.33L176.27 92.55L194.6 99.75L167.5 118.69L163.12 96.36L180.77 77.13L211.53 52.25Z" fill="#8B6651"/>
<path fill-rule="evenodd" clip-rule="evenodd" d="M262.39 56.1702L273.53 54.2402L278.86 64.4102L262.39 56.1702Z" fill="#3F8F6F"/>
<path fill-rule="evenodd" clip-rule="evenodd" d="M248.84 53.2695L240.6 47.9395L229.47 53.7495L248.84 53.2695Z" fill="#3F8F6F"/>
<path fill-rule="evenodd" clip-rule="evenodd" d="M264.7 117.669L240.38 132.649L217.63 109.369L264.7 117.669Z" fill="#738D57"/>
<path fill-rule="evenodd" clip-rule="evenodd" d="M258.64 118.08L243.42 118.61L223.53 111.65L236.55 123.68L245.82 125.24L258.64 118.08Z" fill="white"/>
<path fill-rule="evenodd" clip-rule="evenodd" d="M264.7 117.669L244.76 111.129L217.63 109.369L243.42 119.339L264.7 117.669Z" fill="#446125"/>
<path fill-rule="evenodd" clip-rule="evenodd" d="M193.29 68.8691L194.6 99.7491L155.53 103.269L165.17 92.5691L186.37 91.5191L184.96 74.5391L193.29 68.8691Z" fill="#99C26D"/>
<path fill-rule="evenodd" clip-rule="evenodd" d="M224.14 141.88L180.32 132.65L216.15 160.28L224.14 141.88Z" fill="#8B6651"/>
<path fill-rule="evenodd" clip-rule="evenodd" d="M211.53 52.25L155.53 71.59L117.61 96.85L130.68 125.9L211.53 52.25Z" fill="#3F8F6F"/>
<path fill-rule="evenodd" clip-rule="evenodd" d="M208.16 42.01L173.78 0L114.22 53.75L208.16 42.01Z" fill="#3F8F6F"/>
<path fill-rule="evenodd" clip-rule="evenodd" d="M114.22 53.75L89.5195 77L117.61 96.85L119.94 71.59L114.22 53.75Z" fill="#3F8F6F"/>
<path fill-rule="evenodd" clip-rule="evenodd" d="M262.39 28.09V19.58L251.26 0.49L173.78 0L198.47 39.16L262.39 28.09Z" fill="#72C9A6"/>
<path fill-rule="evenodd" clip-rule="evenodd" d="M262.39 28.0902L294.35 62.9502L311.79 41.6502L251.26 0.490234L262.39 28.0902Z" fill="#54B08B"/>
<path fill-rule="evenodd" clip-rule="evenodd" d="M262.39 28.0898L117.61 96.8498L114.22 53.7498L262.39 28.0898Z" fill="#54B08B"/>
<path fill-rule="evenodd" clip-rule="evenodd" d="M148.21 256.66L154.54 265.55L135.04 282.8L127.11 271.56L131.85 258.63L148.21 256.66Z" fill="#C3987B"/>
<path fill-rule="evenodd" clip-rule="evenodd" d="M98.4805 224.93L121.48 275.53L148.21 256.66L130.68 217.4L98.4805 224.93Z" fill="#99C26D"/>
<path fill-rule="evenodd" clip-rule="evenodd" d="M272.49 78C272.49 78.9889 272.197 79.9556 271.648 80.7779C271.098 81.6001 270.317 82.241 269.404 82.6194C268.49 82.9978 267.485 83.0968 266.515 82.9039C265.545 82.711 264.654 82.2348 263.955 81.5355C263.255 80.8363 262.779 79.9454 262.586 78.9754C262.393 78.0055 262.492 77.0002 262.871 76.0866C263.249 75.173 263.89 74.3921 264.712 73.8427C265.535 73.2932 266.501 73 267.49 73C268.816 73 270.088 73.5268 271.026 74.4645C271.963 75.4021 272.49 76.6739 272.49 78Z" fill="#2B2B2B"/>
<path fill-rule="evenodd" clip-rule="evenodd" d="M240 70.6992C240 71.6881 239.707 72.6548 239.157 73.4771C238.608 74.2993 237.827 74.9402 236.913 75.3186C236 75.6971 234.994 75.7961 234.025 75.6031C233.055 75.4102 232.164 74.934 231.464 74.2348C230.765 73.5355 230.289 72.6446 230.096 71.6747C229.903 70.7048 230.002 69.6994 230.381 68.7858C230.759 67.8722 231.4 67.0913 232.222 66.5419C233.044 65.9925 234.011 65.6992 235 65.6992C236.326 65.6992 237.598 66.226 238.536 67.1637C239.473 68.1014 240 69.3731 240 70.6992Z" fill="#2B2B2B"/>
</svg>
