<svg width="400" height="400" viewBox="0 0 400 400" fill="none" xmlns="http://www.w3.org/2000/svg">
<path opacity="0.1" d="M73.4697 382.439L168.77 371.859L284.16 385.459L155.24 399.999L73.4697 382.439Z" fill="#2B2B2B"/>
<path d="M146.96 335.5L140.05 361.2L130.98 370.13L126.52 364.44L123.85 327.15L126.95 303.98L146.96 335.5Z" fill="#C3987B"/>
<path d="M129.04 320.75L149.05 327.44L146.96 335.5L123.85 327.15L129.04 320.75Z" fill="#8B6651"/>
<path d="M190.15 288.279L191.37 327.869L189.93 354.799L181.15 367.319L175.18 357.529L169.06 335.499L190.15 288.279Z" fill="#C3987B"/>
<path d="M175.9 316.07L191.37 327.87L169.06 335.5L166.83 327.59L175.9 316.07Z" fill="#8B6651"/>
<path d="M101.11 312.899L153.8 300.949L211.24 314.339L196.99 264.749L166.9 230.119L118.96 274.389L115 278.139L101.11 312.899Z" fill="#543042"/>
<path d="M149.05 327.441L119.54 273.961L126.01 258.051L167.33 223.141L194.61 257.261L191.37 327.871L149.05 327.441Z" fill="#96637C"/>
<path d="M123.85 327.151L119.54 273.961L126.01 258.051L167.33 223.141L176.11 251.861L149.05 327.441L123.85 327.151Z" fill="#734D60"/>
<path d="M311.38 192.15L302.15 198.86L295.2 195V185.75L311.38 192.15Z" fill="#8B6651"/>
<path d="M283.55 174.84L310.57 171.84L311.38 192.15L282.82 187.78L283.55 174.84Z" fill="#C3987B"/>
<path d="M286.06 193.52L370.99 135.85L374.87 141.51L289.45 198.86L286.06 193.52Z" fill="#9DA1A2"/>
<path d="M280.96 177.59L305.63 182.68L303.04 188.59L279.91 189.48L280.96 177.59Z" fill="#DFBDA5"/>
<path d="M284.95 170.311L262.13 172.901L254 182.401L256.59 193.341L282.14 198.671L284.95 170.311Z" fill="#96637C"/>
<path d="M114.14 192.33L98.6604 199.89L92.6904 237.4L115 251.07L124.14 246.97L126.37 236.1L127.89 214.58L111.55 179.52L114.14 192.33Z" fill="#734D60"/>
<path d="M100.97 185.06L98.6602 199.89L121.77 211.34L126.81 206.37L121.62 169.66L102.62 174.27L100.97 185.06Z" fill="#734D60"/>
<path d="M92.6904 237.4L115 251.07L124.14 246.97L126.37 236.1L92.6904 237.4Z" fill="#734D60"/>
<path d="M21.5703 126.471L52.3803 168.221L61.0203 168.511L68.8603 142.521L64.3303 132.301L21.5703 126.471Z" fill="#474747"/>
<path d="M185.25 96.4491L86.9999 178.729L52.3799 168.219L91.0299 52.0391L185.25 96.4491Z" fill="#4F5253"/>
<path d="M185.25 96.4501L174.1 133.67L87 178.73L132.06 71.4102L185.25 96.4501Z" fill="#474747"/>
<path d="M197.42 22.9592L222.9 56.9392L201.95 109.199L181.29 20.9492L197.42 22.9592Z" fill="#474747"/>
<path d="M198.35 18.2793L222.9 56.9393L181.29 20.9493L198.35 18.2793Z" fill="#474747"/>
<path d="M139.33 173.04L94.3398 67.8798L120.04 49.5898L146.75 81.4098L175.47 148.43L165.68 194.06L139.33 173.04Z" fill="#C3987B"/>
<path d="M193.17 31.1699L208.5 145.04L145.95 156.2L118.89 49.9499L193.17 31.1699Z" fill="#DFBDA5"/>
<path d="M170.14 134.6L160.21 131L170.71 127.84L178.49 129.42L186.98 128.27L190.01 128.7L176.04 135.04L170.14 134.6Z" fill="white"/>
<path d="M175.11 150.801L165.68 194.281L139.12 156.921L175.11 150.801Z" fill="#8B6651"/>
<path d="M112.48 62.1191L129.83 92.9991L124.93 97.3191L128.39 138.919L131.77 155.549L82.25 78.2391L112.48 62.1191Z" fill="#474747"/>
<path d="M124.93 97.3203L110.11 101.71L118.02 121.5L131.13 116.11L124.93 97.3203Z" fill="#DFBDA5"/>
<path d="M122.27 102.721L115.07 104.801L123.71 110.131L122.27 102.721Z" fill="#8B6651"/>
<path d="M125.94 113.439L129.61 124.599L123.71 126.399L120.83 115.099L125.94 113.439Z" fill="#734D60"/>
<path d="M175.61 80.1895L182.81 110.849L171.79 112.509L167.26 81.2694L175.61 80.1895Z" fill="#E8CAB6"/>
<path d="M176.69 117.55L182.81 110.85L171.79 112.51L176.69 117.55Z" fill="#8B6651"/>
<path d="M146.31 84.0695L167.26 81.2695L171.79 112.51L146.31 84.0695Z" fill="#C3987B"/>
<path d="M181.22 103.94L191.81 76.2305L175.61 80.1905L181.22 103.94Z" fill="#C3987B"/>
<path d="M143.58 77.3105L161.79 82.0005L137.75 84.8706L143.58 77.3105Z" fill="#474747"/>
<path d="M190.01 128.7L175.97 124.09L160.21 131L190.01 128.7Z" fill="#734D60"/>
<path d="M175.18 138.349L190.01 128.699L176.11 132.439L160.21 130.999L175.18 138.349Z" fill="#B3889D"/>
<path d="M196.48 74.7898L175.61 80.1898L192.24 67.5898L196.48 74.7898Z" fill="#474747"/>
<path d="M207.64 29.8L129.83 93L71.0195 74.79L91.0295 52.04L188.85 0L207.64 29.8Z" fill="#4F5253"/>
<path d="M71.0195 74.79L85.9195 47.8L188.85 0L71.0195 74.79Z" fill="#474747"/>
<path d="M223.76 30.09L129.83 93L188.85 0L223.76 30.09Z" fill="#6F7173"/>
<path d="M183.46 178.941L193.6 176.431L198.07 170.811L227.87 171.821L244.21 187.151L227 201.041L188.35 210.691L183.46 178.941Z" fill="#734D60"/>
<path d="M227.87 171.82L262.13 172.9L256.59 193.34L227 201.04L227.87 171.82Z" fill="#734D60"/>
<path d="M113.85 179.881L121.62 169.661L125.44 168.221L145.09 179.451L166.11 189.531L173.16 202.271L166.97 235.591L152.5 252.731L119.82 276.691L126.37 236.101L113.85 179.881Z" fill="#96637C"/>
<path d="M152.5 252.73L101.11 312.9L99.5996 271.37L126.37 236.1L152.5 252.73Z" fill="#B3889D"/>
<path d="M194.25 237.609L202.53 270.139L176.11 251.859L184.75 267.269L166.97 235.589L166.11 189.529L183.53 176.639L179.5 168.359L195.04 172.249L197.78 176.789L194.25 237.609Z" fill="#B3889D"/>
<path d="M194.25 237.609L215.56 282.239L211.24 314.339L184.75 267.269L176.11 251.859L194.25 237.609Z" fill="#D1A1B8"/>
<path d="M173.74 156.131L179.5 168.361L183.02 173.471L183.53 176.641L176.19 187.661L166.11 189.531L173.74 156.131Z" fill="#734D60"/>
<path d="M125.44 168.221L131.56 155.051L166.11 189.531L140.27 189.461L125.44 168.221Z" fill="#734D60"/>
<path d="M125.44 168.221L102.62 174.191L100.97 184.991V185.061L130.41 175.271L125.44 168.221Z" fill="#B3889D"/>
<path d="M179.5 168.359L198.07 170.809L197.78 176.789L183.53 176.639L182.16 173.759L179.5 168.359Z" fill="#D1A1B8"/>
<path d="M176.11 251.86L152.5 252.73L166.97 235.59L176.11 251.86Z" fill="#D1A1B8"/>
<path d="M370.99 135.851L373.58 131.801L379.48 140.051L374.87 141.511L370.99 135.851Z" fill="#4F5253"/>
<path d="M283.39 194.65L286.06 193.52L289.45 198.86L287.76 201.04L283.39 194.65Z" fill="#4F5253"/>
<path d="M161.43 208.749L166.47 203.779L170.64 208.889L166.54 213.999L161.43 208.749Z" fill="#D1A1B8"/>
<path d="M161.79 227.17L166.75 222.42L171.07 227.46L166.97 232.28L161.79 227.17Z" fill="#D1A1B8"/>
<path d="M188.7 81.1406C188.094 81.1406 187.495 81.2599 186.936 81.4915C186.376 81.7232 185.868 82.0628 185.44 82.4909C185.012 82.9189 184.672 83.4271 184.441 83.9865C184.209 84.5458 184.09 85.1452 184.09 85.7506C184.09 86.356 184.209 86.9555 184.441 87.5148C184.672 88.0741 185.012 88.5823 185.44 89.0104C185.868 89.4385 186.376 89.778 186.936 90.0097C187.495 90.2414 188.094 90.3606 188.7 90.3606C189.305 90.3606 189.905 90.2414 190.464 90.0097C191.023 89.778 191.532 89.4385 191.96 89.0104C192.388 88.5823 192.727 88.0741 192.959 87.5148C193.191 86.9555 193.31 86.356 193.31 85.7506C193.31 85.1452 193.191 84.5458 192.959 83.9865C192.727 83.4271 192.388 82.9189 191.96 82.4909C191.532 82.0628 191.023 81.7232 190.464 81.4915C189.905 81.2599 189.305 81.1406 188.7 81.1406Z" fill="#2B2B2B"/>
<path d="M153.94 87.1309C152.717 87.1309 151.545 87.6166 150.68 88.4811C149.816 89.3456 149.33 90.5182 149.33 91.7409C149.33 92.9635 149.816 94.1361 150.68 95.0006C151.545 95.8652 152.717 96.3509 153.94 96.3509C155.163 96.3509 156.335 95.8652 157.2 95.0006C158.064 94.1361 158.55 92.9635 158.55 91.7409C158.55 90.5182 158.064 89.3456 157.2 88.4811C156.335 87.6166 155.163 87.1309 153.94 87.1309Z" fill="#2B2B2B"/>
<path d="M179.57 386.109L175.32 386.039L172.51 369.049L175.18 357.529L185.25 364.299L183.09 371.059L179.57 386.109Z" fill="#734D60"/>
<path d="M126.52 364.439L119.9 378.979L124.79 391.649L126.52 364.439Z" fill="#734D60"/>
<path d="M140.05 361.199L145.09 371.129L138.47 379.409L125.08 381.999L126.52 364.439L140.05 361.199Z" fill="#DFBDA5"/>
<path d="M125.08 382.001L145.09 371.131L147.54 375.531L143.29 382.001L124.79 386.541L125.08 382.001Z" fill="#96637C"/>
<path d="M124.79 386.539L147.54 375.529L154.59 386.539L143.43 388.629L124.79 386.539Z" fill="#96637C"/>
<path d="M189.93 354.58L201.45 367.03L195.48 373.51L186.41 376.75L175.18 357.53L189.93 354.58Z" fill="#DFBDA5"/>
<path d="M186.41 376.749L201.45 367.029L204.98 370.489L199.58 376.529L188.78 379.849L186.41 376.749Z" fill="#96637C"/>
<path d="M188.78 380.85L204.98 370.49L215.85 380.85L201.52 383.01L188.78 380.85Z" fill="#96637C"/>
<path d="M124.79 386.539V391.649H154.59V386.539H124.79Z" fill="#734D60"/>
<path d="M183.09 371.061L180.86 373.151L181.8 375.311L192.38 386.321H215.85V380.851H196.34L183.09 371.061Z" fill="#734D60"/>
</svg>
