<svg width="400" height="400" viewBox="0 0 400 400" fill="none" xmlns="http://www.w3.org/2000/svg">
<path opacity="0.1" fill-rule="evenodd" clip-rule="evenodd" d="M67.2598 392.32L186.23 378.4L352.6 389.73L187.29 400L67.2598 392.32Z" fill="black"/>
<path fill-rule="evenodd" clip-rule="evenodd" d="M154.03 324.801L168.5 344.351L188.65 339.301L203.34 327.391L187.29 265.961L159.38 308.531L154.03 324.801Z" fill="#785D88"/>
<path fill-rule="evenodd" clip-rule="evenodd" d="M168.5 344.351L186.23 369.581L208.17 364.361L211.72 358.801L203.34 327.391L168.5 344.351Z" fill="#594165"/>
<path fill-rule="evenodd" clip-rule="evenodd" d="M109.38 266.851L187.29 265.961L159.38 308.531L135.26 297.331L109.38 266.851Z" fill="#9075A0"/>
<path fill-rule="evenodd" clip-rule="evenodd" d="M159.38 308.53L152.05 339.3L131.77 347.68L111.49 340.3L103.08 299.34L101.44 282.7L109.38 266.85L159.38 308.53Z" fill="#A688BA"/>
<path fill-rule="evenodd" clip-rule="evenodd" d="M152.05 339.301L145.53 367.011L133.36 373.301L117.42 372.231L111.49 340.301L152.05 339.301Z" fill="#785D88"/>
<path fill-rule="evenodd" clip-rule="evenodd" d="M145.53 367.01L154.43 387.79L136 389.79L116.93 387.79L117.42 372.23L145.53 367.01Z" fill="#96637C"/>
<path fill-rule="evenodd" clip-rule="evenodd" d="M211.72 358.801L237.12 382.731L207.64 384.731L186.71 382.731L186.23 369.581L211.72 358.801Z" fill="#96637C"/>
<path d="M154.43 387.789H116.93V394.329H154.43V387.789Z" fill="#543042"/>
<path d="M237.12 382.73H186.71V389.27H237.12V382.73Z" fill="#543042"/>
<path fill-rule="evenodd" clip-rule="evenodd" d="M102.66 157.62L148.33 204.86L161.05 155.51L130.87 150.75L102.66 157.62Z" fill="#FEFEFE"/>
<path fill-rule="evenodd" clip-rule="evenodd" d="M160.01 41.4908L170.77 29.8508L183.02 27.5508L200.8 125.181L168.63 133.361L130.37 135.991L111.77 69.6308L108.05 38.3508L134.56 35.1508L160.01 41.4908Z" fill="#DFBDA5"/>
<path fill-rule="evenodd" clip-rule="evenodd" d="M153.38 140.35L200.8 125.18L130.37 137.99L116.06 66.5996L108.05 38.3496L92.3596 57.5296L96.8096 72.4196L107.7 90.6596L102.79 91.9696L100.03 97.2796L94.2396 93.1096L89.5696 82.9896L84.3696 90.9596L78.0596 94.4896L87.4196 102.2L91.6696 111.58L94.3696 117.48L95.7696 129.31L102.47 158.3L161.05 155.51L153.38 140.35Z" fill="#C3987B"/>
<path fill-rule="evenodd" clip-rule="evenodd" d="M188.19 55.9307L192.78 21.9707L175.39 24.7907L188.19 55.9307Z" fill="#474747"/>
<path fill-rule="evenodd" clip-rule="evenodd" d="M192.18 165.68L202.37 196.16L199.39 224.43L180.58 237.54L179.55 191.75L192.18 165.68Z" fill="#B3889D"/>
<path fill-rule="evenodd" clip-rule="evenodd" d="M195.52 219.1L199.39 224.43L220.94 226.99L216.77 248.99L183.59 250.68L181.41 226.17L195.52 219.1Z" fill="#96637C"/>
<path fill-rule="evenodd" clip-rule="evenodd" d="M194.65 222.24L193.42 233.71L208.67 248.13L220.94 226.99L209.57 225.3L194.65 222.24Z" fill="#734D60"/>
<path fill-rule="evenodd" clip-rule="evenodd" d="M206.34 212.52L200.74 206.49L221.22 179.93L226.31 184.69L217.99 198.96L214.62 209.3L206.34 212.52Z" fill="#C3987B"/>
<path fill-rule="evenodd" clip-rule="evenodd" d="M206.34 207.51L223.15 224.79L211.06 236.83L201.91 228.7L206.34 207.51Z" fill="#C3987B"/>
<path fill-rule="evenodd" clip-rule="evenodd" d="M202.37 196.16L196.87 196.35L194.65 222.24L201.91 228.7L206.34 212.52L202.37 196.16Z" fill="#DFBDA5"/>
<path fill-rule="evenodd" clip-rule="evenodd" d="M206.34 212.521L217.99 198.961L229.84 218.511L220.94 226.991L206.34 212.521Z" fill="#E8CAB6"/>
<path fill-rule="evenodd" clip-rule="evenodd" d="M124.44 62.4102L145.85 73.5302L158.26 95.1902L156.78 75.0402L153.38 64.1602L124.44 62.4102Z" fill="#C3987B"/>
<path fill-rule="evenodd" clip-rule="evenodd" d="M166.63 55.0895L163.49 62.7595L163.01 70.7195L167.03 80.4695L184.76 51.5995L176.4 42.1895L166.63 55.0895Z" fill="#C3987B"/>
<path fill-rule="evenodd" clip-rule="evenodd" d="M153.38 64.1591L126.19 55.7891L124.44 62.4091L148.5 70.0891L153.38 64.1591Z" fill="#474747"/>
<path fill-rule="evenodd" clip-rule="evenodd" d="M163.49 50.9095L176.4 42.1895L184.76 51.5995L179.88 55.4395L174.13 48.8195L166.63 55.0895L163.49 50.9095Z" fill="#474747"/>
<path fill-rule="evenodd" clip-rule="evenodd" d="M163.49 62.7598L169.42 92.3998L164.69 95.5998L158.26 95.1898L153.38 64.1598L163.49 62.7598Z" fill="#E8CAB6"/>
<path fill-rule="evenodd" clip-rule="evenodd" d="M180.58 111.07L159.44 112.48L142.99 107.47L145.69 100.93L136.65 106.71L139 118.04L142.17 111.94L159.44 116.95L180.58 111.07Z" fill="#8B6651"/>
<path fill-rule="evenodd" clip-rule="evenodd" d="M100.03 97.2802L102.47 102.86L91.6696 111.58L78.0596 94.4902L89.5696 82.9902L100.03 97.2802Z" fill="#DFBDA5"/>
<path fill-rule="evenodd" clip-rule="evenodd" d="M160.01 41.49L192.78 21.97L157.92 0L155.21 22.75L160.01 41.49Z" fill="#6F7173"/>
<path fill-rule="evenodd" clip-rule="evenodd" d="M160.01 41.49L157.92 0L67.2598 34.17L86.8098 40.15L108.05 38.35L160.01 41.49Z" fill="#8F8F8F"/>
<path fill-rule="evenodd" clip-rule="evenodd" d="M67.2595 34.1699L63.7695 87.1699L79.5895 73.8199L92.3595 57.5299L108.05 38.3499L67.2595 34.1699Z" fill="#6F7173"/>
<path fill-rule="evenodd" clip-rule="evenodd" d="M92.3595 57.5293L107.7 90.6593L100.03 97.2793L89.5695 82.9893L78.0595 94.4893L63.7695 87.1693L92.3595 57.5293Z" fill="#474747"/>
<path fill-rule="evenodd" clip-rule="evenodd" d="M84.3398 95.1898L88.5298 91.0098L93.7598 99.7198L84.3398 95.1898Z" fill="#8B6651"/>
<path fill-rule="evenodd" clip-rule="evenodd" d="M91.6699 111.581L99.3399 105.301L95.8899 129.861L91.6699 111.581Z" fill="#8B6651"/>
<path fill-rule="evenodd" clip-rule="evenodd" d="M169.42 92.4004L164.54 100.42L158.26 95.1904L169.42 92.4004Z" fill="#8B6651"/>
<path fill-rule="evenodd" clip-rule="evenodd" d="M102.66 157.619L145.71 189.669L120.94 209.349L90.4498 228.139L80.0898 204.489L73.0498 173.799L102.66 157.619Z" fill="#96637C"/>
<path fill-rule="evenodd" clip-rule="evenodd" d="M161.05 155.51L192.18 165.68L182.69 197.25L165.19 200.99L145.71 189.67L161.05 155.51Z" fill="#96637C"/>
<path fill-rule="evenodd" clip-rule="evenodd" d="M90.4502 228.14L98.9202 257.87L109.38 266.85L154.22 271.44L154.43 226.99L145.71 189.67L90.4502 228.14Z" fill="#734D60"/>
<path fill-rule="evenodd" clip-rule="evenodd" d="M145.71 189.67L182.69 197.25L187.29 265.96L154.22 271.44L145.71 189.67Z" fill="#543042"/>
<path d="M179.62 65.8609C179.62 66.6975 179.372 67.5153 178.907 68.2109C178.442 68.9065 177.782 69.4487 177.009 69.7689C176.236 70.089 175.385 70.1728 174.565 70.0096C173.744 69.8464 172.991 69.4435 172.399 68.8519C171.808 68.2603 171.405 67.5066 171.241 66.6861C171.078 65.8656 171.162 65.015 171.482 64.2421C171.802 63.4692 172.344 62.8085 173.04 62.3437C173.736 61.8789 174.554 61.6309 175.39 61.6309C176.511 61.6335 177.586 62.08 178.378 62.8727C179.171 63.6654 179.618 64.7398 179.62 65.8609Z" fill="#2B2B2B"/>
<path d="M145.85 73.5308C145.85 74.3674 145.602 75.1852 145.137 75.8808C144.672 76.5765 144.011 77.1186 143.238 77.4388C142.465 77.7589 141.615 77.8427 140.794 77.6795C139.974 77.5163 139.22 77.1134 138.629 76.5218C138.037 75.9303 137.634 75.1765 137.471 74.356C137.308 73.5355 137.391 72.685 137.712 71.912C138.032 71.1391 138.574 70.4785 139.27 70.0137C139.965 69.5489 140.783 69.3008 141.62 69.3008C142.742 69.3008 143.817 69.7464 144.611 70.5397C145.404 71.333 145.85 72.4089 145.85 73.5308Z" fill="#2B2B2B"/>
<path fill-rule="evenodd" clip-rule="evenodd" d="M118.29 137.55L200.8 125.18L161.05 142.61V155.51L118.29 137.55Z" fill="#8B6651"/>
<path fill-rule="evenodd" clip-rule="evenodd" d="M83.7101 232.311L109.38 266.851L93.5001 285.851L67.1201 263.071L83.7101 232.311Z" fill="#96637C"/>
<path fill-rule="evenodd" clip-rule="evenodd" d="M103.08 299.34L93.5 285.85L109.38 266.85L103.08 299.34Z" fill="#DFBDA5"/>
<path fill-rule="evenodd" clip-rule="evenodd" d="M73.0498 173.801L50.0898 248.481L67.1198 263.071L90.4498 228.141L73.0498 173.801Z" fill="#B3889D"/>
<path fill-rule="evenodd" clip-rule="evenodd" d="M288.44 218.85L272.69 221.69L272.09 161.89L275.04 157.29L279.57 154.01L288.44 218.85Z" fill="#96637C"/>
<path fill-rule="evenodd" clip-rule="evenodd" d="M279.57 154.01L272.09 161.89L239.32 133.41L239.57 130.23L242.61 128.84L279.57 154.01Z" fill="#B3889D"/>
<path fill-rule="evenodd" clip-rule="evenodd" d="M234.23 115.17L229.5 122.88L223.72 129.7L218.3 120.48L223.92 112.67L234.23 115.17Z" fill="#B3889D"/>
<path fill-rule="evenodd" clip-rule="evenodd" d="M234.23 115.17L223.72 129.7L241.79 135.56L245.35 130.71L234.23 115.17Z" fill="#96637C"/>
<path fill-rule="evenodd" clip-rule="evenodd" d="M320.1 389.311L285.54 383.361L245.03 389.311V257.271L248 246.871L245.03 228.131L320.1 209.131L316.66 262.451L320.1 310.321L315.75 354.701L320.1 389.311Z" fill="#9075A0"/>
<path fill-rule="evenodd" clip-rule="evenodd" d="M320.1 209.131L245.03 227.011V257.271L320.1 310.321V209.131Z" fill="#594165"/>
<path fill-rule="evenodd" clip-rule="evenodd" d="M334.74 220.879L230.38 246.869V228.519L334.74 202.529V220.879Z" fill="#785D88"/>
<path fill-rule="evenodd" clip-rule="evenodd" d="M320.1 310.32L245.03 389.31H320.1V310.32Z" fill="#785D88"/>
</svg>
