<svg width="400" height="400" viewBox="0 0 400 400" fill="none" xmlns="http://www.w3.org/2000/svg">
<g clip-path="url(#clip0_213_1143)">
<path opacity="0.1" d="M289.46 389.52L142.84 381.66L3.78027 389.81L136.63 400.11L289.46 389.52Z" fill="#2B2B2B"/>
<path d="M21.79 286.85L11.6 267.58L3.77004 266.25L1.04004 341.13L7.47004 341.21L21.79 286.85Z" fill="#1C7678"/>
<path d="M244.9 24.4805L173.12 70.4205L158.56 56.7205L150.5 43.1105L158.78 37.1105L244.9 24.4805Z" fill="#27788C"/>
<path d="M116.82 57.4199L105.33 59.7099L35.6299 108.61L119.92 91.6999L120.4 71.5299L116.82 57.4199Z" fill="#3AA0BA"/>
<path d="M119.92 91.6994L173.12 70.4194L150.5 43.1094L133.07 47.7094L116.82 57.4194L119.92 91.6994Z" fill="#318FA6"/>
<path d="M146.16 68.6809L128.44 40.8809L137.13 76.7209L151.47 108.071L162.36 106.411L146.16 68.6809Z" fill="#5EC0D9"/>
<path d="M137.61 48.3301L126.39 53.3101L137.13 76.7201L146.16 68.6801L137.61 48.3301Z" fill="#3AA0BA"/>
<path d="M157.52 40.1305L106.98 61.5305L106.25 40.6705L111 11.7005L116.26 7.48047L121.72 7.72047L144.72 24.5505L157.52 40.1305Z" fill="#5EC0D9"/>
<path d="M121.72 7.7207L244.9 24.4807L157.52 40.1307L121.72 7.7207Z" fill="#3AA0BA"/>
<path d="M111 11.6992L35.6299 108.609L106.98 61.5292L111 11.6992Z" fill="#318FA6"/>
<path d="M121.72 7.71937L118.79 0.109375L108.22 3.93938L111 11.6994L121.72 7.71937Z" fill="#3AA0BA"/>
<path d="M58.2695 208.061L65.5095 262.781L64.3295 270.311L68.2395 282.871L80.5695 244.321L84.7795 220.101L73.4795 212.341L58.2695 208.061Z" fill="#1C7678"/>
<path d="M65.5097 262.779L32.7197 271.639L40.6197 293.799L57.6797 322.669L66.5397 299.329L68.2397 282.869L65.5097 262.779Z" fill="#369496"/>
<path d="M32.7196 271.641L26.8096 292.021L26.9596 310.711L57.6796 322.671L32.7196 271.641Z" fill="#1C7678"/>
<path d="M26.9597 310.71L7.46973 341.21L11.5997 267.58L32.7197 271.64L26.9597 310.71Z" fill="#165E60"/>
<path d="M73.7002 327.77L78.5002 360.77L106.57 356.49L135.29 346.89L104.2 334.85L73.7002 327.77Z" fill="#1C7678"/>
<path d="M78.5 360.771L98.96 366.981L110.78 368.531L135.29 346.891L78.5 360.771Z" fill="#369496"/>
<path d="M110.78 368.53L138.32 387.65L106.01 389.42L76.6904 387.65L78.5004 360.77L110.78 368.53Z" fill="#165E60"/>
<path d="M270.58 179.699L243.07 207.539L229.78 236.119L267.44 259.309L279.44 229.959L278.19 206.439L270.58 179.699Z" fill="#50A9AA"/>
<path d="M278.19 206.44H289.74L312.38 200.6L322.16 206.44L324.01 215.59L320.54 232.28L267.44 259.31L278.19 206.44Z" fill="#72CBCC"/>
<path d="M319.3 206.441L338.21 204.891L365.21 206.441L320.54 232.281L319.3 206.441Z" fill="#C3987B"/>
<path d="M270.58 180.441L228.19 252.741L169.04 231.401L69.1299 189.381L113.88 113.311L211.72 140.641L270.58 180.441Z" fill="#1C7678"/>
<path d="M167.93 105.561L173.99 156.961L173.25 187.231L199.02 192.261L207.66 196.021L222.88 197.941L235.8 203.411L253.67 175.421L270.58 180.441L232.03 246.391L199.91 366.981L57.6797 322.671L84.7797 220.101L58.2697 208.061L69.1297 189.381L90.8397 197.871L152.94 199.791L148.59 164.781L151.47 108.071L167.93 105.561Z" fill="#C4C4C4"/>
<path d="M84.7803 220.101L139.35 262.931L121.19 293.571L164.98 343.501L210.4 327.321L226.72 266.251L111.96 211.971L84.7803 220.101Z" fill="#8F8F8F"/>
<path d="M245.1 32.0098L278.56 56.5298L312.38 52.6098L270.58 180.44L229.74 171.5L207.66 196.02L190.09 165.75L167.93 105.56L176.06 106.22L180.63 103.79L177.53 78.8998L200.65 71.7398L203.97 99.2798L215.93 96.4098L206.33 35.4098L245.1 32.0098Z" fill="#DFBDA5"/>
<path d="M245.1 32.0098L205.6 160.65L229 168.03L217.41 180.22L207.66 196.02L202.94 178.89L194.59 166.34L167.93 105.56L180.63 103.86L195.18 102.53L202.27 101.28L216.67 98.4698L208.62 35.0398L245.1 32.0098Z" fill="#C3987B"/>
<path d="M194.89 94.6298L193.71 83.2598L183.96 84.2198L194.89 94.6298Z" fill="#8B6651"/>
<path d="M180.63 103.789L202.27 101.279L181.89 113.239L180.63 103.789Z" fill="#8B6651"/>
<path d="M266 119.371L257.36 123.211L253 115.311L266 119.371Z" fill="#8B6651"/>
<path d="M245.55 78.6093L254.63 85.9193L253 115.309L262.36 94.6293L264.16 78.5293L245.55 78.6093Z" fill="#C3987B"/>
<path d="M277.23 82.8203L268.4 94.6303L269.47 108.07L283.43 91.9703L293.25 90.7903L277.23 82.8203Z" fill="#C3987B"/>
<path d="M205 160.35L194.59 166.34L198.65 181.03L207.66 196.02L219.11 183.47L229 168.03L205 160.35Z" fill="#8B6651"/>
<path d="M278.7 77.7891L295.02 85.1791L293.25 90.7891L277.23 82.8191L278.7 77.7891Z" fill="#474747"/>
<path d="M265.71 73.5096L246.36 72.8496L245.55 78.6096L264.16 78.5296L265.71 73.5096Z" fill="#474747"/>
<path d="M225.9 120.699L278.19 137.169L251.16 143.889L225.9 120.699Z" fill="#C3987B"/>
<path d="M238.46 128.08L266.67 136.87L251.6 141.3L238.46 128.08Z" fill="white"/>
<path d="M391.13 136.42H296.75V153.25L359.89 155.47L391.13 153.25V136.42Z" fill="#318FA6"/>
<path d="M391.13 166.58L349.66 168.47L296.75 166.58V153.25H391.13V166.58Z" fill="#5EC0D9"/>
<path d="M391.13 166.58H296.75V179.91L345.62 181.12L391.13 179.91V166.58Z" fill="#3AA0BA"/>
<path d="M391.13 186.57L344.41 187.11L296.75 186.57V179.91H391.13V186.57Z" fill="#5EC0D9"/>
<path d="M391.13 186.57H296.75V193.11L348.45 194.12L391.13 193.11V186.57Z" fill="#318FA6"/>
<path d="M391.13 199.769L346.23 201.119L296.75 199.769V193.109H391.13V199.769Z" fill="#5EC0D9"/>
<path d="M398.13 199.77H289.74V206.44H398.13V199.77Z" fill="#27788C"/>
<path d="M385.88 104.17L381.64 97.2402L377.46 104.17L381.64 111.18L385.88 104.17Z" fill="#E5C828"/>
<path d="M384.33 108.689H379.01V137.029H384.33V108.689Z" fill="#318FA6"/>
<path d="M366.76 104.17L362.65 97.2402L358.41 104.17L362.65 111.18L366.76 104.17Z" fill="#E5C828"/>
<path d="M365.21 108.689H359.96V137.029H365.21V108.689Z" fill="#318FA6"/>
<path d="M329.06 104.17L324.82 97.2402L320.64 104.17L324.82 111.18L329.06 104.17Z" fill="#E5C828"/>
<path d="M327.51 108.689H322.19V137.029H327.51V108.689Z" fill="#318FA6"/>
<path d="M309.94 104.17L305.83 97.2402L301.59 104.17L305.83 111.18L309.94 104.17Z" fill="#E5C828"/>
<path d="M308.39 108.689H303.14V137.029H308.39V108.689Z" fill="#318FA6"/>
<path d="M354.91 125.58H332.96L343.87 136.62L354.91 125.58Z" fill="#27788C"/>
<path d="M354.91 125.579L343.87 114.609L332.96 125.579H354.91Z" fill="#5EC0D9"/>
<path d="M315.6 136.42H296.68L306.17 145.78L315.6 136.42H334.44L343.87 145.78L353.36 136.42H372.21L381.7 145.78L391.13 136.42H372.21L362.79 145.78L353.36 136.42H334.44L324.95 145.78L315.6 136.42Z" fill="#5EC0D9"/>
<path d="M266 8.23047L223.39 12.3705L233.22 26.8405L245.1 32.0105L278.26 60.2905L275.82 34.8905L266 8.23047Z" fill="#474747"/>
<path d="M223.39 12.3691L188.39 16.7991L200.72 31.5691L210.69 37.0991L245.1 32.0091L223.39 12.3691Z" fill="#6F7173"/>
<path d="M188.39 16.8008L177.53 78.9008L199.25 75.8708L202.27 101.281L218.37 99.3608L210.69 37.1008L188.39 16.8008Z" fill="#474747"/>
<path d="M278.26 60.2905L266 8.23047L312.38 52.6105L278.26 60.2905Z" fill="#8F8F8F"/>
<path d="M204.86 224.381L223.47 232.211L253.3 282.051L169.26 329.461L162.76 317.871L235.8 276.441L204.86 224.381Z" fill="#27788C"/>
<path d="M218.08 235.381L223.47 232.211L204.86 224.381L209.29 231.761L213.42 234.871L218.08 235.381Z" fill="#27788C"/>
<path d="M209.29 231.76L218.08 235.38L244.14 279.91L237.57 279.25L235.8 276.44L220.29 255.03L209.29 231.76Z" fill="#DDDDDC"/>
<path d="M235.8 276.439L244.14 279.909L170.37 321.339L162.76 317.869L203.38 291.579L235.8 276.439Z" fill="#C4C4C4"/>
<path d="M204.86 224.381L125.25 271.201L152.28 323.851L235.8 276.441L204.86 224.381Z" fill="#3AA0BA"/>
<path d="M180.34 272.16L153.98 277.62L139.35 262.93L149.77 256.5L180.34 272.16Z" fill="#27788C"/>
<path d="M169.63 228.369L153.31 234.869L144.01 243.059L155.53 269.869L171.92 262.629L186.62 251.409L169.63 228.369Z" fill="#DFBDA5"/>
<path d="M186.62 251.41L180.34 272.16L155.53 269.87L186.62 251.41Z" fill="#8B6651"/>
<path d="M169.63 228.369L187.13 234.789L178.27 240.039L169.63 228.369Z" fill="#C3987B"/>
<path d="M151.47 108.07L113.88 113.31L84.7803 220.1L120.82 212.64L152.94 199.79L154.35 155.92L151.47 108.07Z" fill="#72CBCC"/>
<path d="M84.7803 220.099L144.01 243.059L169.63 228.369L152.94 199.789L84.7803 220.099Z" fill="#50A9AA"/>
<path d="M167.93 105.561L169.26 156.961L173.25 187.231L207.66 196.021L194.59 166.341L167.93 105.561Z" fill="#50A9AA"/>
<path d="M229 168.029L207.66 196.019L222.58 199.939L235.8 203.409L246.29 190.339L253.67 175.419L229 168.029Z" fill="#72CBCC"/>
<path d="M152.94 199.791L173.25 187.231L167.93 105.561L151.47 108.071L152.94 199.791Z" fill="#DDDDDC"/>
<path d="M235.8 203.41L247.69 219.58L270.58 180.44L253.67 175.42L235.8 203.41Z" fill="#DDDDDC"/>
<path d="M282.17 92.4893C281.605 92.4784 281.043 92.5817 280.519 92.7929C279.995 93.0042 279.519 93.319 279.119 93.7186C278.72 94.1183 278.405 94.5944 278.193 95.1186C277.982 95.6428 277.879 96.2042 277.89 96.7693C277.862 97.3494 277.952 97.9292 278.154 98.4735C278.357 99.0178 278.668 99.5152 279.069 99.9357C279.47 100.356 279.951 100.691 280.485 100.92C281.019 101.148 281.594 101.266 282.175 101.266C282.756 101.266 283.33 101.148 283.864 100.92C284.398 100.691 284.88 100.356 285.281 99.9357C285.681 99.5152 285.992 99.0178 286.195 98.4735C286.398 97.9292 286.488 97.3494 286.46 96.7693C286.471 96.2034 286.367 95.6411 286.155 95.1162C285.943 94.5914 285.628 94.1147 285.227 93.715C284.826 93.3152 284.349 93.0006 283.823 92.7899C283.298 92.5793 282.736 92.477 282.17 92.4893Z" fill="#2B2B2B"/>
<path d="M251.38 84.0707C250.804 84.0627 250.233 84.1699 249.699 84.3859C249.166 84.6019 248.68 84.9224 248.272 85.3286C247.864 85.7348 247.541 86.2185 247.323 86.7512C247.105 87.284 246.995 87.855 247 88.4307C247 89.5765 247.455 90.6753 248.265 91.4854C249.076 92.2956 250.174 92.7507 251.32 92.7507C252.466 92.7507 253.565 92.2956 254.375 91.4854C255.185 90.6753 255.64 89.5765 255.64 88.4307C255.648 87.8644 255.544 87.302 255.334 86.776C255.124 86.25 254.812 85.7706 254.416 85.3655C254.02 84.9603 253.548 84.6374 253.027 84.4152C252.506 84.193 251.947 84.0759 251.38 84.0707Z" fill="#2B2B2B"/>
<path d="M264.16 78.5293L277.23 82.8193L266 119.369L253 115.309L264.16 78.5293Z" fill="#E8CAB6"/>
<path d="M138.33 387.65H76.6904V394.18H138.33V387.65Z" fill="#1C7678"/>
</g>
<defs>
<clipPath id="clip0_213_1143">
<rect width="400" height="400" fill="white"/>
</clipPath>
</defs>
</svg>
