<svg width="400" height="400" viewBox="0 0 400 400" fill="none" xmlns="http://www.w3.org/2000/svg">
<g clip-path="url(#clip0_213_1147)">
<path opacity="0.1" fill-rule="evenodd" clip-rule="evenodd" d="M89.6396 393.11L207.72 379.6L304.44 390.86L205.4 400.11L89.6396 393.11Z" fill="black"/>
<path fill-rule="evenodd" clip-rule="evenodd" d="M222.38 160.859L267.44 208.209L263.13 217.179L237.3 207.259L223.05 195.089L224.65 174.329L222.38 160.859Z" fill="#DFBDA5"/>
<path fill-rule="evenodd" clip-rule="evenodd" d="M237.3 207.26L287.67 195.09L291.74 198.82L292.66 209.57L261.04 224.78L237.3 207.26Z" fill="#C3987B"/>
<path fill-rule="evenodd" clip-rule="evenodd" d="M292.63 197.039L305.2 185.609L310.44 194.469L306.34 208.309L292.66 209.569L290.44 203.139L292.63 197.039Z" fill="#8B6651"/>
<path d="M319.82 220.311L312.28 223.291L304.1 202.671L302.56 197.731L297.65 186.381L293.31 175.451L300.85 172.461L305.1 183.181L310.16 197.491L312.94 202.961L319.82 220.311Z" fill="#9E7700"/>
<path d="M315.26 208.801L306.34 208.311L293.31 175.451L300.85 172.461L315.26 208.801Z" fill="#755800"/>
<path fill-rule="evenodd" clip-rule="evenodd" d="M304.57 181.85L313.4 180.27L321.18 199.3L309.85 206.36L304.74 196.11L304.57 181.85Z" fill="#C3987B"/>
<path fill-rule="evenodd" clip-rule="evenodd" d="M287.67 195.09L290.44 203.14L297.98 198.9L299.86 192.57L305.79 198.22L310.32 196.74L304.57 181.85L297.16 185.17L287.67 195.09Z" fill="#DFBDA5"/>
<path d="M308.73 172.56L297.42 174.9L287.64 180.92L276.51 171.85L292.1 163.52L310.62 158.33L308.73 172.56Z" fill="#CCAD14"/>
<path d="M310.62 158.329L276.51 171.849L274.18 165.969L290.69 157.269L308.28 152.449L310.62 158.329Z" fill="#9E7700"/>
<path d="M308.28 152.451L274.18 165.971L271.85 160.081L287.89 151.571L305.95 146.561L308.28 152.451Z" fill="#E5C828"/>
<path d="M305.95 146.56L271.85 160.08L269.51 154.2L286.02 145.5L303.62 140.68L305.95 146.56Z" fill="#9E7700"/>
<path d="M292.49 131.6L282.42 137.75L271.4 139.97L269.51 154.2L303.62 140.68L292.49 131.6Z" fill="#CCAD14"/>
<path d="M287.64 180.92L293.56 165.09L308.73 172.56L287.64 180.92Z" fill="#9E7700"/>
<path d="M271.4 139.97L286.57 147.44L292.49 131.6L271.4 139.97Z" fill="#9E7700"/>
<path fill-rule="evenodd" clip-rule="evenodd" d="M143 141.579L179.48 143.399V112.279L143 141.579Z" fill="#2B2B2B"/>
<path fill-rule="evenodd" clip-rule="evenodd" d="M132.43 58.8105L108.4 95.2805L143.99 86.4605L132.43 58.8105Z" fill="#6F7173"/>
<path fill-rule="evenodd" clip-rule="evenodd" d="M187.7 393.11L153.46 392.39L151.99 382.16H168.25L187.7 393.11Z" fill="#755800"/>
<path fill-rule="evenodd" clip-rule="evenodd" d="M165.43 170.439L137.02 210.109L147 216.629L166.37 210.109L168.52 181.209L165.43 170.439Z" fill="#DFBDA5"/>
<path fill-rule="evenodd" clip-rule="evenodd" d="M166.37 210.111L113.45 194.391L109.18 197.881L107.68 208.571L142.42 225.691L166.37 210.111Z" fill="#C3987B"/>
<path fill-rule="evenodd" clip-rule="evenodd" d="M235.83 368.279L205.23 350.839L209.62 341.359L224.83 354.579L235.83 368.279Z" fill="#755800"/>
<path fill-rule="evenodd" clip-rule="evenodd" d="M186.27 328.321L213.11 317.511L229.76 281.891L176.37 295.371L186.27 328.321Z" fill="#856400"/>
<path fill-rule="evenodd" clip-rule="evenodd" d="M229.41 333.08L238.72 364.86L234.5 363.85L229.65 361.35L216.35 348.27L214 340.36L217.25 333.85L223.05 323.26L229.41 333.08Z" fill="#DFBDA5"/>
<path fill-rule="evenodd" clip-rule="evenodd" d="M235.91 282.94L229.41 333.08L217.25 333.85L213.11 317.51L224.05 280.82L235.91 282.94Z" fill="#C3987B"/>
<path fill-rule="evenodd" clip-rule="evenodd" d="M168.52 354.85L166.88 368.75L189 388.83L183.93 390.56L163.49 385.66L155.25 379.8L153.47 370.86L168.52 354.85Z" fill="#DFBDA5"/>
<path fill-rule="evenodd" clip-rule="evenodd" d="M177.37 346.889L166.88 368.749L153.47 370.859L157.55 339.889L162.75 330.789L177.37 346.889Z" fill="#C3987B"/>
<path fill-rule="evenodd" clip-rule="evenodd" d="M157.77 339.8L177.37 346.89L186.27 328.32L169.18 323.26L157.77 339.8Z" fill="#8B6651"/>
<path fill-rule="evenodd" clip-rule="evenodd" d="M210.2 306.06L213.11 317.51L235.91 282.94L217.89 276.07L210.2 306.06Z" fill="#8B6651"/>
<path fill-rule="evenodd" clip-rule="evenodd" d="M165.26 169.899L222.38 160.859L204.54 189.729L165.26 169.899Z" fill="#DFBDA5"/>
<path fill-rule="evenodd" clip-rule="evenodd" d="M165.26 169.9L166.37 210.11L193.78 196.82L204.3 185.52L165.26 169.9Z" fill="#9E7700"/>
<path fill-rule="evenodd" clip-rule="evenodd" d="M204.3 185.519L222.38 160.859L237.3 207.259L213.31 200.129L204.3 185.519Z" fill="#9E7700"/>
<path fill-rule="evenodd" clip-rule="evenodd" d="M166.37 210.11L167.19 235.96L204.41 271.84L237.3 207.26L204.3 185.52L166.37 210.11Z" fill="#755800"/>
<path fill-rule="evenodd" clip-rule="evenodd" d="M169.84 249.1L235.91 282.94L184.78 328.92L172.78 326.91L143.42 264.45L169.84 249.1Z" fill="#E5C828"/>
<path fill-rule="evenodd" clip-rule="evenodd" d="M143.42 264.449L186.27 328.319L157.55 339.889L143.42 264.449Z" fill="#CCAD14"/>
<path fill-rule="evenodd" clip-rule="evenodd" d="M108.39 196.061L96.4602 183.961L90.7402 192.521L94.0802 206.571L107.68 208.571L110.24 202.271L108.39 196.061Z" fill="#8B6651"/>
<path d="M79.9697 217.81L87.3397 221.21L96.6197 201.06L98.4297 196.21L103.96 185.15L108.88 174.47L101.52 171.07L96.6897 181.54L90.8597 195.55L87.7797 200.87L79.9697 217.81Z" fill="#9E7700"/>
<path d="M85.1602 206.57H94.0802L108.88 174.47L101.52 171.07L85.1602 206.57Z" fill="#755800"/>
<path fill-rule="evenodd" clip-rule="evenodd" d="M97.2898 180.239L88.5598 178.189L79.7598 196.769L90.6798 204.429L96.3398 194.479L97.2898 180.239Z" fill="#C3987B"/>
<path fill-rule="evenodd" clip-rule="evenodd" d="M113.45 194.39L110.24 202.27L102.94 197.63L101.41 191.21L95.1802 196.52L90.7402 194.8L97.2902 180.24L104.5 183.96L113.45 194.39Z" fill="#DFBDA5"/>
<path d="M93.6403 170.74L104.81 173.69L114.25 180.24L125.85 171.79L110.74 162.62L92.5303 156.43L93.6403 170.74Z" fill="#CCAD14"/>
<path d="M92.5303 156.43L125.85 171.79L128.5 166.04L112.48 156.46L95.1803 150.68L92.5303 156.43Z" fill="#9E7700"/>
<path d="M95.1797 150.68L128.5 166.04L131.15 160.29L115.59 150.91L97.8297 144.93L95.1797 150.68Z" fill="#E5C828"/>
<path d="M97.8301 144.93L131.15 160.29L133.8 154.54L117.78 144.96L100.48 139.18L97.8301 144.93Z" fill="#9E7700"/>
<path d="M112.08 130.73L121.81 137.41L132.69 140.23L133.8 154.54L100.48 139.18L112.08 130.73Z" fill="#CCAD14"/>
<path d="M114.25 180.239L109.19 164.109L93.6396 170.739L114.25 180.239Z" fill="#9E7700"/>
<path d="M132.69 140.23L117.14 146.86L112.08 130.73L132.69 140.23Z" fill="#9E7700"/>
<path fill-rule="evenodd" clip-rule="evenodd" d="M295.15 90.2093L294.2 107.609L269.87 106.509L275.25 78.5293L295.15 90.2093Z" fill="#2B2B2B"/>
<path fill-rule="evenodd" clip-rule="evenodd" d="M287.34 52.8809L305.63 83.4609L285.41 89.2309L277.3 83.6909L274.05 60.0509L287.34 52.8809Z" fill="#4F5253"/>
<path fill-rule="evenodd" clip-rule="evenodd" d="M305.63 83.4609L277.3 83.6909L262.93 92.2309L269.87 106.511L305.63 83.4609Z" fill="#474747"/>
<path fill-rule="evenodd" clip-rule="evenodd" d="M108.4 95.2808L154 116.641L176.59 119.041L177.37 92.2408L165.26 71.5508L108.4 95.2808Z" fill="#474747"/>
<path fill-rule="evenodd" clip-rule="evenodd" d="M269.98 90.1094L277.67 117.709L258.93 124.029L262.12 114.239L267.08 112.509L265.1 105.099L263.72 99.3794L269.98 90.1094Z" fill="#856400"/>
<path fill-rule="evenodd" clip-rule="evenodd" d="M173.84 95.8309L179.52 128.511L190.01 158.611L209.04 159.861L220.2 146.561L253.44 156.941L287.34 52.8809L206.96 72.3009L173.84 95.8309Z" fill="#DFBDA5"/>
<path fill-rule="evenodd" clip-rule="evenodd" d="M208.52 95.4094L197.87 141.309L220.2 146.559L207.09 162.059L205.84 173.329L181.98 167.249L176.59 119.039L178.53 110.939L173.84 95.8294L200.21 74.1094L208.52 95.4094Z" fill="#C3987B"/>
<path fill-rule="evenodd" clip-rule="evenodd" d="M260.71 77.2305L257.33 79.8305L250.39 101.23L265.85 87.7905L271.87 82.6805L260.71 77.2305Z" fill="#C3987B"/>
<path fill-rule="evenodd" clip-rule="evenodd" d="M250.25 77.4898L245.13 71.7798L228.54 71.3398L238.64 90.2098L239.93 106.05L250.25 77.4898Z" fill="#C3987B"/>
<path fill-rule="evenodd" clip-rule="evenodd" d="M192.94 110.47L176.59 119.04L173.84 95.8301L189.31 80.0801L203.64 92.7101L192.94 110.47Z" fill="#8B6651"/>
<path fill-rule="evenodd" clip-rule="evenodd" d="M250.25 77.4902L257.33 79.8302L247.98 108.65L239.93 106.05L250.25 77.4902Z" fill="#E8CAB6"/>
<path fill-rule="evenodd" clip-rule="evenodd" d="M239.93 106.051L242.53 112.281L247.98 108.651L239.93 106.051Z" fill="#8B6651"/>
<path fill-rule="evenodd" clip-rule="evenodd" d="M285.15 59.5909L207.74 99.3009L193.94 98.4409L199.06 86.1009L245.13 71.7809L287.34 52.8809L285.15 59.5909Z" fill="#8B6651"/>
<path fill-rule="evenodd" clip-rule="evenodd" d="M159.38 54.9794L154.92 44.2994L112.45 33.6094L145.42 108.179L166.75 89.2294L169.52 73.8994L159.38 54.9794Z" fill="#4F5253"/>
<path fill-rule="evenodd" clip-rule="evenodd" d="M145.42 60.6101L112.45 33.6101L173.84 27.3301L166.41 48.9001L145.42 60.6101Z" fill="#6F7173"/>
<path fill-rule="evenodd" clip-rule="evenodd" d="M248.67 18.9694L197.09 0.109375L145.42 60.6094L208.25 42.9694L248.67 18.9694Z" fill="#4F5253"/>
<path fill-rule="evenodd" clip-rule="evenodd" d="M264.34 69.6992L271.87 82.6792L260.71 77.2292L264.34 69.6992Z" fill="#2B2B2B"/>
<path fill-rule="evenodd" clip-rule="evenodd" d="M213.31 109.811L241.8 114.311L257.79 125.781L232 142.781L213.31 109.811Z" fill="#856400"/>
<path fill-rule="evenodd" clip-rule="evenodd" d="M225.64 123.051L235.78 119.711L244.63 129.871L237.9 134.411L230.7 131.881L225.64 123.051Z" fill="#755800"/>
<path fill-rule="evenodd" clip-rule="evenodd" d="M225.64 123.051L244.63 129.871L251.35 125.321L220.58 114.221L225.64 123.051Z" fill="white"/>
<path fill-rule="evenodd" clip-rule="evenodd" d="M199.72 90.5508L192.94 110.471L165.5 101.781L167.04 97.1408L173.84 95.8308L188 100.081L190.52 92.4308L199.72 90.5508Z" fill="#856400"/>
<path fill-rule="evenodd" clip-rule="evenodd" d="M220.2 146.559L190.6 136.949L205.84 173.329L220.2 146.559Z" fill="#8B6651"/>
<path fill-rule="evenodd" clip-rule="evenodd" d="M169.52 73.9004L145.42 108.18L199.72 90.5504L169.52 73.9004Z" fill="#2B2B2B"/>
<path d="M267.34 92.2306C267.34 93.1052 267.081 93.9601 266.594 94.6872C266.108 95.4143 265.417 95.9808 264.609 96.3151C263.801 96.6493 262.912 96.7362 262.054 96.5649C261.196 96.3935 260.409 95.9716 259.791 95.3524C259.173 94.7333 258.753 93.9448 258.584 93.0867C258.414 92.2287 258.503 91.3396 258.839 90.5322C259.175 89.7247 259.743 89.0351 260.472 88.5506C261.2 88.0661 262.055 87.8086 262.93 87.8106C263.51 87.8106 264.084 87.925 264.62 88.1472C265.156 88.3695 265.642 88.6952 266.052 89.1058C266.462 89.5163 266.786 90.0037 267.007 90.5399C267.228 91.0761 267.341 91.6506 267.34 92.2306Z" fill="#2B2B2B"/>
<path d="M241.11 83.46C241.102 84.3329 240.836 85.1839 240.345 85.9057C239.854 86.6275 239.161 87.1877 238.352 87.5159C237.543 87.844 236.655 87.9252 235.8 87.7494C234.945 87.5735 234.161 87.1485 233.548 86.5277C232.934 85.907 232.518 85.1185 232.351 84.2616C232.185 83.4046 232.276 82.5176 232.614 81.7125C232.951 80.9074 233.519 80.2201 234.246 79.7374C234.973 79.2546 235.827 78.9981 236.7 79C237.284 79 237.861 79.1157 238.4 79.3404C238.938 79.5652 239.426 79.8945 239.836 80.3093C240.247 80.7241 240.57 81.2162 240.789 81.757C241.008 82.2978 241.117 82.8767 241.11 83.46Z" fill="#2B2B2B"/>
<path fill-rule="evenodd" clip-rule="evenodd" d="M300.43 45.8105L208.52 95.4105L145.42 60.6105L218.76 50.8205L300.43 45.8105Z" fill="#474747"/>
<path fill-rule="evenodd" clip-rule="evenodd" d="M300.43 45.8107L271.61 9.7207L145.42 60.6107L300.43 45.8107Z" fill="#8F8F8F"/>
<path fill-rule="evenodd" clip-rule="evenodd" d="M108.4 95.2793L176.59 119.039L143 141.579L108.4 95.2793Z" fill="#474747"/>
<path fill-rule="evenodd" clip-rule="evenodd" d="M153.47 370.859L163.49 385.659L193.55 387.839L187.7 393.109L151.99 382.159L153.47 370.859Z" fill="#C3987B"/>
<path fill-rule="evenodd" clip-rule="evenodd" d="M178.37 379.17L172.77 388.53L177.37 389.94L182.03 382.5L178.37 379.17Z" fill="#9E7700"/>
<path fill-rule="evenodd" clip-rule="evenodd" d="M217.25 333.85L216.35 348.27L243.28 365.74L235.83 368.28L209.62 341.36L217.25 333.85Z" fill="#C3987B"/>
<path fill-rule="evenodd" clip-rule="evenodd" d="M234.37 350L224.53 356.67L227.49 359.71L235.78 354.82L234.37 350Z" fill="#9E7700"/>
<path fill-rule="evenodd" clip-rule="evenodd" d="M235.91 282.941L143.42 264.451L167.19 235.961L235.91 282.941Z" fill="#F4D75D"/>
</g>
<defs>
<clipPath id="clip0_213_1147">
<rect width="400" height="400" fill="white"/>
</clipPath>
</defs>
</svg>
