<svg width="400" height="400" viewBox="0 0 400 400" fill="none" xmlns="http://www.w3.org/2000/svg">
<g clip-path="url(#clip0_213_1142)">
<path d="M220.65 165.6L249.08 206.91L233.32 237.36V224.41L237.21 207.13L230.44 195.18L220.65 165.6Z" fill="#8F8F8F"/>
<path d="M270.97 216.34L281.19 232.83L269.38 237.72L243.69 244.27L232.96 237.36L231.74 228.29L235.48 219.37L270.97 216.34Z" fill="#474747"/>
<path opacity="0.1" d="M132.47 388.38L217.48 376.43L297.24 389.46L216.98 400.11L132.47 388.38Z" fill="#2B2B2B"/>
<path d="M173.86 366.43L167.46 380.32L172.14 392.63L173.86 366.43Z" fill="#474747"/>
<path d="M192.43 372.539L189.7 364.119L173.86 366.429L172.35 383.339L172.14 387.589L189.99 383.339L194.02 377.079L192.43 372.539Z" fill="#C3987B"/>
<path d="M172.14 387.59L194.02 377.08L200.86 387.59L190.13 389.68L172.14 387.59Z" fill="#6F7173"/>
<path d="M172.14 387.59V392.63H200.86V387.59H172.14Z" fill="#474747"/>
<path d="M178.61 305.669L173.22 367.649L191 368.079L194.02 301.859L178.61 305.669Z" fill="#1C7678"/>
<path d="M236.02 386.8L231.91 386.65L229.25 370.38L233.14 359.23L241.56 365.78L239.4 372.26L236.02 386.8Z" fill="#474747"/>
<path d="M255.96 366.791L251.9 359.061L233.14 359.231L242.56 377.731L244.87 380.681L255.31 377.581L258.37 370.691L255.96 366.791Z" fill="#C3987B"/>
<path d="M244.87 381.689L258.37 370.689L270.93 381.689L257.11 383.769L244.87 381.689Z" fill="#6F7173"/>
<path d="M239.54 371.82L237.24 374.27L236.95 379.74L248.32 386.94H270.93V381.69H252.14L239.54 371.82Z" fill="#474747"/>
<path d="M241.96 27.1797L199.06 37.8297L160.47 51.9397L163.64 69.6497L173.79 90.3797L169.33 90.1597L166.16 95.4197L161.19 86.1297L157.16 82.0997L150.76 85.1897L143.85 92.9697L145.86 97.7197L151.55 104.34L156.66 111.83L177.1 157.25L213.09 164.16L212.81 143.28L216.12 129.39L231.59 123.7L254.63 117.01L252.18 74.0397L241.96 27.1797Z" fill="#DFBDA5"/>
<path d="M195.89 81.8098L202.22 66.9098L219.14 66.4798L229.15 91.5998L221.66 57.3398L204.17 58.3498L193.73 66.4798L189.41 74.0398L195.89 81.8098Z" fill="#C3987B"/>
<path d="M247.86 54.1693L236.56 62.3793L235.84 77.4893L225.47 54.0293L247.86 54.1693Z" fill="#C3987B"/>
<path d="M191.86 88.7196L227.63 87.6396L227.2 82.5996L191.86 88.7196Z" fill="#C3987B"/>
<path d="M252.25 75.6191L237.71 85.4091L236.41 80.0791L252.25 75.6191Z" fill="#C3987B"/>
<path d="M171.92 48.4805L187.32 61.8705L191.86 88.7205L194.95 129.1L213.09 164.16L196.47 162.65L177.1 157.25L156.66 111.83L167.89 105.21L166.16 95.4205L173.79 90.3805L160.47 51.9405L171.92 48.4805Z" fill="#C3987B"/>
<path d="M156.66 111.831L167.89 105.211L164.51 129.181L156.66 111.831Z" fill="#8B6651"/>
<path d="M254.63 117.01L184.52 130.76L202.73 162.14L207.05 164.88L213.09 164.16L216.12 129.39L254.63 117.01Z" fill="#8B6651"/>
<path d="M193.73 52.3008L205.25 58.8508L221.16 54.6708L193.73 52.3008Z" fill="#2B2B2B"/>
<path d="M227.2 48.1195L235.55 38.7695L242.61 40.2795L227.2 48.1195Z" fill="#2B2B2B"/>
<path d="M221.16 54.6709L229.15 91.6009L238.86 90.1609L229.87 53.3809L221.16 54.6709Z" fill="#E8CAB6"/>
<path d="M229.15 91.6002L234.33 96.7802L238.86 90.1602L229.15 91.6002Z" fill="#8B6651"/>
<path d="M201.58 103.259L223.24 103.119L233.9 107.579L220.22 108.229L211.94 107.439L209.71 107.079L207.05 105.419L201.58 103.259Z" fill="#27788C"/>
<path d="M206.76 105.35L212.16 111.25L233.9 107.58L211.94 107.44L206.76 105.35Z" fill="#3AA0BA"/>
<path d="M150.97 95.6999L155.94 90.6699L161.19 98.5099L150.97 95.6999Z" fill="#8B6651"/>
<path d="M241.96 27.1794L201.86 0.109375L203.16 20.4794L208.77 37.2594L241.96 27.1794Z" fill="#474747"/>
<path d="M201.86 0.109375L136.65 22.4294L131.9 33.7994L132.19 43.3694L146.01 49.0594L160.47 51.9394L171.92 48.4794L208.77 37.2594L201.86 0.109375Z" fill="#6F7173"/>
<path d="M132.19 43.3691L129.45 50.2791L130.17 55.6091L125.06 86.1291L147.66 82.5291L168.32 74.6891L160.47 51.9391L132.19 43.3691Z" fill="#474747"/>
<path d="M125.06 86.1294L168.32 74.6895L173.79 90.3794L166.16 95.4194L157.16 82.0994L143.85 92.9695L151.55 104.339L125.06 86.1294Z" fill="#2B2B2B"/>
<path d="M130.1 55.7497L108.65 53.8097L119.44 39.6297L136.65 22.4297L132.19 43.3697L130.1 55.7497Z" fill="#2B2B2B"/>
<path d="M136.65 22.4309L109.87 8.46094L90.8701 72.8109L108.65 53.8109L136.65 22.4309Z" fill="#6F7173"/>
<path d="M177.1 157.25L220.65 165.6L216.19 176.25L206.62 188.63L183 176.9L168.39 162.5L177.1 157.25Z" fill="#474747"/>
<path d="M168.39 162.5L153.85 169.92L159.68 190.22L169.26 210.8L177.53 214.11L206.97 217.14L237.21 207.13L220.65 165.6L206.62 188.63L168.39 162.5Z" fill="#72CBCC"/>
<path d="M169.26 210.801L237.21 207.131L230.44 255.791L208.34 257.011L181.71 252.911L169.26 210.801Z" fill="#1C7678"/>
<path d="M181.71 252.91L204.31 279.9L218.06 288.69L229.79 277.74L230.44 255.79L181.71 252.91Z" fill="#72CBCC"/>
<path d="M181.71 252.91L218.06 288.69L222.02 329.71L191 368.08L164.87 282.28L181.71 252.91Z" fill="#369496"/>
<path d="M230.44 255.789L242.46 312.729L232.38 306.609L218.06 288.689L230.44 255.789Z" fill="#50A9AA"/>
<path d="M218.06 288.689L242.46 312.729L251.9 359.059L191 368.079L218.06 288.689Z" fill="#1C7678"/>
<path d="M166.25 286.809L169.26 296.699L232.31 242.469L232.96 237.359L175.23 264.429L166.25 286.809Z" fill="#2B2B2B" fill-opacity="0.2"/>
<path d="M153.85 169.92L119.81 224.98L138.31 221.81L151.41 215.84L169.19 210.66L153.85 169.92Z" fill="#8F8F8F"/>
<path d="M151.48 215.84L160.69 248.09L154 253.63L146.51 254.21L119.81 224.98L151.48 215.84Z" fill="#474747"/>
<path d="M132.47 270L141.54 286.84L306.67 197.52L297.53 180.67L132.47 270ZM145.47 280.08C144.905 280.387 144.242 280.461 143.623 280.285C143.004 280.109 142.479 279.698 142.16 279.14C141.883 278.593 141.826 277.961 142.001 277.373C142.176 276.785 142.569 276.287 143.1 275.98C143.663 275.667 144.326 275.589 144.946 275.763C145.566 275.937 146.092 276.349 146.41 276.91C146.558 277.175 146.652 277.468 146.686 277.77C146.72 278.072 146.694 278.378 146.61 278.67C146.525 278.962 146.383 279.234 146.193 279.471C146.002 279.708 145.767 279.905 145.5 280.05L145.47 280.08Z" fill="#5EC0D9"/>
<path d="M300.84 186.691L135.64 276.021L132.47 269.971L297.53 180.641L300.84 186.691Z" fill="#73CFE5"/>
<path d="M141.25 272.921L139.38 273.931L136.07 267.951L138.09 266.801L141.25 272.921Z" fill="#318FA6"/>
<path d="M144.78 268.39L143.92 268.82L141.76 264.86L142.62 264.43L144.78 268.39Z" fill="#318FA6"/>
<path d="M149.39 265.87L148.53 266.37L146.37 262.34L147.23 261.91L149.39 265.87Z" fill="#318FA6"/>
<path d="M154 263.351L153.13 263.921L150.97 259.891L151.84 259.391L154 263.351Z" fill="#318FA6"/>
<path d="M160.69 262.409L158.82 263.489L155.51 257.449L157.52 256.369L160.69 262.409Z" fill="#318FA6"/>
<path d="M164.29 257.88L163.35 258.38L161.19 254.42L162.06 253.85L164.29 257.88Z" fill="#318FA6"/>
<path d="M173.43 252.909L172.57 253.339L170.41 249.379L171.27 248.949L173.43 252.909Z" fill="#318FA6"/>
<path d="M180.13 251.899L178.25 252.909L174.94 246.859L176.96 245.859L180.13 251.899Z" fill="#318FA6"/>
<path d="M183.72 247.37L182.79 247.8L180.56 243.84L181.56 243.41L183.72 247.37Z" fill="#318FA6"/>
<path d="M188.26 244.851L187.4 245.431L185.24 241.321L186.1 240.891L188.26 244.851Z" fill="#318FA6"/>
<path d="M192.87 242.399L192 242.909L189.84 238.949L190.71 238.369L192.87 242.399Z" fill="#318FA6"/>
<path d="M199.63 241.4L197.69 242.47L194.45 236.43L196.32 235.35L199.63 241.4Z" fill="#318FA6"/>
<path d="M203.16 236.86L202.22 237.36L200.06 233.41L201 232.83L203.16 236.86Z" fill="#318FA6"/>
<path d="M207.77 234.411L206.9 234.841L204.74 230.881L205.61 230.381L207.77 234.411Z" fill="#318FA6"/>
<path d="M212.3 231.89L211.44 232.32L209.28 228.37L210.14 227.93L212.3 231.89Z" fill="#318FA6"/>
<path d="M219.07 230.88L217.2 231.89L213.88 225.85L215.76 224.84L219.07 230.88Z" fill="#318FA6"/>
<path d="M222.52 226.351L221.66 226.781L219.5 222.821L220.36 222.391L222.52 226.351Z" fill="#318FA6"/>
<path d="M227.2 223.899L226.27 224.409L224.11 220.299L225.04 219.869L227.2 223.899Z" fill="#318FA6"/>
<path d="M231.74 221.38L230.87 221.89L228.71 217.93L229.58 217.35L231.74 221.38Z" fill="#318FA6"/>
<path d="M238.5 220.45L236.63 221.46L233.32 215.41L235.26 214.33L238.5 220.45Z" fill="#318FA6"/>
<path d="M241.96 215.841L241.09 216.341L238.94 212.391L239.8 211.881L241.96 215.841Z" fill="#318FA6"/>
<path d="M246.64 213.389L245.7 213.819L243.54 209.869L244.48 209.359L246.64 213.389Z" fill="#318FA6"/>
<path d="M251.24 210.87L250.24 211.31L248.08 207.35L249.08 206.91L251.24 210.87Z" fill="#318FA6"/>
<path d="M258.23 209.72L256.36 210.8L253.04 204.76L254.91 203.75L258.23 209.72Z" fill="#318FA6"/>
<path d="M261.68 205.19L260.82 205.69L258.66 201.66L259.52 201.23L261.68 205.19Z" fill="#318FA6"/>
<path d="M266.36 202.671L265.42 203.241L263.26 199.211L264.2 198.711L266.36 202.671Z" fill="#318FA6"/>
<path d="M270.97 200.289L270.03 200.719L267.87 196.689L268.73 196.189L270.97 200.289Z" fill="#318FA6"/>
<path d="M277.66 199.21L275.79 200.29L272.48 194.25L274.42 193.17L277.66 199.21Z" fill="#318FA6"/>
<path d="M281.12 194.75L280.25 195.18L278.09 191.22L278.96 190.65L281.12 194.75Z" fill="#318FA6"/>
<path d="M285.8 192.23L284.86 192.66L282.7 188.7L283.63 188.27L285.8 192.23Z" fill="#318FA6"/>
<path d="M290.4 189.71L289.54 190.22L287.38 186.18L288.24 185.75L290.4 189.71Z" fill="#318FA6"/>
<path d="M297.1 188.7L295.22 189.71L291.91 183.74L293.86 182.73L297.1 188.7Z" fill="#318FA6"/>
<path d="M291.91 218.22L298.68 209.87L294.29 206.84L288.75 210.8L288.82 215.05L291.91 218.22Z" fill="#C3987B"/>
<path d="M146.51 254.21L156.88 278.54L165.8 276.02L181.19 265.36L160.69 248.09L146.51 254.21Z" fill="#DFBDA5"/>
<path d="M181.19 265.359L156.88 278.539L166.25 286.809L181.19 265.359Z" fill="#8B6651"/>
<path d="M291.91 218.221L282.19 234.411L269.38 237.721L265.57 230.601L274.64 218.721L291.91 218.221Z" fill="#8B6651"/>
<path d="M284.64 201.301L269.67 211.671L265.57 230.601L291.91 218.221L284.64 201.301Z" fill="#DFBDA5"/>
<path d="M247.08 63.1408C247.088 63.875 246.878 64.5949 246.476 65.2096C246.075 65.8243 245.5 66.306 244.824 66.5938C244.149 66.8816 243.403 66.9625 242.682 66.8263C241.961 66.6901 241.296 66.3429 240.772 65.8287C240.248 65.3145 239.888 64.6564 239.738 63.9376C239.588 63.2189 239.655 62.4719 239.93 61.7911C240.205 61.1104 240.676 60.5266 241.283 60.1135C241.89 59.7005 242.606 59.4768 243.34 59.4708C244.322 59.4628 245.268 59.8447 245.969 60.5327C246.67 61.2207 247.069 62.1586 247.08 63.1408Z" fill="#2B2B2B"/>
<path d="M213.12 71.66C213.124 72.3887 212.911 73.1021 212.509 73.7099C212.107 74.3177 211.534 74.7925 210.862 75.0741C210.19 75.3557 209.449 75.4314 208.734 75.2917C208.019 75.152 207.361 74.8031 206.845 74.2892C206.328 73.7754 205.976 73.1197 205.832 72.4053C205.688 71.6909 205.76 70.95 206.038 70.2764C206.316 69.6028 206.788 69.0269 207.393 68.6216C207.999 68.2164 208.711 68 209.44 68C210.41 68.0078 211.338 68.3952 212.026 69.0794C212.714 69.7635 213.107 70.6899 213.12 71.66Z" fill="#2B2B2B"/>
<path d="M261.25 44.7402L187.32 61.8702L191.86 88.7202L227.2 82.6002L222.31 60.0002L231.01 58.0002L236.42 80.0002L266.42 71.5802L261.25 44.7402ZM193.73 66.4802L217.43 61.0902L221 77.4902L195.92 81.8102L193.73 66.4802ZM239.73 73.4802L235.35 57.4102L256.82 51.9202L259.62 67.1102L239.73 73.4802Z" fill="#318FA6"/>
</g>
<defs>
<clipPath id="clip0_213_1142">
<rect width="400" height="400" fill="white"/>
</clipPath>
</defs>
</svg>
