<svg width="400" height="400" viewBox="0 0 400 400" fill="none" xmlns="http://www.w3.org/2000/svg">
<g clip-path="url(#clip0_213_1146)">
<path opacity="0.1" fill-rule="evenodd" clip-rule="evenodd" d="M325.54 387.13L201.31 376.26L79.54 391.36L200.67 400.11L325.54 387.13Z" fill="black"/>
<path fill-rule="evenodd" clip-rule="evenodd" d="M76.29 269.249L86 250.529L97.92 253.259L85.86 274.459L76.29 269.249Z" fill="#4F5253"/>
<path fill-rule="evenodd" clip-rule="evenodd" d="M118.76 188.41L151.3 244.41L126.22 252.94L101.9 221.36L118.76 188.41Z" fill="#856400"/>
<path fill-rule="evenodd" clip-rule="evenodd" d="M238.29 161.939L267.71 205.959L263.38 227.009L251.31 239.689L235.94 226.579L232.27 189.369L238.29 161.939Z" fill="#856400"/>
<path fill-rule="evenodd" clip-rule="evenodd" d="M267.71 205.961L293.6 203.711L297.61 216.911L293.87 232.751L251.31 239.691L267.71 205.961Z" fill="#BF8F00"/>
<path fill-rule="evenodd" clip-rule="evenodd" d="M234.74 284.18L240.04 325.25L226.88 346.52L203.04 342.54L179.79 304.42L234.74 284.18Z" fill="#856400"/>
<path fill-rule="evenodd" clip-rule="evenodd" d="M203.04 342.54L240.04 325.25L244.03 356.16L231.82 367.78L217.55 366.32L203.04 342.54Z" fill="#755800"/>
<path fill-rule="evenodd" clip-rule="evenodd" d="M244.72 359.171L254.31 365.121L270.72 379.401L240.87 381.621L218.68 379.401L217.55 366.321L238.29 354.141L244.72 359.171Z" fill="#B58B00"/>
<path fill-rule="evenodd" clip-rule="evenodd" d="M237.29 358.751L247.32 367.781L254.31 365.121L244.03 356.161L240.04 354.141L237.29 358.751Z" fill="#E5C828"/>
<path fill-rule="evenodd" clip-rule="evenodd" d="M199.86 312.519L193.2 335.599L172.25 346.519L151.3 340.879L139.34 285.779L183.53 298.729L199.86 312.519Z" fill="#BF8F00"/>
<path fill-rule="evenodd" clip-rule="evenodd" d="M151.3 340.88L193.2 335.6L184.53 365.67L170.62 372.68L157.23 370.71L151.3 340.88Z" fill="#856400"/>
<path fill-rule="evenodd" clip-rule="evenodd" d="M184.53 365.669L193.2 385.919L171.9 388.909L154.64 385.919L157.23 370.709L166.43 364.799L170.99 363.619H175.46L184.53 365.669Z" fill="#B58B00"/>
<path d="M193.21 385.92H154.64V391.9H193.21V385.92Z" fill="#E5C828"/>
<path fill-rule="evenodd" clip-rule="evenodd" d="M166.43 368.89L167.78 378.5H178.86L175.22 367.33L170.99 366.32L166.43 368.89Z" fill="#E5C828"/>
<path d="M270.76 379.301H218.68V385.281H270.76V379.301Z" fill="#E5C828"/>
<path fill-rule="evenodd" clip-rule="evenodd" d="M234.74 284.179L199.86 312.519L139.34 285.779L181.31 279.959L201.31 267.609L213.57 276.829L234.74 284.179Z" fill="#9E7700"/>
<path fill-rule="evenodd" clip-rule="evenodd" d="M228.46 168.28L213.57 161.67L203.36 175.68L195.15 195.33L168.06 186.12L141.25 180.22L128.72 194.12L137.03 244.41L141.25 257.35L139.34 285.78L190.17 294.46L201.31 269.05L214.95 291.57L234.74 284.18L235.94 226.58L228.46 168.28Z" fill="#E5C828"/>
<path fill-rule="evenodd" clip-rule="evenodd" d="M133.18 157.91L143.3 147.33L144.85 157.01L150.97 167.24L133.18 157.91Z" fill="#755800"/>
<path fill-rule="evenodd" clip-rule="evenodd" d="M202.82 135.529L222.88 146.079L213.57 161.669L195.15 195.329L196.14 161.099L202.82 135.529Z" fill="#755800"/>
<path fill-rule="evenodd" clip-rule="evenodd" d="M137.03 244.411L141.25 180.221L118.76 188.411L137.03 244.411Z" fill="#BF8F00"/>
<path fill-rule="evenodd" clip-rule="evenodd" d="M238.29 161.94L235.94 226.58L213.57 161.67L238.29 161.94Z" fill="#BF8F00"/>
<path d="M186.593 215.659L148.087 221.785L148.932 227.098L187.438 220.972L186.593 215.659Z" fill="#BF8F00"/>
<path fill-rule="evenodd" clip-rule="evenodd" d="M134.01 51.8793L192.21 45.7493L210.12 37.0293L229.68 127.279L202.82 135.529L199.14 147.189L195.38 154.839L170.77 168.279L150.51 155.499L119.73 120.369L107.38 101.129L103.93 81.3693L134.01 51.8793Z" fill="#DFBDA5"/>
<path fill-rule="evenodd" clip-rule="evenodd" d="M140.67 51.1797L168.22 145.62L202.82 135.53L199.64 147.63L199.93 159.56L195.15 195.33L164.1 177.44L145.32 160.27L127.46 132.43L126.82 124.53L119.73 120.37L134.96 108.94L121.99 90.5197L107.38 101.13L98.1904 86.9897L126.16 59.5697L134.01 51.8797L140.67 51.1797Z" fill="#C3987B"/>
<path fill-rule="evenodd" clip-rule="evenodd" d="M196.09 96.9905L179.22 72.9605L157.81 66.0205L182.32 58.4805L188.61 66.1005L197.53 82.1705L196.09 96.9905Z" fill="#C3987B"/>
<path fill-rule="evenodd" clip-rule="evenodd" d="M197.78 63.9104L198.76 56.1204L213.29 51.6504L201.9 87.4604L197.78 63.9104Z" fill="#C3987B"/>
<path fill-rule="evenodd" clip-rule="evenodd" d="M134.96 108.939L119.73 120.369L127.46 132.419L134.96 108.939Z" fill="#8B6651"/>
<path fill-rule="evenodd" clip-rule="evenodd" d="M191.81 79.3301L163.94 102.66L152.46 91.5901L147.55 91.4201L145.3 88.0701L157.81 82.0901L191.81 79.3301Z" fill="#8B6651"/>
<path fill-rule="evenodd" clip-rule="evenodd" d="M201.09 77.5794L220.26 83.8294L219.45 80.0694L215.71 73.3594L201.09 77.5794Z" fill="#8B6651"/>
<path fill-rule="evenodd" clip-rule="evenodd" d="M127.81 62.0195L156.13 104.19L141.34 118.02L121.99 90.5195L107.38 101.13L98.1904 86.9895L112.95 69.1095L127.81 62.0195Z" fill="#856400"/>
<path fill-rule="evenodd" clip-rule="evenodd" d="M197.78 63.9102L188.61 66.1002L196.09 96.9902L205.25 94.7702L197.78 63.9102Z" fill="#E8CAB6"/>
<path fill-rule="evenodd" clip-rule="evenodd" d="M127.07 107.459L121.13 97.1895L112.35 103.249L127.07 107.459Z" fill="#8B6651"/>
<path fill-rule="evenodd" clip-rule="evenodd" d="M157.81 66.0207L174.78 54.4707L182.32 58.4807L157.81 66.0207Z" fill="#856400"/>
<path fill-rule="evenodd" clip-rule="evenodd" d="M198.76 56.1195L206.03 48.5195L213.29 51.6495L198.76 56.1195Z" fill="#856400"/>
<path fill-rule="evenodd" clip-rule="evenodd" d="M219.78 99.7109L168.18 112.201L187.74 122.101L210.12 116.921L219.78 99.7109Z" fill="#C3987B"/>
<path fill-rule="evenodd" clip-rule="evenodd" d="M213.85 104.51L177.6 113.24L188.44 119.28L207.82 114.74L213.85 104.51Z" fill="white"/>
<path fill-rule="evenodd" clip-rule="evenodd" d="M205.25 94.7695L201.31 101.3L196.09 96.9895L205.25 94.7695Z" fill="#8B6651"/>
<path fill-rule="evenodd" clip-rule="evenodd" d="M147.55 91.4202L123.62 92.8302L121.99 90.5202L134.77 86.9902L145.36 88.1502L147.55 91.4202Z" fill="#755800"/>
<path fill-rule="evenodd" clip-rule="evenodd" d="M202.82 135.529L157.57 148.729L199.93 159.559L202.82 135.529Z" fill="#8B6651"/>
<path fill-rule="evenodd" clip-rule="evenodd" d="M192.21 9.93945L107.38 31.1395L91.9004 57.0595L145.32 37.0295L192.21 9.93945Z" fill="#BF8F00"/>
<path fill-rule="evenodd" clip-rule="evenodd" d="M140.67 51.1792L98.1904 86.9892L91.9004 57.0592L129.92 38.4492L140.67 51.1792Z" fill="#9E7700"/>
<path fill-rule="evenodd" clip-rule="evenodd" d="M140.67 51.1795L129.92 47.0495V38.4495L192.21 9.93945L194.19 28.2495L192.21 45.7495L140.67 51.1795Z" fill="#856400"/>
<path fill-rule="evenodd" clip-rule="evenodd" d="M192.21 9.93937L232.98 0.109375L210.12 37.0294L192.21 45.7494V9.93937Z" fill="#BF8F00"/>
<path fill-rule="evenodd" clip-rule="evenodd" d="M154.51 74.2598L108.56 85.3398L107.38 101.13L121.99 90.5198L157.81 86.7498L157.39 79.7898L154.51 74.2598Z" fill="#474747"/>
<path fill-rule="evenodd" clip-rule="evenodd" d="M197.78 63.9102L188.61 66.1002L188.13 70.0102L190.55 74.1102L199.69 71.8102L200.68 68.4702L197.78 63.9102Z" fill="#474747"/>
<path fill-rule="evenodd" clip-rule="evenodd" d="M226.38 57.0605L232.27 81.8005L201.09 77.5805L197.78 63.9105L226.38 57.0605ZM191.81 79.3405L161.11 99.2405L154.51 74.2405L188.61 66.0805L191.81 79.3405Z" fill="#4F5253"/>
<path fill-rule="evenodd" clip-rule="evenodd" d="M171.9 168.97L133.18 157.91L141.25 180.22L195.15 195.33L171.9 168.97Z" fill="#BF8F00"/>
<path fill-rule="evenodd" clip-rule="evenodd" d="M141.25 257.349L195.38 233.449H201.31L235.43 250.989L201.31 267.609L141.25 257.349Z" fill="#CCAD14"/>
<path fill-rule="evenodd" clip-rule="evenodd" d="M195.15 195.33L195.38 233.45L201.31 269.05V233.45L195.15 195.33Z" fill="#BF8F00"/>
<path fill-rule="evenodd" clip-rule="evenodd" d="M101.9 221.359L150.51 253.259L148.1 267.609L139.94 276.849L86 250.529L101.9 221.359Z" fill="#BF8F00"/>
<path fill-rule="evenodd" clip-rule="evenodd" d="M150.51 253.26L162.58 260.99L139.94 276.85L150.51 253.26Z" fill="#DFBDA5"/>
<path fill-rule="evenodd" clip-rule="evenodd" d="M153.63 352.611L188.34 352.461L184.53 365.671L157.23 370.711L153.63 352.611Z" fill="#9E7700"/>
<path fill-rule="evenodd" clip-rule="evenodd" d="M166.45 369.01V359.17L175.79 358.23L175.23 367.38L166.45 369.01Z" fill="#CCAD14"/>
<path fill-rule="evenodd" clip-rule="evenodd" d="M210.66 355.04L241.98 340.27L244.03 356.16L217.55 366.32L210.66 355.04Z" fill="#9E7700"/>
<path fill-rule="evenodd" clip-rule="evenodd" d="M237.29 358.75L235.43 348.75L242.78 346.52L244.03 356.16L237.29 358.75Z" fill="#CCAD14"/>
<path fill-rule="evenodd" clip-rule="evenodd" d="M293.6 203.71L308.87 202.59L314.45 215.64L311.29 232.8L293.87 232.75L293.6 203.71Z" fill="#C3987B"/>
<path fill-rule="evenodd" clip-rule="evenodd" d="M293.6 203.709L305.46 183.869L312.06 185.869L307.01 212.319L293.73 217.199L293.6 203.709Z" fill="#DFBDA5"/>
<path fill-rule="evenodd" clip-rule="evenodd" d="M308.87 202.59L339.83 200.82V207.11L313.45 213.33L308.87 202.59Z" fill="#C3987B"/>
<path fill-rule="evenodd" clip-rule="evenodd" d="M324.6 210.699L325.54 228.169L311.29 232.799L307.01 212.319L324.6 210.699Z" fill="#DFBDA5"/>
<path fill-rule="evenodd" clip-rule="evenodd" d="M71.4702 276.83L142.86 304.57L156.13 316.15L151.3 340.88L65.5102 323.35L53.4902 290.06L71.4702 276.83Z" fill="#858686"/>
<path fill-rule="evenodd" clip-rule="evenodd" d="M142.86 304.57L53.4902 290.06L76.2902 269.25L169.34 280.79L162.06 297.47L142.86 304.57Z" fill="#9DA1A2"/>
<path fill-rule="evenodd" clip-rule="evenodd" d="M167.05 284.34L159.88 289.29L142.86 304.57L151.3 340.88L179.06 316.15L172.26 291.4L167.05 284.34Z" fill="#6F7173"/>
<path fill-rule="evenodd" clip-rule="evenodd" d="M141.25 180.221L172.25 291.401L159.88 289.291L132.6 183.371L141.25 180.221Z" fill="#4F5253"/>
<path fill-rule="evenodd" clip-rule="evenodd" d="M88.4895 304.66L80.3195 305.22L79.7695 309.3L84.0295 312.27L79.0195 314.13L79.2095 316.92L86.0795 315.99L87.9395 311.35L82.5495 308L89.0495 307.45L88.4895 304.66Z" fill="#DDDDDC"/>
<path fill-rule="evenodd" clip-rule="evenodd" d="M98.5205 307.82L91.6505 306.52L89.2305 317.66L93.0005 318.77L92.6305 313.57L98.0105 314.32L98.5205 307.82ZM94.8005 312.09L92.5805 311.16L92.9505 308.75L95.1805 310.05L94.8005 312.09Z" fill="#DDDDDC"/>
<path fill-rule="evenodd" clip-rule="evenodd" d="M108.36 310.049L100.93 309.119L100 319.509L107.8 320.069L108.36 310.049ZM105 317.289L102.21 316.539L102.77 312.459L106.11 313.389L105 317.289Z" fill="#DDDDDC"/>
<path fill-rule="evenodd" clip-rule="evenodd" d="M119.54 322.58L117.64 318.03L119.31 311.53L112.44 310.23L110 321.37L113.71 322.48L113.34 317.29L117.01 322.86L119.54 322.58ZM113.74 312.46L115.97 313.76L115.6 315.76L113.37 314.83L113.74 312.46Z" fill="#DDDDDC"/>
<path fill-rule="evenodd" clip-rule="evenodd" d="M121.63 312.551L131.66 313.111L131.24 315.751L126.79 315.481L126.09 323.691L122.47 323.001L124.56 315.621L120.94 315.061L121.63 312.551Z" fill="#DDDDDC"/>
</g>
<defs>
<clipPath id="clip0_213_1146">
<rect width="400" height="400" fill="white"/>
</clipPath>
</defs>
</svg>
