<svg width="400" height="400" viewBox="0 0 400 400" fill="none" xmlns="http://www.w3.org/2000/svg">
<path opacity="0.1" d="M66.6299 389.239L165.61 399.999L319.18 387.779L173.5 377.109L66.6299 389.239Z" fill="#2B2B2B"/>
<path d="M301.22 154.111L309.75 146.581L317.12 134.041L316.58 105.391L299.44 122.811L294.39 142.841L301.22 154.111Z" fill="#8B6651"/>
<path d="M346.32 52.9395L343.68 54.8895L331.9 75.7395L327.01 82.6595L328.25 96.6995L317.12 104.219L318.79 109.729L311.9 125.749L305.49 129.929L297.97 146.419L309.75 146.579L322.68 109.909L334.58 99.8995L334.13 82.3495L346.32 52.9395Z" fill="#35785D"/>
<path d="M313.35 129.111L318.79 109.731L317.12 104.221L305.49 129.931L313.35 129.111Z" fill="#54B08B"/>
<path d="M343.68 54.8895L346.32 52.9395L341.89 53.2795L327.01 82.6595L333.13 79.0695L343.68 54.8895Z" fill="#54B08B"/>
<path d="M290.99 129.93L295.47 114.54L314.37 102.27L317.12 104.22L313.35 112.38L305.53 119.23L305.49 129.93L302.17 137.2L294.39 142.84L290.99 129.93Z" fill="#DFBDA5"/>
<path d="M328.43 105.081L327.01 137.251L309.75 146.581L317.12 104.221L328.43 105.081Z" fill="#C3987B"/>
<path d="M193.93 361.169V374.839L210.81 369.629L220.4 362.339L223.54 350.029L193.93 361.169Z" fill="#35785D"/>
<path d="M121.41 348.869L116.34 374.909L130.95 374.839L144.81 366.069L147.92 359.519L121.41 348.869Z" fill="#35785D"/>
<path d="M220.4 362.34L193.93 374.84V381.94L216.38 383.83L243.96 381.94L220.4 362.34Z" fill="#54B08B"/>
<path d="M243.96 381.939H193.93V388.699H243.96V381.939Z" fill="#35785D"/>
<path d="M144.81 366.07L150.97 385.69L133.64 389.07L113.88 385.69L116.34 374.91L144.81 366.07Z" fill="#54B08B"/>
<path d="M150.97 385.689H113.88V392.449H150.97V385.689Z" fill="#35785D"/>
<path d="M90.9403 259.26L80.6403 271.13L76.3203 276.11L81.8403 281.22L95.3703 262.53L90.9403 259.26Z" fill="#C3987B"/>
<path d="M80.6396 240.1L67.4596 245.08L62.0996 256.7L68.8896 272.63L76.3196 276.11L76.3296 276.1L86.7496 265.4L80.6396 240.1Z" fill="#DFBDA5"/>
<path d="M91.45 258.679L71.89 235.449L67.46 245.079L86.75 265.399L90.94 259.259L91.45 258.679Z" fill="#8B6651"/>
<path d="M76.3204 276.109L62.1004 256.699L56.6504 275.579L65.6204 288.559L76.3304 276.099L76.3204 276.109Z" fill="#C3987B"/>
<path d="M147.05 172.4L137.11 170.9L110.89 168.15L145.9 196.4L148.37 204.7L164.35 237.21L185.84 216.25L147.05 172.4Z" fill="#738D57"/>
<path d="M133.64 209.709L145.21 230.009L157.33 235.449L166.06 223.019L148.37 192.199L133.64 209.709Z" fill="#446125"/>
<path d="M244.09 198.561L192.45 274.481L166.06 223.021L145.21 230.011L105.68 340.081L159.1 372.411L159.29 372.551L247.89 337.671L244.09 198.561Z" fill="#738D57"/>
<path d="M225.45 204.28L207.97 234.81L199.06 226.82L185.84 216.25L166.06 223.02L160 364.97L239 198.07L226.12 202.47L225.45 204.28Z" fill="#99C26D"/>
<path d="M110.89 168.15L70.5 221.86L119.21 229.28L138.39 182.45L110.89 168.15Z" fill="#99C26D"/>
<path d="M70.4902 221.86H70.5002L89.8802 260.76L100.83 256.97L137.11 184.41L70.4902 221.86Z" fill="#738D57"/>
<path d="M138.39 182.449L89.8799 256.699L107.47 255.379L117.57 249.269L148.37 192.199L138.39 182.449Z" fill="#5A753D"/>
<path d="M86.7503 265.399L112.84 256.699L117.57 249.269L89.8803 256.699L70.5003 221.859H70.4903L65.5703 228.319L86.7503 265.399Z" fill="#35785D"/>
<path d="M255.45 92.6191L227.63 97.9891L229.49 111.889L232.33 128.759L246.39 118.969L255.45 92.6191Z" fill="#8F8F8F"/>
<path d="M224.34 79.7891L232.04 100.699L255.45 92.6191L224.34 79.7891Z" fill="#DDDDDC"/>
<path d="M235.31 146.421L240.71 150.821L252.13 153.151L262.11 131.891L246.21 137.201L235.31 146.421Z" fill="#8F8F8F"/>
<path d="M246.39 118.971H227.63L235.31 146.421L262.11 131.891L246.39 118.971Z" fill="#C4C4C4"/>
<path d="M130.91 137.199L107.95 143.489L101.26 161.019L115.08 163.559L132.72 148.599L130.91 137.199Z" fill="#C4C4C4"/>
<path d="M127.94 121.18L96.0303 129.56L107.95 143.49L129.67 147.59L135.99 137.2L127.94 121.18Z" fill="#8F8F8F"/>
<path d="M128.03 98.2099L121.72 99.5699L116.91 93.4199L96.0303 129.56L128.66 125.05L128.03 98.2099Z" fill="#DDDDDC"/>
<path d="M146.08 152.34L101.26 161.02L110.89 168.15L149.35 161.86L146.08 152.34Z" fill="#8F8F8F"/>
<path d="M228.34 79.5195L228.4 79.7895L228.37 79.5195H228.34Z" fill="#8F8F8F"/>
<path d="M304.85 174.109L285.99 135.949L269.81 156.199L251.79 193.739L304.85 174.109Z" fill="#738D57"/>
<path d="M235.31 146.42L233 168.51L257.33 188.53L269.81 156.2L235.31 146.42Z" fill="#99C26D"/>
<path d="M239 198.069L273.42 203.339L294.39 188.529L300.13 171.179L257.33 188.529L239 169.099L209.66 138.779L239 198.069Z" fill="#5A753D"/>
<path d="M290.99 129.93L285.99 135.95L300.13 171.18L273.42 203.34L281.21 204.04L309.27 173.15L290.99 129.93Z" fill="#35785D"/>
<path d="M226.12 202.47L239 198.07L232.58 185L226.12 202.47Z" fill="#738D57"/>
<path d="M185.84 216.25L187.52 217.31L185.84 216.25Z" fill="#54B08B"/>
<path d="M185.84 216.25L137.11 185.34L185.84 216.25Z" fill="#54B08B"/>
<path d="M227.98 185.24L221.48 202.81L220.86 204.27L226.12 202.47L232.58 185L230.12 179.98L227.98 185.24Z" fill="#35785D"/>
<path d="M178.1 155.529L174.89 169.099L144.81 182.449L190.49 214.179L190.76 214.569L220.86 204.269L178.1 155.529Z" fill="#54B08B"/>
<path d="M136.69 180.06L144.81 182.45L180.37 169.1L129.67 147.59L115.08 163.56L136.69 180.06Z" fill="#72C9A6"/>
<path d="M207.97 134.86L207.91 134.74L207.7 134.88L207.97 134.86Z" fill="#35785D"/>
<path d="M187.53 209.581L115.08 163.561L110.89 168.151L185.84 216.251L213.45 252.051L228.5 204.281L187.53 209.581Z" fill="#35785D"/>
<path d="M178.1 155.529L161.47 144.169L130.91 137.199L129.67 147.589L180.37 169.099L178.1 155.529Z" fill="#35785D"/>
<path d="M237.29 131.249L220.66 34.1494L193.02 12.8594L175.48 27.6894L139.06 25.2994L132.72 31.0694L145.9 56.7994L168.54 150.099L201.85 140.909L237.29 131.249Z" fill="#DFBDA5"/>
<path d="M193.02 18.3995L220.66 34.1495L204.18 12.1595L190.62 8.18945L187.77 12.8595L193.02 18.3995Z" fill="#ECECEB"/>
<path d="M190.62 8.18976L162.75 0.00976562L163.41 20.7898L178.45 34.1498L193.02 18.3998L190.62 8.18976Z" fill="#DDDDDC"/>
<path d="M136.2 20.7898L136.5 24.0498L138.75 25.8998L178.4 34.1998L178.45 34.1498L162.75 0.00976562L136.2 20.7898Z" fill="#C4C4C4"/>
<path d="M174.15 49.5703L175.48 53.5703L161.12 64.0403L159.26 59.3603L174.15 49.5703Z" fill="#8F8F8F"/>
<path d="M195.15 46.0098L196.74 50.7898L211.71 53.1298L212.72 49.8898L195.15 46.0098Z" fill="#8F8F8F"/>
<path d="M161.12 64.0391L196.97 100.699L195.14 69.4691L181.95 56.7191L193.13 54.7591L198.89 70.8291L204.24 79.6991L211.71 53.1291L196.74 50.7891L193.13 54.7591L181.95 56.7191L175.48 53.5691L161.12 64.0391Z" fill="#C3987B"/>
<path d="M148.98 42.2208L139.06 25.3008L122.71 53.1308L130.92 62.6108L132.72 87.5608L125.31 79.2408L119.92 87.4108L110.89 90.7508L118.31 112.401L125.95 110.491L130.92 111.491L128.66 125.051L130.91 137.201L163.41 149.821L169.43 150.231L148.98 42.2208Z" fill="#C3987B"/>
<path d="M125.95 110.49L128.66 125.05L135.88 107.82L125.95 110.49Z" fill="#8B6651"/>
<path d="M185 145.561L163.41 149.821L179.82 156.201L185 145.561Z" fill="#8B6651"/>
<path d="M116.91 93.4209L129.67 101.961L126.31 90.3809L116.91 93.4209Z" fill="#8B6651"/>
<path d="M160 364.97L105.68 340.08L103.28 347.65L159.1 372.41L159.29 372.55L248.1 345.88L247.89 337.67L160 364.97Z" fill="#35785D"/>
<path d="M196.97 100.699L172.6 122.629L187.53 209.579L214.88 234.769L216.98 238.479L216.03 242.169L213.45 252.049L228.43 262.459L218.44 156.199L204.21 102.269L196.97 100.699Z" fill="#C4C4C4"/>
<path d="M231.3 232.261L244.09 198.561L229.49 111.891L208.34 98.2109L204.21 102.271L228.43 262.461L236.65 246.501L232.44 239.661L230.12 236.281L231.3 232.261Z" fill="#ECECEB"/>
<path d="M232.44 239.66L216.03 242.17L214.88 234.77L231.3 232.26L232.44 239.66Z" fill="#446125"/>
<path d="M215.27 114.87L192.56 118.75L191.54 114.14L214.25 110.27L215.27 114.87Z" fill="#8B6651"/>
<path d="M175.32 80.3198C177.662 80.3198 179.56 78.4215 179.56 76.0798C179.56 73.7382 177.662 71.8398 175.32 71.8398C172.978 71.8398 171.08 73.7382 171.08 76.0798C171.08 78.4215 172.978 80.3198 175.32 80.3198Z" fill="#2B2B2B"/>
<path d="M208.34 72.8296C210.681 72.8296 212.58 70.9313 212.58 68.5896C212.58 66.2479 210.681 64.3496 208.34 64.3496C205.998 64.3496 204.1 66.2479 204.1 68.5896C204.1 70.9313 205.998 72.8296 208.34 72.8296Z" fill="#2B2B2B"/>
<path d="M193.13 54.7598L201.28 66.3398L208.34 98.2098L196.97 100.7L190.81 69.2298L181.95 56.7198L193.13 54.7598Z" fill="#E8CAB6"/>
<path d="M106.37 44.4491L119.92 87.4091L124.25 85.8591L133.48 91.1991L136.14 57.3591L125.51 51.1291L139.06 25.2991L136.2 20.7891L106.37 44.4491Z" fill="#8F8F8F"/>
<path d="M208.34 98.2109L196.97 100.701L204.69 105.391L208.34 98.2109Z" fill="#8F8F8F"/>
</svg>
