<svg width="400" height="400" viewBox="0 0 400 400" fill="none" xmlns="http://www.w3.org/2000/svg">
<path d="M233.89 248.88L205.94 242.4L182.67 233.68L172.09 250.39L156.74 266.96L166.68 277.26L172.37 290.15L157.68 294.26L131.17 295.92L138.16 299.88L140.68 304.56L163.44 323.79L191.46 350.88L195.78 352.82L201.47 359.95L202.56 349.37L206.81 341.15L221.21 286.41L233.89 248.88Z" fill="#3F8F6F"/>
<path d="M275.67 200.041L257.95 207.891L232.23 212.501L229.35 198.671L230.94 184.341L218.91 186.431L208.46 184.701L200.32 184.911L190.6 183.191L175.11 179.731L157.53 168.631L151.2 185.631L135.35 214.591L140.75 225.181L147.23 252.701L150.98 225.401L157.68 208.321L162.58 204.941L171.37 204.511L177.92 215.671L179.43 225.041L182.17 228.781L182.67 233.681L205.72 238.941L233.89 248.881L256.15 227.771L281.29 208.611L277.04 204.871L275.67 200.041Z" fill="#709D53"/>
<path d="M264.29 22.12L258.38 21.18L254.78 17.51L236.92 10.59L220.06 0L193.77 11.1L170.57 16.43L166.54 32.35L157.53 51.08L155.88 56.41L152.92 60.59L152.56 84.36L148.89 128.37L142.12 140.61L130.67 154.59L145.36 160.13L157.53 168.63L172.81 177.28L190.6 183.19L202.84 185.56L208.46 184.7L223.09 186.07L230.94 184.34L238 182.18L246.28 184.05L238.07 171.73L230.14 154.23L237.56 137.73L248.15 122.39L264.36 114.68L283.74 108.2L269.55 71.39L259.68 31.7L260.47 26.08L264.29 22.12Z" fill="#DFBDA5"/>
<path opacity="0.1" d="M272.79 390.02L191.9 376.59L93.5703 386.89L169.71 400L272.79 390.02Z" fill="#2B2B2B"/>
<path d="M248.15 122.391L283.74 108.201L259.68 31.7007L250.31 26.9507L240.73 22.3407L226.18 16.7207L215.23 33.1407L213 31.9907L208.53 41.2107L229.64 128.941L248.15 122.391Z" fill="#DFBDA5"/>
<path d="M259.75 31.7L254.78 17.51L220.06 0L217.83 16.93L226.18 16.72L240.73 22.34L250.31 26.95L259.75 31.7Z" fill="#E8F078"/>
<path d="M220.06 0L170.57 16.43L157.53 51.08L152.92 60.59L166.83 55.76L180.66 51.15L194.49 46.25L208.61 41.35L215.23 33.14L226.18 16.72L220.06 0Z" fill="#D9E354"/>
<path d="M208.61 41.3496L194.85 46.1796L180.66 51.1496L166.83 55.7596L152.92 60.5896L148.89 128.37L204.07 50.8596L208.61 41.3496Z" fill="#B8C745"/>
<path d="M241.38 51.4395L248.59 71.0295L261.62 47.6895L241.38 51.4395Z" fill="#C3987B"/>
<path d="M236.56 52.3008L219.34 65.0508L233.96 66.9208L247.36 82.6308L236.56 52.3008Z" fill="#C3987B"/>
<path d="M208.61 41.3496L229.64 128.94L226.62 132.19L218.62 133.27L213 126.28L209.04 116.27L206.66 89.8996L208.61 41.3496Z" fill="#C3987B"/>
<path d="M252.33 81.1094L251.11 86.3694L247.36 82.6294L252.33 81.1094Z" fill="#8B6651"/>
<path d="M236.56 52.3008L220.42 59.4308L219.34 65.0508L236.56 52.3008Z" fill="#B8C745"/>
<path d="M241.38 51.4402L260.04 44.6602L261.62 47.6902L241.38 51.4402Z" fill="#B8C745"/>
<path d="M218.62 133.271L230.14 154.231L248.15 122.391L229.64 128.941L218.62 133.271Z" fill="#8B6651"/>
<path d="M236.56 52.2995L247.36 82.6295L252.33 81.1095L241.38 51.4395L236.56 52.2995Z" fill="#E8CAB6"/>
<path d="M204.07 50.8609L190.6 183.191L208.46 184.701L209.04 116.271L208.53 41.2109L204.07 50.8609Z" fill="#E8F078"/>
<path d="M201.62 74.2694L157.53 168.629L130.67 154.589L148.89 128.369L204.07 50.8594L201.62 74.2694Z" fill="#D9E354"/>
<path d="M209.04 116.27L230.14 154.23L246.28 184.05L208.46 184.7L209.04 116.27Z" fill="#D9E354"/>
<path d="M201.62 74.2695L157.53 168.63L190.6 183.19L194.34 145.94L200.75 117.56L201.62 74.2695Z" fill="#B8C745"/>
<path d="M268.83 89.5391L254.2 99.6991L235.19 100.199L255.72 105.319L268.83 89.5391Z" fill="#99C26D"/>
<path d="M268.83 89.5391L262.85 91.6991L254.56 93.0691L249.23 94.8691L242.97 98.4691L235.19 100.199L254.2 99.6991L268.83 89.5391Z" fill="#5A753D"/>
<path d="M264.29 22.1198L254.78 17.5098L250.1 27.0198L259.75 31.6998L264.29 22.1198Z" fill="#35785D"/>
<path d="M250.31 26.9498L240.73 22.3398L236.12 31.8398L245.78 36.5298L250.31 26.9498Z" fill="#54B08B"/>
<path d="M236.48 31.6995L226.83 27.0195L222.29 36.5995L231.8 41.2095L236.48 31.6995Z" fill="#35785D"/>
<path d="M222.51 36.6002L213 31.9902L208.32 41.5702L217.9 46.1802L222.51 36.6002Z" fill="#54B08B"/>
<path d="M208.61 41.3499L199.03 36.6699L194.49 46.2499L204.07 50.8599L208.61 41.3499Z" fill="#35785D"/>
<path d="M194.85 46.18L185.34 41.5L180.66 51.15L190.31 55.69L194.85 46.18Z" fill="#54B08B"/>
<path d="M181.02 50.86L171.37 46.25L166.83 55.76L176.41 60.44L181.02 50.86Z" fill="#35785D"/>
<path d="M167.12 55.6901L157.53 51.0801L152.92 60.5901L162.43 65.2701L167.12 55.6901Z" fill="#54B08B"/>
<path d="M208.68 69.4395L201.62 74.2694L199.96 91.1294L208.82 85.1495L208.68 69.4395Z" fill="#5A753D"/>
<path d="M208.82 85.1504L199.96 91.1304L198.74 103.37L208.89 97.7504L208.82 85.1504Z" fill="#99C26D"/>
<path d="M208.89 97.75L198.74 103.37L197.3 116.99L208.97 110.5L208.89 97.75Z" fill="#5A753D"/>
<path d="M208.97 110.5L197.3 116.99L195.78 132.04L208.97 124.48V110.5Z" fill="#99C26D"/>
<path d="M208.97 124.48L195.78 132.04L194.34 145.94L208.89 137.88L208.97 124.48Z" fill="#5A753D"/>
<path d="M230.94 184.339L233.89 248.879L190.6 183.189L208.46 184.699L230.94 184.339Z" fill="#738D57"/>
<path d="M232.23 212.499L275.67 200.039L279.77 203.789L281.29 208.609L233.89 248.879L232.23 212.499Z" fill="#99C26D"/>
<path d="M275.67 200.041L282.51 192.981L291.23 199.471L300.74 184.051H303.33L298.86 204.651L281.29 208.611L275.67 200.041Z" fill="#DFBDA5"/>
<path d="M279.05 196.441L298.86 204.651L302.68 195.361L303.33 184.051H300.74L294.47 191.901L291.23 199.471L287.12 194.571L282.51 192.981L279.05 196.441Z" fill="#8B6651"/>
<path d="M157.53 168.631L179.43 225.041L192.76 229.141L219.92 227.771L190.6 183.191L157.53 168.631Z" fill="#5A753D"/>
<path d="M219.92 227.769L179.43 225.039L182.67 233.679L201.84 247.439L233.89 248.879L219.92 227.769Z" fill="#99C26D"/>
<path d="M157.53 168.631L135.35 214.591L171.37 204.511L157.53 168.631Z" fill="#738D57"/>
<path d="M157.68 208.32L147.23 252.7L139.5 240.66L140.32 230.52L135.35 214.59L157.68 208.32Z" fill="#99C26D"/>
<path d="M147.23 252.7L138.2 253.63L127.46 250.55L140.33 230.51L147.23 252.7Z" fill="#DFBDA5"/>
<path d="M182.67 233.68L156.74 266.96L190.74 272.65L233.89 248.88L182.67 233.68Z" fill="#54B08B"/>
<path d="M156.74 266.961L172.37 290.151L164.16 314.361L206.81 341.151L233.89 248.881L156.74 266.961Z" fill="#3F8F6F"/>
<path d="M172.37 290.15L131.17 295.92L135.42 301.97L140.68 304.56L192.11 351.38L194.49 354.33L201.47 359.95L206.81 341.15L172.37 290.15Z" fill="#35785D"/>
<path d="M131.17 295.92L117.99 291.16L110.86 330.42L140.68 304.56L131.17 295.92Z" fill="#DFBDA5"/>
<path d="M119.36 323.07L122.24 339.71L110.86 330.42L119.36 323.07Z" fill="#C3987B"/>
<path d="M192.11 351.381L176.98 362.621L191.9 391.871L201.47 359.951L192.11 351.381Z" fill="#DFBDA5"/>
<path d="M191.9 391.87L208.89 391.5L194.85 381.92L191.9 391.87Z" fill="#C3987B"/>
<path d="M131.17 295.92L134.27 310.18L140.68 304.56L131.17 295.92Z" fill="#8B6651"/>
<path d="M201.47 359.951L188.44 354.191L191.46 350.881L201.47 359.951Z" fill="#8B6651"/>
<path d="M138.2 253.63L119.31 237.99L116.14 250.37L124.49 255.12L138.2 253.63Z" fill="#C3987B"/>
<path d="M336.14 29.4305L320.8 2.06055L314.03 27.3405L336.14 29.4305Z" fill="#3F8F6F"/>
<path d="M314.03 27.3403L289.39 21.0703L304.3 47.5803L314.03 27.3403Z" fill="#54B08B"/>
<path d="M335.78 39.2298L314.03 27.3398L316.98 35.3398L322.09 40.7398L335.78 39.2298Z" fill="#738D57"/>
<path d="M314.03 27.3398L313.38 51.9798L322.09 40.7398L314.03 27.3398Z" fill="#99C26D"/>
<path d="M99.7998 31.9107L115.07 4.4707L121.92 29.7507L99.7998 31.9107Z" fill="#3F8F6F"/>
<path d="M121.92 29.7502L146.55 23.4902L131.57 49.9902L121.92 29.7502Z" fill="#54B08B"/>
<path d="M100.16 41.57L121.92 29.75L117.81 39.05L113.78 43.15L100.16 41.57Z" fill="#738D57"/>
<path d="M121.92 29.75L122.56 54.39L113.78 43.15L121.92 29.75Z" fill="#99C26D"/>
<path d="M98.0404 183.829L92.9904 152.789L77.9404 174.249L98.0404 183.829Z" fill="#3F8F6F"/>
<path d="M77.9405 174.25L56.9805 159.85L61.9505 189.96L77.9405 174.25Z" fill="#54B08B"/>
<path d="M94.3604 192.76L77.9404 174.25L78.5904 183.04L80.9604 189.6L94.3604 192.76Z" fill="#738D57"/>
<path d="M77.9404 174.25L68.9404 197.09L80.9604 189.6L77.9404 174.25Z" fill="#99C26D"/>
<path d="M312.41 184.05H297.13V168.85H312.41V184.05Z" fill="#5A753D"/>
<path d="M306.86 204.939L307.15 223.519H303.4L303.69 204.939H306.86Z" fill="#738D57"/>
<path d="M304.84 168.849L306.36 150.699L285.18 156.389L297.13 168.849H304.84Z" fill="#B8C745"/>
<path d="M297.13 172.16L277.18 163.01L270.05 181.02L297.13 177.85V172.16Z" fill="#B8C745"/>
<path d="M297.13 181.02L273.87 186.35L291.23 199.47L300.74 184.05H297.13V181.02Z" fill="#B8C745"/>
<path d="M303.33 184.051L298.86 204.651L317.16 204.941L308.73 184.051H303.33Z" fill="#B8C745"/>
<path d="M312.41 184.05L326.45 202.63L338.19 191.25L312.41 179.73V184.05Z" fill="#B8C745"/>
<path d="M312.41 177.28L339.63 183.76L342.37 168.42L312.41 173.75V177.28Z" fill="#B8C745"/>
<path d="M312.41 171.231L335.6 159.051L319.83 149.471L307.22 168.851H312.41V171.231Z" fill="#B8C745"/>
<path d="M304.84 168.85L297.13 176.49L304.84 184.05L312.41 176.49L304.84 168.85Z" fill="#D9E354"/>
<path d="M256.8 56.6204C255.739 56.6204 254.722 57.0418 253.971 57.792C253.221 58.5421 252.8 59.5595 252.8 60.6204C252.8 61.1457 252.903 61.6658 253.104 62.1511C253.305 62.6364 253.6 63.0774 253.971 63.4488C254.343 63.8203 254.784 64.1149 255.269 64.3159C255.754 64.5169 256.275 64.6204 256.8 64.6204C257.871 64.6233 258.9 64.2059 259.667 63.458C260.434 62.71 260.876 61.6912 260.9 60.6204C260.9 60.0866 260.793 59.5581 260.586 59.0662C260.379 58.5743 260.075 58.1288 259.693 57.756C259.311 57.3832 258.858 57.0907 258.361 56.8957C257.864 56.7007 257.333 56.607 256.8 56.6204Z" fill="#2B2B2B"/>
<path d="M230.29 66.1992C229.204 66.2122 228.166 66.6494 227.398 67.4174C226.63 68.1853 226.193 69.2232 226.18 70.3092C226.203 71.3818 226.647 72.4021 227.416 73.1503C228.185 73.8985 229.217 74.3147 230.29 74.3092C231.351 74.3092 232.368 73.8878 233.118 73.1376C233.868 72.3875 234.29 71.3701 234.29 70.3092C234.295 69.2364 233.879 68.2045 233.131 67.4357C232.383 66.6669 231.362 66.2228 230.29 66.1992Z" fill="#2B2B2B"/>
</svg>
