<svg width="400" height="400" viewBox="0 0 400 400" fill="none" xmlns="http://www.w3.org/2000/svg">
<path opacity="0.1" fill-rule="evenodd" clip-rule="evenodd" d="M364.98 380.28L324.44 363.91L149.54 359.68L38 383.94L137.87 400L364.98 380.28Z" fill="black"/>
<path fill-rule="evenodd" clip-rule="evenodd" d="M283.03 348.79L285.21 371.26L300.64 371.2L301.25 350.55L283.03 348.79Z" fill="#4F5253"/>
<path fill-rule="evenodd" clip-rule="evenodd" d="M177.29 348.79L179.47 371.26L194.9 371.2L198.93 350.55L177.29 348.79Z" fill="#4F5253"/>
<path fill-rule="evenodd" clip-rule="evenodd" d="M181.21 378.27L184.15 346.76L154.73 350.17L156.48 379.78L181.21 378.27Z" fill="#858686"/>
<path fill-rule="evenodd" clip-rule="evenodd" d="M86.4398 258.35L96.7698 186.96L73.7598 173.55L54.5898 225.02L86.4398 258.35Z" fill="#734D60"/>
<path fill-rule="evenodd" clip-rule="evenodd" d="M54.5898 225.02L89.3798 223.96L92.8298 244.66L86.0798 266.71L54.5898 225.02Z" fill="#543042"/>
<path fill-rule="evenodd" clip-rule="evenodd" d="M202.17 185.5L216.11 230.92L213.27 248.78L193.49 266.03L177.95 215.95L182.68 171.96L202.17 185.5Z" fill="#734D60"/>
<path fill-rule="evenodd" clip-rule="evenodd" d="M202.74 209.24L193.49 266.03L232.03 250.7L220.58 211.07L213.1 205.83L202.74 209.24Z" fill="#96637C"/>
<path fill-rule="evenodd" clip-rule="evenodd" d="M145.48 195.7L164.92 167.66L187.49 174.85L193.49 266.03L137.86 272.37L86.0801 266.71L92.4101 188.43L104.33 178.98L110.09 163.02L145.48 195.7Z" fill="#96637C"/>
<path fill-rule="evenodd" clip-rule="evenodd" d="M167.07 185.45L202.74 187.34L199.36 175.88L166.7 171.56L167.07 185.45Z" fill="#594165"/>
<path fill-rule="evenodd" clip-rule="evenodd" d="M323.59 379.78L324.44 350.74L297.2 346.76L297.72 379.78H323.59Z" fill="#858686"/>
<path fill-rule="evenodd" clip-rule="evenodd" d="M324.44 354.15L324.72 339.65L245.76 307.3L155.68 333.05L156.37 354.15H324.44Z" fill="#858686"/>
<path fill-rule="evenodd" clip-rule="evenodd" d="M316.76 339.65L161.55 334.81L247.64 315.61L316.76 339.65Z" fill="#C4C4C4"/>
<path opacity="0.1" fill-rule="evenodd" clip-rule="evenodd" d="M249.52 331.92L157.27 359.99L162.78 349.23L206.58 333.76L249.52 331.92Z" fill="black"/>
<path opacity="0.1" fill-rule="evenodd" clip-rule="evenodd" d="M249.52 323.93V331.92L324.38 352.69L324.72 339.65L249.52 323.93Z" fill="#2B2B2B"/>
<path fill-rule="evenodd" clip-rule="evenodd" d="M162.78 349.23L249.52 331.92L253.88 321.78L248.13 311.35L165.52 320.65L162.78 349.23Z" fill="#CECECD"/>
<path fill-rule="evenodd" clip-rule="evenodd" d="M247.64 315.61L165.52 320.65L170.63 281.05L194.61 287.06L244.08 299.52L248.13 308.27L247.64 315.61Z" fill="#9DA1A2"/>
<path fill-rule="evenodd" clip-rule="evenodd" d="M244.08 299.52L247.64 315.61L280.08 319.18L317.46 310.06L328.54 281.05L244.08 299.52Z" fill="#C4C4C4"/>
<path fill-rule="evenodd" clip-rule="evenodd" d="M247.64 315.61L249.52 331.92L347.06 342.56L317.46 310.06L247.64 315.61Z" fill="#ECECEB"/>
<path opacity="0.1" fill-rule="evenodd" clip-rule="evenodd" d="M317.46 310.06L304.3 319.83L284.75 312.66L317.46 310.06Z" fill="black"/>
<path fill-rule="evenodd" clip-rule="evenodd" d="M300.01 280.85L280.08 291.65L301.72 302.45L300.01 280.85Z" fill="#9075A0"/>
<path d="M304.3 280.85H300.01V315.71H304.3V280.85Z" fill="#785D88"/>
<path opacity="0.1" fill-rule="evenodd" clip-rule="evenodd" d="M275.49 319.18L260.53 326.79L248.13 319.83L275.49 319.18Z" fill="black"/>
<path fill-rule="evenodd" clip-rule="evenodd" d="M260.53 287.81L244.08 299.52L262.24 309.41L260.53 287.81Z" fill="#9075A0"/>
<path d="M264.82 287.81H260.53V322.67H264.82V287.81Z" fill="#785D88"/>
<path opacity="0.1" fill-rule="evenodd" clip-rule="evenodd" d="M237.15 309.59L222.09 314.76L205.08 301.74L237.15 309.59Z" fill="black"/>
<path fill-rule="evenodd" clip-rule="evenodd" d="M222.35 275.78L203.99 289.44L224.06 297.38L222.35 275.78Z" fill="#9075A0"/>
<path d="M226.64 275.78H222.35V310.64H226.64V275.78Z" fill="#785D88"/>
<path fill-rule="evenodd" clip-rule="evenodd" d="M194.61 287.06L137.87 309.37V341.59L151.88 348.48L171.64 331.92L194.61 287.06Z" fill="#734D60"/>
<path fill-rule="evenodd" clip-rule="evenodd" d="M171.64 331.92L137.87 341.59L133.85 365.05H146.31L157.27 359.99L171.64 331.92Z" fill="#543042"/>
<path fill-rule="evenodd" clip-rule="evenodd" d="M137.87 341.59L142.45 314.87L123.55 297.94L85.4399 281.05L96.3499 336.25L118.15 350.17L137.87 341.59Z" fill="#96637C"/>
<path fill-rule="evenodd" clip-rule="evenodd" d="M194.61 287.06L142.45 314.87L85.4399 281.05L146.31 281.02L194.61 287.06Z" fill="#543042"/>
<path fill-rule="evenodd" clip-rule="evenodd" d="M96.3501 336.25L137.87 341.59L133.85 365.05L118.15 369.13L102.61 367.93L96.3501 336.25Z" fill="#734D60"/>
<path fill-rule="evenodd" clip-rule="evenodd" d="M132.93 378.27L152.75 380.06L181.21 378.27L157.27 359.99L133.85 365.05L132.93 378.27Z" fill="#785D88"/>
<path d="M181.21 378.27H132.93V385.07H181.21V378.27Z" fill="#594165"/>
<path fill-rule="evenodd" clip-rule="evenodd" d="M133.85 365.05L143.04 385.08L121.33 387.16L99.6201 385.08L102.61 367.93L133.85 365.05Z" fill="#9075A0"/>
<path d="M143.03 385.08H99.6201V391.88H143.03V385.08Z" fill="#594165"/>
<path fill-rule="evenodd" clip-rule="evenodd" d="M167.9 236.65L174.02 266.15L112.06 266.54L117.49 244.66L129.7 210.37L145.48 195.7L159.16 210.37L167.9 236.65Z" fill="#734D60"/>
<path fill-rule="evenodd" clip-rule="evenodd" d="M125.49 177.24L83.1098 191.58L73.7598 173.55L113.5 161.89L125.49 177.24Z" fill="#594165"/>
<path fill-rule="evenodd" clip-rule="evenodd" d="M113.5 161.89L117.49 244.66L145.48 195.7L113.5 161.89Z" fill="#B3889D"/>
<path fill-rule="evenodd" clip-rule="evenodd" d="M145.48 195.7L167.9 236.65L166.7 171.56L145.48 195.7Z" fill="#B3889D"/>
<path fill-rule="evenodd" clip-rule="evenodd" d="M147.87 219.95L151.88 227.29L144.53 232.3L139.19 224.62L147.87 219.95Z" fill="#B3889D"/>
<path fill-rule="evenodd" clip-rule="evenodd" d="M147.54 242.65L140.19 247.32L145.87 254.67L152.21 249.99L147.54 242.65Z" fill="#B3889D"/>
<path fill-rule="evenodd" clip-rule="evenodd" d="M86.0799 266.71L131.06 266.42L146.2 270.22L161.55 266.23L193.49 266.03L194.61 287.06L160.51 285.18L149.11 282.93L131.17 283.57L85.4399 281.05L86.0799 266.71Z" fill="#594165"/>
<path fill-rule="evenodd" clip-rule="evenodd" d="M161.55 266.23L131.06 266.42L131.17 283.57L160.51 285.18L161.51 266.23H161.55ZM153.88 279.05H137.52L137.86 272.37L154.21 271.7L153.88 279.05Z" fill="#B3889D"/>
<path opacity="0.1" fill-rule="evenodd" clip-rule="evenodd" d="M145.48 195.7L188.66 175.21L166.7 171.56L145.48 195.7Z" fill="black"/>
<path fill-rule="evenodd" clip-rule="evenodd" d="M99 113.43L109.99 110.48L127.79 123.97L116.48 134.62L87.48 137.47L99 113.43Z" fill="#594165"/>
<path fill-rule="evenodd" clip-rule="evenodd" d="M237.15 72.5698L231.66 98.6998L206.71 178.68L166.7 171.56L145.48 195.7L121.13 155.75L131.66 112.43L138.73 109.46L142.79 88.9698L141.3 58.0998L175.95 40.5898L208.74 59.5498L215.57 41.8698L237.15 72.5698Z" fill="#DFBDA5"/>
<path fill-rule="evenodd" clip-rule="evenodd" d="M142.56 58.5996L162.52 96.6796L157.89 173.23L145.48 195.7L113.5 161.89L116.48 134.62L119.15 128.75L119.12 122.89L107.64 121.35L107.82 94.4796L125.2 94.4096L131.66 109.92L137.22 110.46L141.79 89.2196L142.56 58.5996Z" fill="#C3987B"/>
<path fill-rule="evenodd" clip-rule="evenodd" d="M221.07 107.22L162.52 96.6797L177.95 112.75L185.99 139.76L221.07 107.22Z" fill="#C3987B"/>
<path fill-rule="evenodd" clip-rule="evenodd" d="M159.16 152.25L187.89 161.9L208.49 159.69L189.15 149.6L159.16 152.25Z" fill="#8B6651"/>
<path fill-rule="evenodd" clip-rule="evenodd" d="M159.16 152.25L185.99 139.76L197.88 142.01L208.49 159.69L159.16 152.25Z" fill="#785D88"/>
<path fill-rule="evenodd" clip-rule="evenodd" d="M194.61 102.46L185.99 139.76L197.88 142.01L203.99 104.15L194.61 102.46Z" fill="#E8CAB6"/>
<path fill-rule="evenodd" clip-rule="evenodd" d="M162.52 96.6803L221.07 107.22L222.94 99.6403L166.43 92.8203L162.52 96.6803Z" fill="#785D88"/>
<path fill-rule="evenodd" clip-rule="evenodd" d="M197.89 141.95L190.84 145.55L185.99 139.76L197.89 141.95Z" fill="#594165"/>
<path fill-rule="evenodd" clip-rule="evenodd" d="M112.52 100.16L121.28 100.41L123.42 117.73L112.52 100.16Z" fill="#8B6651"/>
<path fill-rule="evenodd" clip-rule="evenodd" d="M166.7 171.56L138.52 166.52L145.48 195.7L166.7 171.56Z" fill="#8B6651"/>
<path fill-rule="evenodd" clip-rule="evenodd" d="M119.12 122.89L126.68 123.97L116.48 134.62L119.12 122.89Z" fill="#8B6651"/>
<path fill-rule="evenodd" clip-rule="evenodd" d="M235.14 72.3201L242 61.1701L256.5 51.5801L231.66 98.7001L235.14 72.3201Z" fill="#A688BA"/>
<path fill-rule="evenodd" clip-rule="evenodd" d="M142.56 58.5996L122.28 46.7096L89.23 36.5596L95.45 85.4596L123.61 89.5496L146.81 89.2196L142.56 58.5996Z" fill="#9075A0"/>
<path fill-rule="evenodd" clip-rule="evenodd" d="M235.14 72.3201L215.68 48.3901L204.02 37.4201L192.08 19.3701L256.5 51.5801L235.14 72.3201Z" fill="#785D88"/>
<path fill-rule="evenodd" clip-rule="evenodd" d="M142.56 58.5997L177.95 45.8497L157.57 28.5697L131.02 18.2197L89.23 36.5597L142.56 58.5997Z" fill="#785D88"/>
<path fill-rule="evenodd" clip-rule="evenodd" d="M192.08 19.37L153.34 0L131.02 18.22L177.95 45.85L211.25 65.07L215.68 48.39L192.08 19.37Z" fill="#9075A0"/>
<path fill-rule="evenodd" clip-rule="evenodd" d="M146.81 89.22L95.4502 85.46L99.0002 113.43L107.64 121.35L108.95 95.61L125.2 96.68L129.38 113.94L139.23 112.47L146.81 89.22Z" fill="#785D88"/>
<path d="M210.47 124.69C213.005 124.69 215.06 122.635 215.06 120.1C215.06 117.565 213.005 115.51 210.47 115.51C207.935 115.51 205.88 117.565 205.88 120.1C205.88 122.635 207.935 124.69 210.47 124.69Z" fill="#2B2B2B"/>
<path d="M178.14 118.48C180.675 118.48 182.73 116.425 182.73 113.89C182.73 111.355 180.675 109.3 178.14 109.3C175.605 109.3 173.55 111.355 173.55 113.89C173.55 116.425 175.605 118.48 178.14 118.48Z" fill="#2B2B2B"/>
<path fill-rule="evenodd" clip-rule="evenodd" d="M195.89 201.7L202.74 209.24L209.29 210.12L216.11 188.54L196 191.58L195.89 201.7Z" fill="#8B6651"/>
<path fill-rule="evenodd" clip-rule="evenodd" d="M232.71 187.03L220.58 211.07L202.74 209.24L216.11 188.54L220.58 183.63L232.71 187.03Z" fill="#C3987B"/>
<path fill-rule="evenodd" clip-rule="evenodd" d="M193.49 176.33L209.87 168.55L232.71 187.03L216.11 188.54L202.17 185.5L193.49 176.33Z" fill="#E8CAB6"/>
<path fill-rule="evenodd" clip-rule="evenodd" d="M216.11 188.54L202.74 195.93L188.26 186.57L193.49 176.33L216.11 188.54Z" fill="#DFBDA5"/>
</svg>
