<svg width="400" height="400" viewBox="0 0 400 400" fill="none" xmlns="http://www.w3.org/2000/svg">
<path opacity="0.1" d="M115.67 392.311L228.3 400.001L330.72 388.351L230.46 378.711L115.67 392.311Z" fill="#2B2B2B"/>
<path fill-rule="evenodd" clip-rule="evenodd" d="M190.39 393.371L195.96 384.311L189.98 369.131L184.74 376.891L186.55 393.371H190.39Z" fill="#594165"/>
<path fill-rule="evenodd" clip-rule="evenodd" d="M259.69 385.389L262.81 373.409L258.6 365.559L253.57 361.039L250.81 370.359L255.19 385.389H259.69Z" fill="#594165"/>
<path fill-rule="evenodd" clip-rule="evenodd" d="M239.44 261.931L297.58 320.881L252.97 235.561L242.96 242.601L239.44 261.931Z" fill="#ECECEB"/>
<path fill-rule="evenodd" clip-rule="evenodd" d="M242.96 258.211L297.58 320.881L264.91 351.401L248.01 304.811L242.96 258.211Z" fill="#C4C4C4"/>
<path fill-rule="evenodd" clip-rule="evenodd" d="M146.38 350.39L264.91 351.4L254.61 325.19L170.94 319.48L146.38 350.39Z" fill="#8F8F8F"/>
<path fill-rule="evenodd" clip-rule="evenodd" d="M204.01 368.029L205.44 330.359H177.02L189.98 369.129L199.71 377.869L204.01 368.029Z" fill="#C3987B"/>
<path fill-rule="evenodd" clip-rule="evenodd" d="M266.42 358.029L259.89 330.359H233.05L253.57 361.039L263.37 372.919L266.42 358.029Z" fill="#C3987B"/>
<path fill-rule="evenodd" clip-rule="evenodd" d="M259.89 330.36L239.44 324.92L233.05 330.36L238.42 338.38L259.89 330.36Z" fill="#8B6651"/>
<path fill-rule="evenodd" clip-rule="evenodd" d="M204.21 362.731L186.58 358.971L188.71 365.331L204.21 362.731Z" fill="#8B6651"/>
<path fill-rule="evenodd" clip-rule="evenodd" d="M253.57 361.039L266.42 358.029L294.51 385.389H268.08L253.57 361.039Z" fill="#785D88"/>
<path fill-rule="evenodd" clip-rule="evenodd" d="M189.98 369.129L204.01 368.029L217.51 393.369H190.39L189.98 369.129Z" fill="#785D88"/>
<path d="M222.54 192.42L242.96 258.21L252.97 235.56L256.34 183.18L222.54 192.42Z" fill="#8F8F8F"/>
<path fill-rule="evenodd" clip-rule="evenodd" d="M113 43.0703L98.7699 79.2503L68.6299 119.3L78.6499 51.9603L113 43.0703Z" fill="#B3889D"/>
<path fill-rule="evenodd" clip-rule="evenodd" d="M103.33 193.709L71.5 171.529L101.22 162.609L112.39 166.679L103.33 193.709Z" fill="#96637C"/>
<path fill-rule="evenodd" clip-rule="evenodd" d="M113 43.0703L68.6299 119.3L110.96 106.3L113 43.0703Z" fill="#96637C"/>
<path fill-rule="evenodd" clip-rule="evenodd" d="M153.28 139.659L103.33 193.709L98.7695 120.439L153.28 139.659Z" fill="#543042"/>
<path fill-rule="evenodd" clip-rule="evenodd" d="M68.6299 119.3L98.7699 103.83L121.51 111.88L142.53 124.35L153.28 139.66L68.6299 119.3Z" fill="#734D60"/>
<path fill-rule="evenodd" clip-rule="evenodd" d="M98.7695 103.83L139.47 125.37L122.13 98.4004L98.7695 103.83Z" fill="#543042"/>
<path fill-rule="evenodd" clip-rule="evenodd" d="M177.02 250.59L220.33 247.52L240.77 265.75L259.89 330.36H205.44L177.02 250.59Z" fill="#785D88"/>
<path fill-rule="evenodd" clip-rule="evenodd" d="M208.37 146.63L228.3 196.95L256.34 183.18L256.8 176.02L228.3 143.41L208.37 146.63Z" fill="#DDDDDC"/>
<path fill-rule="evenodd" clip-rule="evenodd" d="M211.01 22.3602L218.24 27.4802L248.01 110.37L215.3 124.67L202.42 165.45L170.94 148.25L130.95 100.2L119.43 33.5002L186.22 3.24023L211.01 22.3602Z" fill="#DFBDA5"/>
<path fill-rule="evenodd" clip-rule="evenodd" d="M202.42 165.451L208.09 154.641H205.83L190.21 139.831L156.99 56.3407L144.83 45.9707L119.43 104.631L139.47 125.371L144.99 128.401L153.28 139.661L170.94 157.941L185 165.451H202.42Z" fill="#C3987B"/>
<path fill-rule="evenodd" clip-rule="evenodd" d="M177.02 141.48L205.83 154.64L212.97 141.38L215.3 124.67L177.02 141.48Z" fill="#8B6651"/>
<path fill-rule="evenodd" clip-rule="evenodd" d="M144.83 45.97L181.16 33.01L192.69 20.23L186.77 0L115.67 31.66L128.29 50.57L144.83 45.97Z" fill="#B3889D"/>
<path fill-rule="evenodd" clip-rule="evenodd" d="M139.47 125.371L145.39 117.141L153.28 139.661L139.47 125.371Z" fill="#8B6651"/>
<path fill-rule="evenodd" clip-rule="evenodd" d="M139.47 125.37L149.03 112.06L126.97 87.2305L119.43 104.63L139.47 125.37Z" fill="#DFBDA5"/>
<path fill-rule="evenodd" clip-rule="evenodd" d="M129.37 96.4395L138.02 107.019L123.78 104.309L129.37 96.4395Z" fill="#8B6651"/>
<path fill-rule="evenodd" clip-rule="evenodd" d="M154.47 117.531L150.13 121.891L140.9 112.641L145.47 108.051L154.47 117.531Z" fill="white"/>
<path d="M218.78 85.7598L215.39 92.3898L207.16 89.9698L218.78 85.7598Z" fill="#8B6651"/>
<path d="M166.22 60.5902L172.28 59.4702L176.28 54.5002H185L173.33 51.7402L166.22 60.5902Z" fill="#734D60"/>
<path d="M204.86 48.8305L209.53 47.2705L212.65 39.9105H219.39L210.36 37.3105L204.86 48.8305Z" fill="#734D60"/>
<path d="M189.51 108.66L201.53 105.44L212.13 108.66L205.83 101.82L201.8 103.02L199.65 101.01L189.51 108.66Z" fill="#594165"/>
<path d="M190.15 108.489L196.7 110.799L208.37 107.519L201.53 105.439L190.15 108.489Z" fill="#9075A0"/>
<path d="M227.94 70.9609L216.17 79.2509L212.84 73.6809L227.94 70.9609Z" fill="#C3987B"/>
<path d="M175.61 89.9704L205.24 85.1604L205.09 76.9004L175.61 89.9704Z" fill="#C3987B"/>
<path d="M168.7 70.9302L193.63 70.7302L190.56 62.9902L168.7 70.9302Z" fill="#C3987B"/>
<path d="M222.16 51.5391L215.3 62.4991L212.13 55.0891L222.16 51.5391Z" fill="#C3987B"/>
<path fill-rule="evenodd" clip-rule="evenodd" d="M186.77 0L181.16 33.01L211.01 22.36L186.77 0Z" fill="#96637C"/>
<path fill-rule="evenodd" clip-rule="evenodd" d="M126.97 87.2302L145.47 108.05L153.24 96.5802L133.61 71.8802L144.83 45.9702L115.67 31.6602L98.7695 103.83L112.99 104.38L119.43 104.63L126.97 87.2302Z" fill="#734D60"/>
<path fill-rule="evenodd" clip-rule="evenodd" d="M178.69 183.77L175.56 198.43L200.82 210.66L209.81 206.17L192.85 185.12L178.69 183.77Z" fill="#ECECEB"/>
<path fill-rule="evenodd" clip-rule="evenodd" d="M207.25 150.23L234.37 193.97L245.07 162.61L207.25 150.23Z" fill="#ECECEB"/>
<path fill-rule="evenodd" clip-rule="evenodd" d="M228.3 143.409L264.03 118.949L296.67 124.539L256.8 176.019L228.3 143.409Z" fill="#C4C4C4"/>
<path fill-rule="evenodd" clip-rule="evenodd" d="M296.67 124.541L300.1 79.4009L287.49 70.2109L264.03 118.951L296.67 124.541Z" fill="#9DA1A2"/>
<path fill-rule="evenodd" clip-rule="evenodd" d="M284.79 39.8792L274.37 12.4492L264.13 15.2692L269.35 42.9192L258.61 81.8392L267.47 89.1692L288.42 83.3992L309.37 77.6292L313.22 66.7892L284.79 39.8792Z" fill="#ECECEB"/>
<path d="M309.48 67.6906L294.11 53.1406L267.75 60.8306L262.27 80.6906L268.23 85.6306L306.89 74.9706L309.48 67.6906Z" fill="#785D88"/>
<path fill-rule="evenodd" clip-rule="evenodd" d="M282.57 42.2598L289.16 27.0098L303.92 49.3798L302.35 56.4998L294.09 53.2398L282.57 42.2598Z" fill="#DFBDA5"/>
<path fill-rule="evenodd" clip-rule="evenodd" d="M272.49 39.6998L283.3 56.2998L294.09 53.2398L289.16 27.0098L272.49 39.6998Z" fill="#C3987B"/>
<path d="M270.827 75.963L269.109 79.6641L272.81 81.3812L274.528 77.6802L270.827 75.963Z" fill="#A688BA"/>
<path d="M269.829 71.2166L269.087 72.8125L270.683 73.5546L271.425 71.9587L269.829 71.2166Z" fill="#A688BA"/>
<path d="M276.539 75.9548L275.797 77.5508L277.393 78.2926L278.135 76.6966L276.539 75.9548Z" fill="#A688BA"/>
<path d="M276.531 70.7848L275.789 72.3809L277.385 73.1227L278.127 71.5267L276.531 70.7848Z" fill="#A688BA"/>
<path fill-rule="evenodd" clip-rule="evenodd" d="M208.09 254.181L259.89 330.101L242.96 258.211L226.16 252.721L208.09 254.181Z" fill="#9075A0"/>
<path fill-rule="evenodd" clip-rule="evenodd" d="M233.18 217.35L228.31 196.98L204.21 205.05L208.1 253.91L208.37 254.21L242.96 258.21L233.18 217.35Z" fill="#594165"/>
<path d="M126.97 87.2291L122.98 96.4391L119.43 84.5091L161.63 67.7891L166.22 79.0991L126.97 87.2291Z" fill="#594165"/>
<path d="M218.78 85.7609L207.16 89.9709L193.63 56.1609L205.24 51.9609L218.78 85.7609Z" fill="#E8CAB6"/>
<path d="M214.87 75.7203L244 65.1103L234.58 41.3203L161.58 67.7903L171.22 91.5503L203.05 80.0003L195.61 61.2203L207.24 56.9403L214.87 75.7203ZM174.29 84.7203L168.7 70.9303L190.56 63.0003L196 76.8003L174.29 84.7203ZM237 62.0003L217.9 68.9003L212.3 55.1003L231.55 48.1003L237 62.0003Z" fill="#594165"/>
<path fill-rule="evenodd" clip-rule="evenodd" d="M170.94 157.939L195.16 188.829L200.82 210.659L208.09 254.179L204.21 362.729L146.38 350.389L183.72 247.519L146.38 182.439L170.94 157.939Z" fill="#DDDDDC"/>
<path fill-rule="evenodd" clip-rule="evenodd" d="M208.09 254.18L146.38 350.39L177.02 250.59L193.63 247.52L208.09 254.18Z" fill="#C4C4C4"/>
<path fill-rule="evenodd" clip-rule="evenodd" d="M209.81 206.199L185 210.659L166.72 227.659L177.02 250.589L208.09 254.179L209.81 206.199Z" fill="#8F8F8F"/>
<path fill-rule="evenodd" clip-rule="evenodd" d="M170.94 157.939L165.4 188.099L195.16 188.829L186.68 174.359L170.94 157.939Z" fill="#ECECEB"/>
<path fill-rule="evenodd" clip-rule="evenodd" d="M202.42 165.449L196.16 176.019L188.26 180.029L170.94 157.939L202.42 165.449Z" fill="#9075A0"/>
<path fill-rule="evenodd" clip-rule="evenodd" d="M202.46 165.459L202.42 165.449L188.26 180.029L195.16 188.829L204.91 180.559L202.46 165.459Z" fill="#594165"/>
<path fill-rule="evenodd" clip-rule="evenodd" d="M146.38 182.439L166.72 227.659L234.37 193.969L215.3 188.179L195.16 188.829L146.38 182.439Z" fill="#9DA1A2"/>
<path fill-rule="evenodd" clip-rule="evenodd" d="M234.36 193.971L228.3 143.411L220.99 134.721H212.13L195.16 188.831L234.36 193.971Z" fill="#C4C4C4"/>
<path fill-rule="evenodd" clip-rule="evenodd" d="M212.13 134.72L219.98 108.91L233.99 114.97L240.77 126.41L228.3 143.41L212.13 134.72Z" fill="#C3987B"/>
<path fill-rule="evenodd" clip-rule="evenodd" d="M219.98 108.909L238.63 103.289L248.01 110.369L236.55 114.599L219.98 108.909Z" fill="#C3987B"/>
<path fill-rule="evenodd" clip-rule="evenodd" d="M219.98 108.91L248.01 110.37L249.81 123.17L240.77 126.41L219.98 108.91Z" fill="#DFBDA5"/>
<path d="M187.77 76.3994C189.576 76.3994 191.04 74.9353 191.04 73.1294C191.04 71.3234 189.576 69.8594 187.77 69.8594C185.964 69.8594 184.5 71.3234 184.5 73.1294C184.5 74.9353 185.964 76.3994 187.77 76.3994Z" fill="#2B2B2B"/>
<path d="M223.76 63.0791C225.566 63.0791 227.03 61.615 227.03 59.8091C227.03 58.0031 225.566 56.5391 223.76 56.5391C221.954 56.5391 220.49 58.0031 220.49 59.8091C220.49 61.615 221.954 63.0791 223.76 63.0791Z" fill="#2B2B2B"/>
</svg>
