<svg width="400" height="400" viewBox="0 0 400 400" fill="none" xmlns="http://www.w3.org/2000/svg">
<g clip-path="url(#clip0_213_1141)">
<path opacity="0.1" fill-rule="evenodd" clip-rule="evenodd" d="M110.6 392.44L205.69 377.17L285.24 391.5L212.06 400.11L110.6 392.44Z" fill="black"/>
<path fill-rule="evenodd" clip-rule="evenodd" d="M205.65 341.359L220.9 366.509L229.25 368.119L233.14 364.439L231.25 344.039L205.65 341.359Z" fill="#C3987B"/>
<path fill-rule="evenodd" clip-rule="evenodd" d="M190.72 339.881L188.08 368.141L177.52 371.631L175.16 366.871L165.69 337.311L190.72 339.881Z" fill="#C3987B"/>
<path fill-rule="evenodd" clip-rule="evenodd" d="M233.14 364.439L244.7 375.109L233.58 387.459L220.05 385.579L220.9 366.509L233.14 364.439Z" fill="#27788C"/>
<path fill-rule="evenodd" clip-rule="evenodd" d="M188.08 368.139L195.99 389.079L182.08 391.159L168.3 389.079L175.16 366.869L188.08 368.139Z" fill="#27788C"/>
<path fill-rule="evenodd" clip-rule="evenodd" d="M231.25 344.041L210.59 349.501L205.65 341.361L218.45 340.141L231.25 344.041Z" fill="#8B6651"/>
<path fill-rule="evenodd" clip-rule="evenodd" d="M165.69 337.311L190.04 347.141L190.72 339.881L178.74 337.311H165.69Z" fill="#8B6651"/>
<path fill-rule="evenodd" clip-rule="evenodd" d="M158.25 174.02L127.92 238.35L153.26 224.13L169.93 215.96L158.25 174.02Z" fill="#50A9AA"/>
<path fill-rule="evenodd" clip-rule="evenodd" d="M211.82 165.789L222.07 170.389L256.32 220.949L231.25 209.089L211.82 196.629V165.789Z" fill="#50A9AA"/>
<path fill-rule="evenodd" clip-rule="evenodd" d="M211.82 165.791L200.35 195.081L184.22 201.981L200.7 189.611L179.24 163.381L158.25 174.021L165.37 213.781L156.33 240.851L143.55 268.541H175.69L211.82 262.081L221.5 248.881L231.25 209.091L211.82 165.791Z" fill="#72CBCC"/>
<path fill-rule="evenodd" clip-rule="evenodd" d="M165.37 213.78L156.33 240.85L187.4 240.7L221.22 246.13L230.55 218.75L231.25 209.09L165.37 213.78Z" fill="#369496"/>
<path fill-rule="evenodd" clip-rule="evenodd" d="M211.82 262.08L193.12 295.85L161.76 325.29L143.55 268.54L211.82 262.08Z" fill="#369496"/>
<path fill-rule="evenodd" clip-rule="evenodd" d="M211.82 262.08L219.9 275.63L228.74 318.5V340.14L165.69 337.31L161.76 325.29L211.82 262.08Z" fill="#50A9AA"/>
<path fill-rule="evenodd" clip-rule="evenodd" d="M165.69 337.31L228.74 318.5L231.25 344.04L165.69 337.31Z" fill="#369496"/>
<path opacity="0.2" fill-rule="evenodd" clip-rule="evenodd" d="M153.37 247.279L156.33 240.849L196.51 240.699L221.5 248.879L211.82 262.079L153.37 247.279Z" fill="#2B2B2B"/>
<path fill-rule="evenodd" clip-rule="evenodd" d="M211.82 262.081L228.74 318.501L221.5 248.881L211.82 262.081Z" fill="#369496"/>
<path fill-rule="evenodd" clip-rule="evenodd" d="M165.37 213.779L194.71 232.169L196.51 237.839L194.71 244.229L127.92 238.349L165.37 213.779Z" fill="#DFBDA5"/>
<path fill-rule="evenodd" clip-rule="evenodd" d="M229.42 238.35L221.5 248.88L194.71 244.23L216.56 235.59L229.42 238.35Z" fill="#8B6651"/>
<path fill-rule="evenodd" clip-rule="evenodd" d="M211.82 165.79L175.69 164.93V206.72L200.35 195.08L227.68 201.13L211.82 165.79Z" fill="white"/>
<path fill-rule="evenodd" clip-rule="evenodd" d="M248.98 58.3594L271.05 72.4394L253.68 95.9594L248.98 77.1594V58.3594Z" fill="#4F5253"/>
<path fill-rule="evenodd" clip-rule="evenodd" d="M148.97 58.3594L140.25 51.6694L129.72 33.0694L203.7 0.109375L210.17 19.7694L211.17 35.0594L178.4 52.6694L148.97 58.3594Z" fill="#72CBCC"/>
<path fill-rule="evenodd" clip-rule="evenodd" d="M203.7 0.109375L255 21.4994L248.98 58.3594L227.05 49.0894L211.17 35.0594L203.7 0.109375Z" fill="#8CE0DC"/>
<path fill-rule="evenodd" clip-rule="evenodd" d="M129.72 33.0703L134.23 77.1603L144.44 68.3903L148.97 58.3603L129.72 33.0703Z" fill="#369496"/>
<path fill-rule="evenodd" clip-rule="evenodd" d="M205.22 7.19922L202.26 8.40922L203.86 16.8692L196.76 19.7092L197.83 25.3192L205.2 22.5292L206.88 30.2692L209.92 29.2392L210.17 19.7692L205.22 7.19922Z" fill="#27788C"/>
<path fill-rule="evenodd" clip-rule="evenodd" d="M205.22 7.19922L208.71 8.91922L210.39 16.1392L217.61 19.5992L217.51 24.6392L211.6 21.9992L213.24 30.2992L209.92 29.2392L205.22 7.19922Z" fill="#318FA6"/>
<path fill-rule="evenodd" clip-rule="evenodd" d="M248.98 58.3594L259.95 146.169L216.56 153.149L200.35 195.079L165.59 146.249L141.24 122.819L157.92 113.639L162.21 118.469L178.16 78.8794L192.48 70.2694L210.17 62.4094L248.98 58.3594Z" fill="#DFBDA5"/>
<path fill-rule="evenodd" clip-rule="evenodd" d="M178.16 78.8809L188.91 158.261L216.56 153.151L207.87 161.421L210.17 169.691L200.35 195.081L157.63 142.691L154.55 135.881L150.09 133.441L136.68 117.001L153.37 102.881L161.04 120.211L166.72 103.881L178.16 78.8809Z" fill="#C3987B"/>
<path fill-rule="evenodd" clip-rule="evenodd" d="M241.71 81.2891L225.7 103.369L217.97 113.669L194.89 88.8191L241.71 81.2891Z" fill="#C3987B"/>
<path fill-rule="evenodd" clip-rule="evenodd" d="M213.91 85.6905L217.97 113.67L227.05 112.42L222.82 84.2305L213.91 85.6905Z" fill="#E8CAB6"/>
<path fill-rule="evenodd" clip-rule="evenodd" d="M227.05 112.42L223.1 118.47L217.97 113.67L227.05 112.42Z" fill="#8B6651"/>
<path fill-rule="evenodd" clip-rule="evenodd" d="M216.56 153.15L210.17 169.69L180.64 158.34L216.56 153.15Z" fill="#8B6651"/>
<path fill-rule="evenodd" clip-rule="evenodd" d="M160.8 126.721L157.63 142.691L150.09 133.451L160.8 126.721Z" fill="#8B6651"/>
<path fill-rule="evenodd" clip-rule="evenodd" d="M157.3 124.03L151.43 113.85L143.55 118.47L157.3 124.03Z" fill="#8B6651"/>
<path fill-rule="evenodd" clip-rule="evenodd" d="M207.87 70.2705L213.01 52.6705L211.17 35.0605L148.97 58.3605L119.43 95.7605L149.3 88.8205L178.16 78.8805L191.06 75.1405L207.87 70.2705Z" fill="#4F5253"/>
<path fill-rule="evenodd" clip-rule="evenodd" d="M178.16 78.8809L162.04 122.211L153.37 107.831L136.68 117.001L119.43 95.7609L178.16 78.8809Z" fill="#2B2B2B"/>
<path fill-rule="evenodd" clip-rule="evenodd" d="M211.17 35.0605L248.98 58.3605L207.87 70.2705L211.17 35.0605Z" fill="#6F7173"/>
<path fill-rule="evenodd" clip-rule="evenodd" d="M213.91 85.69L212.97 79.5L194.89 88.82L213.91 85.69Z" fill="#4F5253"/>
<path fill-rule="evenodd" clip-rule="evenodd" d="M222.82 84.23L241.71 81.29L222.13 78.25L222.82 84.23Z" fill="#4F5253"/>
<path fill-rule="evenodd" clip-rule="evenodd" d="M214.84 130.251L224.11 124.471L234.25 127.151L225.19 132.561L214.84 130.251Z" fill="#1C7678"/>
<path fill-rule="evenodd" clip-rule="evenodd" d="M187.34 380.99H177.09L168.3 389.08V392.38H195.99V389.08L187.34 380.99Z" fill="#3AA0BA"/>
<path fill-rule="evenodd" clip-rule="evenodd" d="M231.25 209.09L226.88 225.22L229.42 238.35L254.76 232.46L256.32 220.95L231.25 209.09Z" fill="#DFBDA5"/>
<path fill-rule="evenodd" clip-rule="evenodd" d="M229.42 238.35L221.5 248.88L218.45 239.21L229.42 238.35Z" fill="#C3987B"/>
<path fill-rule="evenodd" clip-rule="evenodd" d="M194.71 232.169L213.01 220.949L217.97 227.879L218.45 239.209L194.71 244.229V232.169Z" fill="#C3987B"/>
<path fill-rule="evenodd" clip-rule="evenodd" d="M213.01 220.949L226.88 225.219L229.42 238.349L218.45 239.209L213.01 220.949Z" fill="#E8CAB6"/>
<path fill-rule="evenodd" clip-rule="evenodd" d="M244.7 375.109L229.8 385.579H220.05V388.759H259.61V381.579L244.7 375.109Z" fill="#3AA0BA"/>
<path fill-rule="evenodd" clip-rule="evenodd" d="M207.04 129.259L226.23 137.409L240.69 124.029L225.19 131.559L207.04 129.259Z" fill="#50A9AA"/>
<path fill-rule="evenodd" clip-rule="evenodd" d="M210.78 99.6001C210.782 100.447 210.532 101.275 210.063 101.981C209.594 102.686 208.926 103.236 208.145 103.561C207.363 103.887 206.502 103.973 205.671 103.809C204.84 103.645 204.076 103.238 203.477 102.64C202.877 102.042 202.469 101.279 202.303 100.449C202.137 99.6182 202.221 98.7572 202.545 97.9745C202.868 97.1919 203.417 96.5228 204.121 96.0521C204.825 95.5813 205.653 95.3301 206.5 95.3301C207.633 95.3301 208.72 95.7796 209.523 96.5801C210.325 97.3806 210.777 98.4667 210.78 99.6001Z" fill="#2B2B2B"/>
<path fill-rule="evenodd" clip-rule="evenodd" d="M237.42 95.3308C237.42 96.1777 237.169 97.0056 236.698 97.7097C236.228 98.4137 235.559 98.9623 234.776 99.2859C233.993 99.6096 233.132 99.6938 232.302 99.5278C231.471 99.3618 230.709 98.9532 230.11 98.3537C229.512 97.7541 229.105 96.9905 228.941 96.1596C228.777 95.3287 228.864 94.4679 229.189 93.686C229.515 92.9041 230.065 92.2363 230.77 91.7672C231.475 91.2981 232.303 91.0488 233.15 91.0508C233.712 91.0508 234.268 91.1616 234.787 91.3768C235.305 91.592 235.777 91.9074 236.173 92.305C236.57 92.7025 236.884 93.1744 237.098 93.6937C237.312 94.2129 237.422 94.7692 237.42 95.3308Z" fill="#2B2B2B"/>
</g>
<defs>
<clipPath id="clip0_213_1141">
<rect width="400" height="400" fill="white"/>
</clipPath>
</defs>
</svg>
