<svg width="400" height="400" viewBox="0 0 400 400" fill="none" xmlns="http://www.w3.org/2000/svg">
<g clip-path="url(#clip0_213_1145)">
<path opacity="0.1" fill-rule="evenodd" clip-rule="evenodd" d="M312.9 391.69L202.01 383.68L96.46 390.03L196.82 400.11L312.9 391.69Z" fill="black"/>
<path fill-rule="evenodd" clip-rule="evenodd" d="M231.72 379.929L232.78 390.569H248.49L253.68 388.019L258.12 383.729L244.23 369.759L237.45 369.529L231.72 379.929Z" fill="#DFBDA5"/>
<path fill-rule="evenodd" clip-rule="evenodd" d="M232.78 390.57L231.96 382.26L241.14 390.57L263.69 379.17L273.82 390.57H232.78Z" fill="#C3987B"/>
<path fill-rule="evenodd" clip-rule="evenodd" d="M174.58 369.529L181.54 378.349L183.9 392.339H171.49L165.71 387.319L159.58 379.929L164.32 371.719L174.58 369.529Z" fill="#DFBDA5"/>
<path fill-rule="evenodd" clip-rule="evenodd" d="M160.19 379.289L147.68 392.339H183.9L182.3 382.859L175.75 392.339L160.19 379.289Z" fill="#C3987B"/>
<path fill-rule="evenodd" clip-rule="evenodd" d="M240.74 366.25L235.2 366.79L230.66 369.3L231.72 379.93L244.23 369.76L240.74 366.25Z" fill="#8B6651"/>
<path fill-rule="evenodd" clip-rule="evenodd" d="M179.77 367.85L175.31 365.1L168.07 365.24L164.32 371.72L181.54 378.35L179.77 367.85Z" fill="#8B6651"/>
<path fill-rule="evenodd" clip-rule="evenodd" d="M244.82 284.311L221.54 293.711L198.72 306.601L213.03 344.971L235.12 340.311L256.6 332.051L244.82 284.311Z" fill="#BF8F00"/>
<path fill-rule="evenodd" clip-rule="evenodd" d="M213.03 344.971L218.09 359.411L237.82 347.351L256.6 332.051L213.03 344.971Z" fill="#E5C828"/>
<path fill-rule="evenodd" clip-rule="evenodd" d="M218.09 359.411L256.6 332.051L264.19 359.161L241.21 361.411L218.09 359.411Z" fill="#CCAD14"/>
<path fill-rule="evenodd" clip-rule="evenodd" d="M218.09 359.41L223.16 371.57L264.19 359.16L218.09 359.41Z" fill="#E5C828"/>
<path fill-rule="evenodd" clip-rule="evenodd" d="M198.72 306.6L195.55 343.71L172.68 341.18L145.65 335.09L149.58 286.33L178.53 296.28L198.72 306.6Z" fill="#BF8F00"/>
<path fill-rule="evenodd" clip-rule="evenodd" d="M145.65 335.09L171.05 349.8L194.28 359.41L195.55 343.71L145.65 335.09Z" fill="#E5C828"/>
<path fill-rule="evenodd" clip-rule="evenodd" d="M145.65 335.09L143.12 359.66L171.04 360.94L194.28 359.41L145.65 335.09Z" fill="#CCAD14"/>
<path fill-rule="evenodd" clip-rule="evenodd" d="M194.28 359.41L143.12 359.66L193.02 370.81L194.28 359.41Z" fill="#E5C828"/>
<path fill-rule="evenodd" clip-rule="evenodd" d="M221.02 171.649L231.4 175.119L237.15 180.599L244.69 179.569L258.87 193.999L254.8 207.249L244.44 222.629L154.26 224.909L143.47 215.809L135.26 204.639L155.53 179.309L163.25 178.319L167.14 174.339L178.76 169.369L196.69 182.269L221.02 171.649Z" fill="#474747"/>
<path fill-rule="evenodd" clip-rule="evenodd" d="M244.82 284.31L198.72 306.6L149.58 286.33L154.26 224.91L161.91 216.21L169.59 211.86L229.62 208.57L236.71 212.33L244.44 222.63L244.82 284.31Z" fill="#856400"/>
<path fill-rule="evenodd" clip-rule="evenodd" d="M119.05 202.619L69.91 209.959L54.21 252.009L76.5 287.219L121.33 302.919L165.79 293.019L161.61 250.999L129.94 244.919L119.05 202.619Z" fill="#E5C828"/>
<path fill-rule="evenodd" clip-rule="evenodd" d="M107.66 224.15L102.26 229.42L94.4805 234.28L105.38 251.5L117.53 241.37L111.11 231.7L107.66 224.15Z" fill="#C3987B"/>
<path fill-rule="evenodd" clip-rule="evenodd" d="M113.7 244.57L109.68 232.51L94.4805 234.28L107.66 224.15L117.53 241.37L113.7 244.57Z" fill="#8B6651"/>
<path fill-rule="evenodd" clip-rule="evenodd" d="M109.68 232.51L94.4797 234.28L90.1797 250.55L94.9197 253.16L109.68 232.51Z" fill="#DFBDA5"/>
<path d="M76.2705 221.688L72.7793 231.197L82.2887 234.688L85.7799 225.179L76.2705 221.688Z" fill="#474747"/>
<path d="M70.1905 238.418L66.6992 247.928L76.2086 251.419L79.6998 241.91L70.1905 238.418Z" fill="#802D00"/>
<path d="M76.2751 257.181L72.7822 266.689L82.291 270.182L85.7839 260.674L76.2751 257.181Z" fill="#A84000"/>
<path d="M91.7266 269.813L88.2354 279.322L97.7447 282.814L101.236 273.304L91.7266 269.813Z" fill="#CC4E00"/>
<path d="M108.946 276.181L105.453 285.689L114.962 289.182L118.455 279.674L108.946 276.181Z" fill="#ED8600"/>
<path d="M128.456 276.639L124.965 286.148L134.474 289.64L137.965 280.13L128.456 276.639Z" fill="#FF9B01"/>
<path d="M145.676 266.78L142.185 276.289L151.694 279.78L155.185 270.271L145.676 266.78Z" fill="#F4D75D"/>
<path fill-rule="evenodd" clip-rule="evenodd" d="M154.26 224.911L129.94 244.921L123.23 218.831L135.26 204.641L154.26 224.911Z" fill="#DFBDA5"/>
<path fill-rule="evenodd" clip-rule="evenodd" d="M278.63 210.85L258.87 194L244.44 222.63L259 227.57L272.32 222.92L278.63 210.85Z" fill="#DFBDA5"/>
<path fill-rule="evenodd" clip-rule="evenodd" d="M244.69 179.569L244.44 222.629L229.62 208.569L231.4 175.119L244.69 179.569Z" fill="#BF8F00"/>
<path fill-rule="evenodd" clip-rule="evenodd" d="M167.14 174.34L169.59 211.86L154.26 224.91L155.53 179.31L167.14 174.34Z" fill="#BF8F00"/>
<path d="M219.73 223.25H179.21V264.55H219.73V223.25Z" fill="#9E7700"/>
<path fill-rule="evenodd" clip-rule="evenodd" d="M244.57 245.05L240 241.75L235.44 250.11L241.52 249.1L244.65 256.45L244.57 245.05Z" fill="#9E7700"/>
<path fill-rule="evenodd" clip-rule="evenodd" d="M217.97 269.619L211.38 274.929L212.39 280.249L221.01 286.589L224.3 273.159L217.97 269.619Z" fill="#CCAD14"/>
<path fill-rule="evenodd" clip-rule="evenodd" d="M179.21 260.239L189.85 256.699L188.84 248.089L193.9 246.059L190.86 237.699L188.08 238.709L188.33 242.769L181.75 242.259L179.21 248.589L178.27 253.779L179.21 260.239Z" fill="#CCAD14"/>
<path fill-rule="evenodd" clip-rule="evenodd" d="M199.98 272.401L193.4 270.631L194.92 277.721L199.73 276.961L199.98 272.401Z" fill="#9E7700"/>
<path fill-rule="evenodd" clip-rule="evenodd" d="M179.21 248.59L170.6 249.86L174.65 260.24H179.21V248.59Z" fill="#B58B00"/>
<path fill-rule="evenodd" clip-rule="evenodd" d="M109.68 232.51L105.38 251.5L100.99 244.57L109.68 232.51Z" fill="#8B6651"/>
<path fill-rule="evenodd" clip-rule="evenodd" d="M100.99 244.57L94.9199 253.16L105.38 251.5L100.99 244.57Z" fill="#CCAD14"/>
<path fill-rule="evenodd" clip-rule="evenodd" d="M259 227.571L294.26 197.131L305.96 196.471L303.98 210.251L284.19 235.701L259 227.571Z" fill="#C3987B"/>
<path fill-rule="evenodd" clip-rule="evenodd" d="M294.26 197.13L303.98 210.25L312.9 207.13L305.81 188.77L294.26 197.13Z" fill="#8B6651"/>
<path fill-rule="evenodd" clip-rule="evenodd" d="M320.85 183.56L331.94 199.51L329.47 202.96L313.81 196.47L301.81 182.27L320.85 183.56Z" fill="#C3987B"/>
<path fill-rule="evenodd" clip-rule="evenodd" d="M263.1 153.311L309.37 203.321L314.49 199.301L317.36 193.901L263.1 153.311Z" fill="#474747"/>
<path fill-rule="evenodd" clip-rule="evenodd" d="M327.56 216.221L328.96 223.731L341.63 225.501L338.84 218.921L333.19 217.541L329.82 214.971L327.56 216.221Z" fill="#BF8F00"/>
<path fill-rule="evenodd" clip-rule="evenodd" d="M329.47 202.961L333.19 217.541L319.59 214.361L324.06 207.721L329.47 202.961Z" fill="#856400"/>
<path fill-rule="evenodd" clip-rule="evenodd" d="M303.4 196.86L319.59 214.36L329.47 202.96L317.36 193.9L303.4 196.86Z" fill="#8F8F8F"/>
<path fill-rule="evenodd" clip-rule="evenodd" d="M299.83 204.64L303.4 196.86L314.6 198.19L317.36 193.9L301.81 182.27L294.26 197.13L299.83 204.64Z" fill="#DFBDA5"/>
<path fill-rule="evenodd" clip-rule="evenodd" d="M133.2 92.2591L187.66 79.0591L244.38 62.4091L243.6 54.2391L238.97 42.2891L185.02 66.7491L133.2 92.2591Z" fill="#CCAD14"/>
<path fill-rule="evenodd" clip-rule="evenodd" d="M238.97 42.2891L181.4 56.5591L123.25 75.1691L125.73 82.6391L133.2 92.2591L238.97 42.2891Z" fill="#E5C828"/>
<path fill-rule="evenodd" clip-rule="evenodd" d="M175.04 44.4902L169.78 61.9502L192.81 55.4102L175.04 44.4902Z" fill="#755800"/>
<path fill-rule="evenodd" clip-rule="evenodd" d="M238.97 42.2891L248.18 45.3691L258.22 52.6791L246.52 71.1691L243.94 65.9091L244.38 62.4091L238.97 42.2891Z" fill="#755800"/>
<path fill-rule="evenodd" clip-rule="evenodd" d="M238.97 42.2902L237.79 32.8902L240.05 20.6602L251.81 38.1702L258.22 52.6802L238.97 42.2902Z" fill="#CCAD14"/>
<path fill-rule="evenodd" clip-rule="evenodd" d="M240.05 20.6602L270.99 39.9102L258.22 52.6802L240.05 20.6602Z" fill="#BF8F00"/>
<path fill-rule="evenodd" clip-rule="evenodd" d="M238.97 42.2895L240.05 20.6595L240.7 8.76953L218.3 32.2995L218.85 48.0095L238.97 42.2895Z" fill="#856400"/>
<path fill-rule="evenodd" clip-rule="evenodd" d="M233.65 16.8394L208.26 0.109375L203.86 11.5894L202.2 20.6594L211.19 28.4594L219.72 32.7794L233.65 16.8394Z" fill="#BF8F00"/>
<path fill-rule="evenodd" clip-rule="evenodd" d="M219.72 32.7802L202.2 20.6602L196.73 34.3202L192.81 55.4102L218.85 48.0102L219.72 32.7802Z" fill="#CCAD14"/>
<path fill-rule="evenodd" clip-rule="evenodd" d="M208.26 0.109375L172.78 18.9294L192.18 21.0494L202.2 20.6594L208.26 0.109375Z" fill="#CCAD14"/>
<path fill-rule="evenodd" clip-rule="evenodd" d="M202.2 20.6597L172.78 18.9297L179.01 32.9897L192.81 55.4097L202.2 20.6597Z" fill="#BF8F00"/>
<path fill-rule="evenodd" clip-rule="evenodd" d="M118.04 99.4598L140.37 104.4L136.87 96.5598L133.2 92.2598L125.79 94.0498L118.04 99.4598Z" fill="#755800"/>
<path fill-rule="evenodd" clip-rule="evenodd" d="M192.81 55.4094L175.98 46.1494L165.48 41.6494L159.15 36.8894L161.81 26.6094L166.05 18.4094L168.67 11.3594L172.78 18.9294L192.81 55.4094Z" fill="#CCAD14"/>
<path fill-rule="evenodd" clip-rule="evenodd" d="M159.15 36.8891L149.47 33.8091L139.79 26.1791L137.75 16.1191L166.05 18.4091L159.15 36.8891Z" fill="#BF8F00"/>
<path fill-rule="evenodd" clip-rule="evenodd" d="M159.15 36.8897L139.79 26.1797L130.06 39.1597L136.59 51.8397L147.54 68.2697L156.54 48.6597L159.15 36.8897Z" fill="#856400"/>
<path fill-rule="evenodd" clip-rule="evenodd" d="M114.4 77.7995L110.01 103.269L133.2 92.2595L123.25 75.1694L119.02 74.9395L114.4 77.7995Z" fill="#856400"/>
<path fill-rule="evenodd" clip-rule="evenodd" d="M130.06 39.1602L121.29 49.1702L118.17 56.6802L128.62 61.2802L147.54 68.2702L130.06 39.1602Z" fill="#BF8F00"/>
<path fill-rule="evenodd" clip-rule="evenodd" d="M130.06 39.1602L99.1299 49.5402L118.17 56.6802L130.06 39.1602Z" fill="#CCAD14"/>
<path fill-rule="evenodd" clip-rule="evenodd" d="M118.17 56.6797L101.08 81.7697L123.25 75.1697L147.54 68.2697L118.17 56.6797Z" fill="#CCAD14"/>
<path fill-rule="evenodd" clip-rule="evenodd" d="M159.15 36.8906L147.54 68.2706L160.7 84.8806L169.78 61.9506L175.98 46.1506L159.15 36.8906Z" fill="#BF8F00"/>
<path fill-rule="evenodd" clip-rule="evenodd" d="M244.38 62.4102L263.41 140.5L228.81 152.83L224.23 161.04L221.02 171.65L206.13 181.97L193.76 194.79L172.21 155.01L157.54 133.43L145.8 113.6L143.32 103.84L133.2 92.2602L244.38 62.4102Z" fill="#DFBDA5"/>
<path fill-rule="evenodd" clip-rule="evenodd" d="M167.37 121.81L161.47 111.9L151.9 116.85L160.21 120.77L167.37 121.81Z" fill="#8B6651"/>
<path fill-rule="evenodd" clip-rule="evenodd" d="M177.23 80.4395L207.36 160.289L219.72 160.229L221.02 171.649L193.76 194.789L174.91 162.849L172.78 156.059L169.3 153.359L157.54 133.429L175.73 122.619L169.75 111.299L179.7 105.449L166.95 83.1994L177.23 80.4395Z" fill="#C3987B"/>
<path fill-rule="evenodd" clip-rule="evenodd" d="M195.29 92.1093L205.88 92.0393L217.99 108.479L215.67 89.1093L208.96 79.2793L195.29 92.1093Z" fill="#C3987B"/>
<path fill-rule="evenodd" clip-rule="evenodd" d="M222.85 75.2402L227.66 100.89L232.7 82.9602L241.45 77.6102L222.85 75.2402Z" fill="#C3987B"/>
<path fill-rule="evenodd" clip-rule="evenodd" d="M208.96 79.2793L192.39 85.4893L195.29 92.1093L208.96 79.2793Z" fill="#856400"/>
<path fill-rule="evenodd" clip-rule="evenodd" d="M222.85 75.2408L239.9 70.5508L241.45 77.6108L222.85 75.2408Z" fill="#856400"/>
<path fill-rule="evenodd" clip-rule="evenodd" d="M214.79 126.709L228.2 117.619L242.58 118.589L231.08 127.199L214.79 126.709Z" fill="#755800"/>
<path fill-rule="evenodd" clip-rule="evenodd" d="M246.54 116.051L230.6 126.251L209.34 126.871L232.05 132.491L246.54 116.051Z" fill="#B58B00"/>
<path fill-rule="evenodd" clip-rule="evenodd" d="M166.95 83.1992L179.7 105.449L169.75 111.299L164.56 102.859L145.8 113.599L133.2 92.2592L166.95 83.1992Z" fill="#856400"/>
<path fill-rule="evenodd" clip-rule="evenodd" d="M228.81 152.83L199.6 162.99L221.02 171.65L228.81 152.83Z" fill="#8B6651"/>
<path fill-rule="evenodd" clip-rule="evenodd" d="M175.62 128.721L171.17 146.211L161.92 136.021L175.62 128.721Z" fill="#8B6651"/>
<path fill-rule="evenodd" clip-rule="evenodd" d="M189.25 141.5L174.91 162.85L169.36 153.32L175.98 146.21L189.25 141.5Z" fill="#8B6651"/>
<path fill-rule="evenodd" clip-rule="evenodd" d="M177.43 121.609L189.25 141.499L169.36 153.329L157.54 133.429L177.43 121.609ZM164.65 135.239L171.17 146.239L182.17 139.719L175.65 128.719L164.65 135.239Z" fill="#755800"/>
<path d="M165.035 117.887L160.204 120.758L169.266 136.008L174.098 133.137L165.035 117.887Z" fill="#B58B00"/>
<path fill-rule="evenodd" clip-rule="evenodd" d="M222.85 75.2402L208.96 79.2802L217.99 108.48L231.62 104.37L222.85 75.2402Z" fill="#E8CAB6"/>
<path fill-rule="evenodd" clip-rule="evenodd" d="M231.62 104.369L226.86 113.239L217.99 108.479L231.62 104.369Z" fill="#8B6651"/>
<path d="M206.68 104.45C209.033 104.45 210.94 102.542 210.94 100.19C210.94 97.837 209.033 95.9297 206.68 95.9297C204.327 95.9297 202.42 97.837 202.42 100.19C202.42 102.542 204.327 104.45 206.68 104.45Z" fill="#2B2B2B"/>
<path fill-rule="evenodd" clip-rule="evenodd" d="M239.7 90.6604C239.7 91.503 239.45 92.3266 238.982 93.0271C238.514 93.7277 237.848 94.2737 237.07 94.5961C236.292 94.9186 235.435 95.0029 234.609 94.8385C233.782 94.6742 233.023 94.2684 232.427 93.6727C231.832 93.0769 231.426 92.3178 231.262 91.4915C231.097 90.6651 231.182 89.8086 231.504 89.0302C231.826 88.2518 232.372 87.5864 233.073 87.1183C233.774 86.6502 234.597 86.4004 235.44 86.4004C235.999 86.3991 236.554 86.5084 237.071 86.722C237.589 86.9356 238.059 87.2493 238.455 87.6452C238.851 88.041 239.164 88.5112 239.378 89.0286C239.592 89.546 239.701 90.1006 239.7 90.6604Z" fill="#2B2B2B"/>
</g>
<defs>
<clipPath id="clip0_213_1145">
<rect width="400" height="400" fill="white"/>
</clipPath>
</defs>
</svg>
