<svg width="400" height="400" viewBox="0 0 400 400" fill="none" xmlns="http://www.w3.org/2000/svg">
<g clip-path="url(#clip0_213_1140)">
<path opacity="0.1" d="M93.4404 388.159L197.33 380.529L295.81 388.449L201.72 400.109L93.4404 388.159Z" fill="#2B2B2B"/>
<path d="M184.22 387.8L206.32 388.09L206.25 383.19L166.15 379.02L179.47 389.17L184.22 387.8Z" fill="#27788C"/>
<path d="M155.78 381.039L147.87 386.869L147.79 391.689L184.37 392.629L184.22 387.799L155.78 381.039Z" fill="#27788C"/>
<path d="M193.94 273.48L201.65 270.52L227.35 272.32L206.54 324.73L184.37 343.53L168.53 340.64L169.54 299.46L193.94 273.48Z" fill="#4F5253"/>
<path d="M206.54 324.73L190.49 363.75L181.49 367.28L168.53 371.24L180.05 330.93L206.54 324.73Z" fill="#6F7173"/>
<path d="M190.49 363.75L206.25 383.19H170.98L170.83 375.63L174.72 365.77L190.49 363.75Z" fill="#318FA6"/>
<path d="M184.94 301.63L180.05 330.93L158.74 348.85L142.83 329.85L134.98 294.43L160.18 279.02L184.94 301.63Z" fill="#6F7173"/>
<path d="M219 261.381L227.35 272.321L191.13 293.781L174.58 272.681L219 261.381Z" fill="#474747"/>
<path d="M180.05 330.93L174.72 365.77L165.36 375.2L151.68 369.66L142.83 329.85L180.05 330.93Z" fill="#4F5253"/>
<path d="M174.72 365.77L184.22 387.8L147.87 386.87L151.68 369.66L174.72 365.77Z" fill="#3AA0BA"/>
<path d="M216.4 7.16992L185.45 13.4999L167.52 21.2799L152.19 16.0999H130.08L135.63 27.4699L145.13 32.2199L139.51 46.1899L141.03 60.2999L146.28 77.5799L156.07 91.3999L151.75 91.9099L148.3 95.3599L145.71 87.5899L139.08 75.4199L127.49 77.9399L120.08 82.6199L131.45 101.98L139.66 111.92L139.95 119.12L145.42 128.26L148.87 132.44L148.37 136.9L162.55 145.69L184.73 154.54L190.85 148.28L193.73 140.72V126.75L235.27 117.9L228.28 69.5199L230.16 60.1599L226.7 43.6699L222.81 38.9899L216.4 7.16992Z" fill="#DFBDA5"/>
<path d="M148.8 18.6896L158.52 51.5896L165 82.0396L176.59 130.06L193.73 126.75L192.14 133.45L193.73 140.72L184.73 154.54L148.37 136.9L139.44 118.33L133.68 101.98L148.3 95.3596L144.65 87.4796L143.65 80.2596L149.67 82.4696L141.03 60.2996L141.1 47.0496L145.13 32.2196L136.92 25.8896L130.08 16.0996L142.03 16.7396L148.8 18.6896Z" fill="#C3987B"/>
<path d="M133.68 101.979L148.3 95.3594L139.44 118.329L134.04 108.899L133.68 101.979Z" fill="#8B6651"/>
<path d="M193.73 126.75L169.39 131.43L184.73 154.54L191.42 148.06L193.73 140.72V126.75Z" fill="#8B6651"/>
<path d="M170.47 73.5507L171.77 59.9407L184.94 56.7707L191.35 70.8107L165 82.0407L192.43 79.2307L197.69 83.9207L190.2 45.4707L167.45 57.5607L164.93 65.9907L170.47 73.5507Z" fill="#C3987B"/>
<path d="M213.24 64.1901L213.53 52.3801L225.48 48.4901L228.86 50.2901L228.28 65.7001L206.83 73.6901L207.62 78.0801L228.28 69.5201L231.96 56.4101L227.56 41.0801L205.75 47.2701L207.55 64.6901L213.24 64.1901Z" fill="#C3987B"/>
<path d="M197.69 83.9191L203.95 88.5191L208.41 82.0391L197.69 83.9191Z" fill="#8B6651"/>
<path d="M191.93 52.9604L202.37 50.6504L208.41 82.0404L197.69 83.9204L191.93 52.9604Z" fill="#E8CAB6"/>
<path d="M191.93 52.9605L189.55 49.2805L190.2 45.4705L200.85 43.3105L203.95 46.6905L202.37 50.6505L191.93 52.9605Z" fill="#27788C"/>
<path d="M190.2 45.4707L158.52 51.5907L159.75 63.1107L162.55 70.1107L165 82.0007L196.1 75.4507L191.93 53.0007L190.2 45.4707ZM167.45 57.5607L184.45 54.2507L187.54 70.0907L170.48 73.5507L167.45 57.5607Z" fill="#318FA6"/>
<path d="M200.85 43.3098L231.85 37.2598L237.61 67.5698L206.8 73.6898L202.34 50.6898L200.85 43.3098ZM210.36 49.3098L213.24 64.1398L228 61.5198L225 46.3998L210.36 49.3098Z" fill="#318FA6"/>
<path d="M187.46 103.421L218.42 97.3105L218.92 99.7505L187.97 105.941L187.46 103.421Z" fill="#8B6651"/>
<path d="M140.88 92.6796L134.55 80.5996L128.07 83.5496L140.88 92.6796Z" fill="#8B6651"/>
<path d="M216.4 7.16937L157.66 0.109375L161.62 12.9294L167.52 21.2794L216.4 7.16937Z" fill="#DDDDDC"/>
<path d="M130.08 16.0996L117.34 22.2096L114.25 47.4096L128.79 43.2396L145.13 32.2196L130.08 16.0996Z" fill="#C4C4C4"/>
<path d="M114.25 47.4107L108.48 90.3907L127.49 77.9407L142.47 63.9707L145.13 32.2207L114.25 47.4107Z" fill="#DDDDDC"/>
<path d="M143.47 65.8398L152.38 83.9198L144.65 87.4799L138.72 74.6998L122.45 83.3398L133.32 101.41L139.44 118.33L109.06 89.8898L117.56 83.1199L143.47 65.8398Z" fill="#9DA1A2"/>
<path d="M167.52 21.2794L157.66 0.109375L130.08 16.0994L167.52 21.2794Z" fill="#C4C4C4"/>
<path d="M158.52 51.5898L117.56 83.1198L122.09 94.2098L122.45 83.3398L161.4 64.8398L158.52 51.5898Z" fill="#27788C"/>
<path d="M146.57 71.8198L161.4 64.8398L161.76 66.4198L162.55 70.1599L148.05 75.1298L146.57 71.8198Z" fill="#8B6651"/>
<path d="M139.08 75.4203L146.57 71.8203L148.05 75.1303L140.24 78.0103L139.08 75.4203Z" fill="#737373"/>
<path d="M148.37 136.9L144.99 150.94L176.02 168.07L188.76 172.18L198.19 161.6L203.38 148.13L193.73 140.72L184.73 154.54L148.37 136.9Z" fill="#DDDDDC"/>
<path d="M203.38 148.131L217.34 152.451L206.32 174.341L193.29 191.981L160.54 177.071L132.89 160.081L144.99 150.941L188.76 172.181L203.38 148.131Z" fill="#C4C4C4"/>
<path d="M132.89 160.08L180.48 185.21L186.31 186.94L193.29 191.98L161.33 229.2L133.03 181.4L132.89 160.08Z" fill="#1C7678"/>
<path d="M193.29 191.979L195.89 184.849L201.65 178.229L217.34 152.449L232.39 186.719L222.52 212.419L208.05 230.169L199.41 240.289L189.69 216.239L193.29 191.979Z" fill="#1C7678"/>
<path d="M184.73 154.539L177.1 166.489L188.76 172.179L196.1 160.299L184.73 154.539Z" fill="#4F5253"/>
<path d="M188.76 172.18L180.48 185.21L193.29 191.98L201.65 178.23L188.76 172.18Z" fill="#737373"/>
<path d="M130.8 181.029L193.29 191.979L206.54 194.279L199.43 240.289L208.05 250.419L194.3 273.479L189.84 302.339L113.81 290.749L130.8 181.029Z" fill="#8F8F8F"/>
<path d="M194.3 273.48L117.05 270.38L119.14 256.48L169.03 261.16L179.76 266.27L186.67 268L194.3 273.48Z" fill="#6F7173"/>
<path d="M222.52 212.42L199.41 240.29L198.19 248.35L208.05 251.66L203.38 260.08L194.3 273.48L227.56 272.32L222.52 212.42Z" fill="#369496"/>
<path d="M132.89 160.08L133.68 228.77L102.29 253.53L108.05 174.48L132.89 160.08Z" fill="#72CBCC"/>
<path d="M133.68 227.221L167.63 239.311L171.01 241.111L176.12 241.911L173.03 264.731L167.77 262.641L162.66 263.001L102.29 253.531L133.68 227.221Z" fill="#369496"/>
<path d="M167.63 239.311L176.12 241.911L175.91 252.491L173.03 264.731L162.66 263.001L167.63 239.311Z" fill="#DDDDDC"/>
<path d="M176.12 241.91L187.91 236.68L199.31 240.99L198.57 245.87H189.69L176.12 241.91Z" fill="#C3987B"/>
<path d="M217.34 152.449L247 197.159L236.2 206.809L222.52 212.419L217.34 152.449Z" fill="#369496"/>
<path d="M222.52 212.42L247 197.16L267.02 184.13L270.76 183.99L273.79 179.74L282.57 187.3L280.62 197.74L280.33 204.65L243.12 233.59L222.52 212.42Z" fill="#72CBCC"/>
<path d="M273.79 179.74L282.35 188.67L287.25 199.18L280.33 204.65L267.02 184.13L273.79 179.74Z" fill="#DDDDDC"/>
<path d="M293.73 142.09L300.06 127.25L302.94 143.17L297.54 144.46L293.73 142.09Z" fill="#8F8F8F"/>
<path d="M279.76 188.231L287.25 199.181L293.37 195.291L291.42 175.131L279.76 188.231Z" fill="#8B6651"/>
<path d="M293.73 142.09L302.94 143.17L295.31 210.19L286.02 209.11L287.17 199.17L292.93 190.79L290.23 172.53L293.73 142.09Z" fill="#4F5253"/>
<path d="M182.93 61.5192C182.884 62.3383 182.526 63.1087 181.93 63.6724C181.334 64.236 180.545 64.5501 179.725 64.5501C178.904 64.5501 178.115 64.236 177.519 63.6724C176.923 63.1087 176.565 62.3383 176.52 61.5192C176.565 60.7001 176.923 59.9297 177.519 59.366C178.115 58.8024 178.904 58.4883 179.725 58.4883C180.545 58.4883 181.334 58.8024 181.93 59.366C182.526 59.9297 182.884 60.7001 182.93 61.5192Z" fill="#2B2B2B"/>
<path d="M222.42 54.2492C222.428 54.6678 222.352 55.0836 222.195 55.4719C222.039 55.8602 221.806 56.2129 221.51 56.5089C221.214 56.8049 220.861 57.0381 220.473 57.1946C220.085 57.351 219.669 57.4274 219.25 57.4192C218.42 57.4192 217.624 57.0895 217.037 56.5025C216.45 55.9155 216.12 55.1194 216.12 54.2892C216.12 53.4591 216.45 52.663 217.037 52.076C217.624 51.489 218.42 51.1592 219.25 51.1592C219.663 51.1486 220.073 51.2206 220.457 51.3711C220.841 51.5216 221.192 51.7475 221.487 52.0355C221.782 52.3235 222.017 52.6678 222.177 53.048C222.338 53.4282 222.42 53.8366 222.42 54.2492Z" fill="#2B2B2B"/>
<path d="M289.35 171.18L306.02 176.14L296.85 200.35L287.25 199.18L289.22 178.38L289.35 171.18Z" fill="#C3987B"/>
<path d="M273.79 179.739L290.71 168.359L295.63 185.439L288.46 186.439L286.36 181.079L281.51 190.789L273.79 179.739Z" fill="#DFBDA5"/>
<path d="M176.12 241.91L198.57 245.87L200.23 255.03L202.8 261.02L198.91 266.49L194.3 273.48L173.03 264.73L176.12 241.91Z" fill="#DFBDA5"/>
<path d="M198.57 245.869L194.3 273.479L200.96 268.549L208.05 251.659L198.57 245.869Z" fill="#C3987B"/>
<path d="M184.94 301.63L137.79 307.73L134.85 293.91L184.94 301.63Z" fill="#474747"/>
</g>
<defs>
<clipPath id="clip0_213_1140">
<rect width="400" height="400" fill="white"/>
</clipPath>
</defs>
</svg>
