<svg width="400" height="400" viewBox="0 0 400 400" fill="none" xmlns="http://www.w3.org/2000/svg">
<g clip-path="url(#clip0_213_1144)">
<path fill-rule="evenodd" clip-rule="evenodd" d="M104.72 120.77L115.24 115.66L129.12 144.27L118.87 149.44L104.72 120.77Z" fill="#4F5253"/>
<path fill-rule="evenodd" clip-rule="evenodd" d="M134.72 111.631L89.4902 133.571L91.3702 158.421L144.16 133.811L134.72 111.631Z" fill="#858686"/>
<path fill-rule="evenodd" clip-rule="evenodd" d="M91.3701 158.42L104.72 160.38L153.19 138.93L147.27 132.34L141.84 132.49L91.3701 158.42Z" fill="#6F7173"/>
<path fill-rule="evenodd" clip-rule="evenodd" d="M149.89 187.1L129.12 144.27L118.87 149.44L139.37 192.2L149.89 187.1Z" fill="#4F5253"/>
<path fill-rule="evenodd" clip-rule="evenodd" d="M134.72 111.629L140.09 111.439H147.77L153.19 138.929L141.84 132.489L134.72 111.629Z" fill="#6F7173"/>
<path opacity="0.1" fill-rule="evenodd" clip-rule="evenodd" d="M90.96 391L181.16 376.67L317.94 385.12L200.15 400.12L90.96 391Z" fill="black"/>
<path fill-rule="evenodd" clip-rule="evenodd" d="M250.89 276.4L240.37 303.5L230.06 316.12L228.13 335L221.35 352.45L208.94 358.43L193.59 362.61L199.97 309.87L250.89 276.4Z" fill="#856400"/>
<path fill-rule="evenodd" clip-rule="evenodd" d="M196.47 350.61L226.02 340.42L221.35 352.45L207.91 362.61H193.59V357.54L196.47 350.61Z" fill="#9E7700"/>
<path fill-rule="evenodd" clip-rule="evenodd" d="M221.35 352.449L244.38 378.789L216.91 381.949L186.47 378.789V365.219L221.35 352.449Z" fill="#755800"/>
<path d="M244.39 378.779H186.43V385.109H244.39V378.779Z" fill="#BC8F2D"/>
<path fill-rule="evenodd" clip-rule="evenodd" d="M232.84 310.829L219.74 309.279L212.82 336.179L228.13 334.999L232.72 323.189L232.84 310.829Z" fill="#9E7700"/>
<path fill-rule="evenodd" clip-rule="evenodd" d="M219.74 309.28L232.65 323.16L240.37 303.5L219.74 309.28Z" fill="#B58B00"/>
<path fill-rule="evenodd" clip-rule="evenodd" d="M205.15 314.469L193.59 362.609L185.36 365.549L155.07 371.239L149.06 296.699L205.15 314.469Z" fill="#9E7700"/>
<path fill-rule="evenodd" clip-rule="evenodd" d="M250.89 276.4L205.15 314.47L149.06 296.7L180.34 288.64L250.89 276.4Z" fill="#BF8F00"/>
<path fill-rule="evenodd" clip-rule="evenodd" d="M161.41 156.199L209.06 167.359L237.64 246.429L244.55 260.709L166.42 265.049L148.06 270.059L147.06 255.369L161.41 156.199Z" fill="#E5C828"/>
<path fill-rule="evenodd" clip-rule="evenodd" d="M141.38 168.889L161.41 156.199L174.58 213.819L163.08 214.629L148.75 188.059L141.38 168.889Z" fill="#BF8F00"/>
<path fill-rule="evenodd" clip-rule="evenodd" d="M147.06 255.37L203.13 216.92L233.18 229L245.34 261.53L166.78 267.02L148.06 270.06L147.06 255.37Z" fill="#BF8F00"/>
<path opacity="0.2" fill-rule="evenodd" clip-rule="evenodd" d="M199.16 243.139L217.51 254.369L243.4 256.339L239.68 246.379L206.44 225.539L176.37 238.769L147.06 255.369L199.16 243.139Z" fill="#2B2B2B"/>
<path fill-rule="evenodd" clip-rule="evenodd" d="M240.43 192.289L248.94 196.409L244.08 208.299L233.18 228.999L232.84 204.249L234.14 194.769L240.43 192.289Z" fill="#CCAD14"/>
<path fill-rule="evenodd" clip-rule="evenodd" d="M199.81 208.29L217.51 254.37L239.68 246.38L221.96 199.57L199.81 208.29Z" fill="#4F5253"/>
<path fill-rule="evenodd" clip-rule="evenodd" d="M245.34 261.529L221.96 262.629L215.43 268.869L207.91 263.279L177.44 264.709L177.5 277.089L179.44 290.429L210.41 284.349L215.43 279.119L224.23 281.639L250.89 276.399L245.34 261.529Z" fill="#856400"/>
<path fill-rule="evenodd" clip-rule="evenodd" d="M207.91 263.281L210.41 284.351L224.23 281.641L221.96 262.631L207.91 263.281Z" fill="#CCAD14"/>
<path fill-rule="evenodd" clip-rule="evenodd" d="M244.48 61.6499L247.53 99.1399L244.89 135.03L215.57 143.78L201.55 158.87L179.51 159.46L161.41 156.2L149.62 128.59L140.09 111.44L130.51 91.3299L126.35 59.2999L156.77 70.2399L199.51 66.2999L209.38 51.9199L221.32 62.6799L244.48 61.6499Z" fill="#DFBDA5"/>
<path fill-rule="evenodd" clip-rule="evenodd" d="M166.42 70.5L171.15 107.88L163.08 113.78L154.44 109.8L150.73 94.77L158.41 94.1L156.77 71.49L166.42 70.5Z" fill="#C3987B"/>
<path fill-rule="evenodd" clip-rule="evenodd" d="M204.79 104.03L191.21 83.68L166.42 70.5L202.62 63.5L204.79 104.03Z" fill="#C3987B"/>
<path fill-rule="evenodd" clip-rule="evenodd" d="M223.76 96.51L229.75 76.78L241.61 61.94L216.5 60.5L223.76 96.51Z" fill="#C3987B"/>
<path fill-rule="evenodd" clip-rule="evenodd" d="M247.53 99.1406L140.09 111.441L161.41 156.201L176.24 159.651L189.06 161.791L209.06 167.361L212.97 152.831L217.18 144.851L250.9 140.511L247.53 99.1406Z" fill="#C3987B"/>
<path fill-rule="evenodd" clip-rule="evenodd" d="M171.15 107.881L176.52 149.601L186.94 152.911L190.73 163.871L187.46 175.901L161.41 156.201L146.26 124.391L145.53 118.221L140.09 111.441L154.44 109.801L171.15 107.881Z" fill="#B48C71"/>
<path fill-rule="evenodd" clip-rule="evenodd" d="M217.18 144.85L171.22 150.25L187.46 175.9L209.06 167.36L217.18 144.85Z" fill="#8B6651"/>
<path fill-rule="evenodd" clip-rule="evenodd" d="M154.44 109.801L146.26 124.391L140.09 111.441L154.44 109.801Z" fill="#8B6651"/>
<path d="M181.442 118.871L181.005 122.213L223.781 127.806L224.218 124.465L181.442 118.871Z" fill="#8B6651"/>
<path fill-rule="evenodd" clip-rule="evenodd" d="M204.79 104.031L215.63 109.821L224.28 101.801L214.48 101.871L204.79 104.031Z" fill="#8B6651"/>
<path fill-rule="evenodd" clip-rule="evenodd" d="M166.42 70.4998L201.55 76.5598L200.58 67.0098L186.97 67.1898L166.42 70.4998Z" fill="#474747"/>
<path fill-rule="evenodd" clip-rule="evenodd" d="M221.72 75.0205L220.6 64.1105L229.8 61.7305L241.61 61.9405L221.72 75.0205Z" fill="#474747"/>
<path d="M178.811 82.3114L178.426 85.8203L194.529 87.5896L194.914 84.0807L178.811 82.3114Z" fill="#2B2B2B"/>
<path fill-rule="evenodd" clip-rule="evenodd" d="M156.77 71.4901L158.41 94.1001L150.73 94.7701L147.86 83.9101L130.51 91.3301L115.87 60.5801L139.09 61.4701L156.77 71.4901Z" fill="#474747"/>
<path fill-rule="evenodd" clip-rule="evenodd" d="M136.71 94.4298L143.38 91.7598L147.77 104.55L136.71 94.4298Z" fill="#8B6651"/>
<path fill-rule="evenodd" clip-rule="evenodd" d="M153.4 30.9102L138.61 31.3802L125.65 34.4402L119.93 46.0902L115.87 60.5802L140.07 43.4802L153.4 30.9102Z" fill="#9E7700"/>
<path fill-rule="evenodd" clip-rule="evenodd" d="M125.65 34.4394L163.22 13.9794L196.7 0.109375L238.67 22.5994L192.12 29.3694L153.4 30.9094L141.07 32.4794L125.65 34.4394Z" fill="#856400"/>
<path fill-rule="evenodd" clip-rule="evenodd" d="M196.7 0.109375L137.04 4.91937L125.65 34.4394L196.7 0.109375Z" fill="#BF8F00"/>
<path fill-rule="evenodd" clip-rule="evenodd" d="M125.65 34.4397L107.37 17.4297L84.5898 38.1297L103.91 37.9797L125.65 34.4397Z" fill="#9E7700"/>
<path fill-rule="evenodd" clip-rule="evenodd" d="M84.5903 38.1295L51.0703 69.2395L100.54 47.2295L125.65 34.4395L84.5903 38.1295Z" fill="#BF8F00"/>
<path fill-rule="evenodd" clip-rule="evenodd" d="M51.0703 69.2395L115.87 60.5795L125.65 34.4395L51.0703 69.2395Z" fill="#755800"/>
<path fill-rule="evenodd" clip-rule="evenodd" d="M153.4 30.9106L258.78 20.6406L262.63 59.7806L220.6 64.1106L209.38 51.9206L200.58 67.0106L156.77 71.4906L153.19 48.2406L153.4 30.9106Z" fill="#E5C828"/>
<path fill-rule="evenodd" clip-rule="evenodd" d="M165.43 39.2504L204.08 35.4004L192.69 56.8904L167.19 59.3004L165.43 39.2504Z" fill="#474747"/>
<path fill-rule="evenodd" clip-rule="evenodd" d="M250.44 30.8594L211.77 34.5194L227.08 53.4194L252.57 50.8694L250.44 30.8594Z" fill="#474747"/>
<path fill-rule="evenodd" clip-rule="evenodd" d="M156.77 71.4902L115.87 60.5802L153.4 30.9102L156.77 71.4902Z" fill="#CCAD14"/>
<path d="M234.52 82.1491C234.52 83.0945 234.24 84.0187 233.714 84.8048C233.189 85.5908 232.443 86.2035 231.569 86.5653C230.696 86.9271 229.735 87.0217 228.807 86.8373C227.88 86.6529 227.028 86.1976 226.36 85.5291C225.691 84.8606 225.236 84.0089 225.052 83.0817C224.867 82.1544 224.962 81.1933 225.324 80.3199C225.686 79.4465 226.298 78.6999 227.084 78.1747C227.87 77.6495 228.795 77.3691 229.74 77.3691C231.008 77.3691 232.224 77.8727 233.12 78.7692C234.016 79.6656 234.52 80.8814 234.52 82.1491Z" fill="#2B2B2B"/>
<path fill-rule="evenodd" clip-rule="evenodd" d="M209.38 51.9199L220.6 64.1099L224.28 101.8L204.79 104.03L200.71 66.9999L209.38 51.9199Z" fill="#E8CAB6"/>
<path fill-rule="evenodd" clip-rule="evenodd" d="M130.03 219.311L112.67 183.581L141.38 168.891L163.08 214.631L151.48 224.821L130.03 219.311Z" fill="#CCAD14"/>
<path fill-rule="evenodd" clip-rule="evenodd" d="M175.44 241.341L147.06 255.371L130.03 219.311L163.08 214.631L174.44 226.971L175.44 241.341Z" fill="#E5C828"/>
<path fill-rule="evenodd" clip-rule="evenodd" d="M199.81 208.289L163.08 214.629L175.44 241.339L206.44 225.539L207.91 216.919L199.81 208.289Z" fill="#DFBDA5"/>
<path fill-rule="evenodd" clip-rule="evenodd" d="M206.44 225.54L233.18 229L227.14 208.87L221.96 199.57L212.66 200.12L199.81 208.29L206.44 225.54Z" fill="#C3987B"/>
<path fill-rule="evenodd" clip-rule="evenodd" d="M233.18 228.999L240.86 213.129L240.43 192.289L231.11 193.369L221.96 199.569L233.18 228.999Z" fill="#8B6651"/>
<path fill-rule="evenodd" clip-rule="evenodd" d="M193.59 362.609L200.15 385.109H154.44L155.07 371.239L193.59 362.609Z" fill="#856400"/>
<path d="M200.15 385.109H154.44V391.439H200.15V385.109Z" fill="#CCAD14"/>
<path fill-rule="evenodd" clip-rule="evenodd" d="M196.47 350.609L153.88 356.519L155.07 371.239L193.59 362.609L196.47 350.609Z" fill="#BF8F00"/>
<path fill-rule="evenodd" clip-rule="evenodd" d="M177.44 264.711L166.42 265.051L169.16 309.231L174.44 357.541L185.97 352.071L177.44 264.711Z" fill="#CCAD14"/>
<path fill-rule="evenodd" clip-rule="evenodd" d="M135.59 292.371L145.72 304.751L166.42 265.051L137.18 273.281L135.59 292.371Z" fill="#CCAD14"/>
<path fill-rule="evenodd" clip-rule="evenodd" d="M131.18 240.279L137.71 243.489L133.94 256.339L126.35 261.529V250.779L131.18 240.279Z" fill="#4F5253"/>
<path fill-rule="evenodd" clip-rule="evenodd" d="M99.9199 245.119L107.73 245.449L118.87 261.529L107.89 262.629L99.9199 245.119Z" fill="#4F5253"/>
<path fill-rule="evenodd" clip-rule="evenodd" d="M133.94 256.34L158.41 295.44L156.53 302.22L136.71 279.28L127.42 258.42L133.94 256.34Z" fill="#858686"/>
<path fill-rule="evenodd" clip-rule="evenodd" d="M109.93 260.36L116.48 256.06L123.04 251.75L113.03 236.51L131.18 240.28L127.42 258.42L156.53 302.22L149.98 306.52L143.43 310.83L114.31 267.03L96.1602 263.27L99.9202 245.12L109.93 260.36Z" fill="#6F7173"/>
<path fill-rule="evenodd" clip-rule="evenodd" d="M174.44 357.541L127.36 355.201L121.35 277.741L145.72 302.781L166.42 265.051L174.44 357.541Z" fill="#E5C828"/>
<path fill-rule="evenodd" clip-rule="evenodd" d="M272.94 199.94L286.29 189.59V174.23L274.94 185.42L272.94 199.94Z" fill="#C3987B"/>
<path fill-rule="evenodd" clip-rule="evenodd" d="M187.46 175.9L273.6 141.85L280.65 157.39L286.29 174.23L199.81 208.29L187.46 175.9Z" fill="#6F7173"/>
<path fill-rule="evenodd" clip-rule="evenodd" d="M273.6 141.85L287.63 149.19L290.97 155.15L292.3 160.88L286.29 174.23L273.6 141.85Z" fill="#4F5253"/>
<path fill-rule="evenodd" clip-rule="evenodd" d="M287.63 149.19L299.93 144.27L300.14 151.19L297.76 158.68L292.3 160.88L287.63 149.19Z" fill="#474747"/>
<path fill-rule="evenodd" clip-rule="evenodd" d="M299.93 144.271L310.09 140.211L310.58 146.411L307.92 154.591L297.76 158.681L299.93 144.271Z" fill="#6F7173"/>
<path fill-rule="evenodd" clip-rule="evenodd" d="M310.09 140.209L320.1 136.199L319.59 142.999L317.94 150.559L307.92 154.589L310.09 140.209Z" fill="#474747"/>
<path fill-rule="evenodd" clip-rule="evenodd" d="M320.1 136.2L329.76 132.34L329.62 138.85L327.61 146.67L317.94 150.56L320.1 136.2Z" fill="#6F7173"/>
<path fill-rule="evenodd" clip-rule="evenodd" d="M329.76 132.34L339.37 128.49L339.09 134.92L337.22 142.8L327.74 146.62L329.76 132.34Z" fill="#474747"/>
<path fill-rule="evenodd" clip-rule="evenodd" d="M339.37 128.49L348.39 124.82L346.06 139.18L337.22 142.8L339.37 128.49Z" fill="#6F7173"/>
<path fill-rule="evenodd" clip-rule="evenodd" d="M233.18 229L253.41 187.18L269.85 185.09L272.94 199.94L263.91 235.33L233.18 229Z" fill="#C3987B"/>
<path fill-rule="evenodd" clip-rule="evenodd" d="M253.41 187.18L269.21 179.79L286.29 174.23L272.94 199.94L253.41 187.18Z" fill="#8B6651"/>
<path fill-rule="evenodd" clip-rule="evenodd" d="M253.41 187.179L258.23 166.609L279.23 156.199L286.29 174.229L253.41 187.179Z" fill="#DFBDA5"/>
<path d="M220.36 173.719L199.483 181.67L200.669 184.782L221.546 176.831L220.36 173.719Z" fill="#4F5253"/>
<path d="M222.497 179.33L201.62 187.281L202.805 190.393L223.682 182.442L222.497 179.33Z" fill="#4F5253"/>
<path d="M224.634 184.939L203.757 192.891L204.942 196.003L225.819 188.051L224.634 184.939Z" fill="#4F5253"/>
</g>
<defs>
<clipPath id="clip0_213_1144">
<rect width="400" height="400" fill="white"/>
</clipPath>
</defs>
</svg>
