<svg width="275" height="106" viewBox="0 0 275 106" fill="none" xmlns="http://www.w3.org/2000/svg">
<path d="M122.224 85L109.84 44.68H109.552C109.6 45.64 109.672 47.08 109.768 49C109.864 50.92 109.96 52.984 110.056 55.192C110.152 57.352 110.2 59.32 110.2 61.096V85H100.48V33.592H115.312L127.48 72.904H127.696L140.584 33.592H155.416V85H145.264V60.664C145.264 59.032 145.288 57.16 145.336 55.048C145.432 52.936 145.504 50.944 145.552 49.072C145.648 47.152 145.72 45.712 145.768 44.752H145.48L132.232 85H122.224ZM184.386 33.592C188.946 33.592 192.762 34.024 195.834 34.888C198.954 35.704 201.282 37.072 202.818 38.992C204.402 40.864 205.194 43.408 205.194 46.624C205.194 48.544 204.882 50.296 204.258 51.88C203.634 53.464 202.722 54.76 201.522 55.768C200.37 56.776 198.954 57.424 197.274 57.712V58.072C199.002 58.408 200.562 59.008 201.954 59.872C203.346 60.736 204.45 61.984 205.266 63.616C206.082 65.248 206.49 67.408 206.49 70.096C206.49 73.216 205.722 75.904 204.186 78.16C202.698 80.368 200.538 82.072 197.706 83.272C194.874 84.424 191.514 85 187.626 85H168.402V33.592H184.386ZM185.61 53.968C188.778 53.968 190.962 53.464 192.162 52.456C193.41 51.448 194.034 49.984 194.034 48.064C194.034 46.096 193.314 44.68 191.874 43.816C190.434 42.952 188.154 42.52 185.034 42.52H179.274V53.968H185.61ZM179.274 62.608V76H186.402C189.666 76 191.946 75.376 193.242 74.128C194.538 72.832 195.186 71.128 195.186 69.016C195.186 67.72 194.898 66.592 194.322 65.632C193.794 64.672 192.858 63.928 191.514 63.4C190.17 62.872 188.346 62.608 186.042 62.608H179.274ZM236.577 85H225.705V42.664H211.737V33.592H250.545V42.664H236.577V85Z" fill="white"/>
<path fill-rule="evenodd" clip-rule="evenodd" d="M85.9997 43.5C85.9997 19.4756 66.748 0 42.9999 0C19.2517 0 0 19.4756 0 43.5C0 66.55 17.7217 85.4127 40.1335 86.9049V87H42.9999H86V43.5H85.9997Z" fill="white"/>
<rect x="260" y="70" width="15" height="15" fill="white"/>
</svg>
