<svg width="117" height="48" viewBox="0 0 117 48" fill="none" xmlns="http://www.w3.org/2000/svg">
<path d="M46.72 38L40.7 18.4H40.56C40.5833 18.8667 40.6183 19.5667 40.665 20.5C40.7117 21.4333 40.7583 22.4367 40.805 23.51C40.8517 24.56 40.875 25.5167 40.875 26.38V38H36.15V13.01H43.36L49.275 32.12H49.38L55.645 13.01H62.855V38H57.92V26.17C57.92 25.3767 57.9317 24.4667 57.955 23.44C58.0017 22.4133 58.0367 21.445 58.06 20.535C58.1067 19.6017 58.1417 18.9017 58.165 18.435H58.025L51.585 38H46.72ZM76.9376 13.01C79.1542 13.01 81.0092 13.22 82.5026 13.64C84.0192 14.0367 85.1509 14.7017 85.8976 15.635C86.6676 16.545 87.0526 17.7817 87.0526 19.345C87.0526 20.2783 86.9009 21.13 86.5976 21.9C86.2942 22.67 85.8509 23.3 85.2676 23.79C84.7076 24.28 84.0192 24.595 83.2026 24.735V24.91C84.0426 25.0733 84.8009 25.365 85.4776 25.785C86.1542 26.205 86.6909 26.8117 87.0876 27.605C87.4842 28.3983 87.6826 29.4483 87.6826 30.755C87.6826 32.2717 87.3092 33.5783 86.5626 34.675C85.8392 35.7483 84.7892 36.5767 83.4126 37.16C82.0359 37.72 80.4026 38 78.5126 38H69.1676V13.01H76.9376ZM77.5326 22.915C79.0726 22.915 80.1342 22.67 80.7176 22.18C81.3242 21.69 81.6276 20.9783 81.6276 20.045C81.6276 19.0883 81.2776 18.4 80.5776 17.98C79.8776 17.56 78.7692 17.35 77.2526 17.35H74.4526V22.915H77.5326ZM74.4526 27.115V33.625H77.9176C79.5042 33.625 80.6126 33.3217 81.2426 32.715C81.8726 32.085 82.1876 31.2567 82.1876 30.23C82.1876 29.6 82.0476 29.0517 81.7676 28.585C81.5109 28.1183 81.0559 27.7567 80.4026 27.5C79.7492 27.2433 78.8626 27.115 77.7426 27.115H74.4526ZM102.308 38H97.0232V17.42H90.2332V13.01H109.098V17.42H102.308V38Z" fill="white"/>
<path fill-rule="evenodd" clip-rule="evenodd" d="M30 23C30 14.7157 23.2843 8 15 8C6.71573 8 0 14.7157 0 23C0 30.9482 6.18197 37.4526 14 37.9672V38H15H30V23Z" fill="white"/>
<rect x="112" y="33" width="5" height="5" fill="white"/>
</svg>
